M48
; DRILL file {KiCad 7.0.1} date Wed Dec 13 20:39:29 2023
; FORMAT={3:3/ absolute / metric / suppress leading zeros}
; #@! TF.CreationDate,2023-12-13T20:39:29+01:00
; #@! TF.GenerationSoftware,Kicad,Pcbnew,7.0.1
; #@! TF.FileFunction,Plated,1,4,PTH
FMAT,2
METRIC,TZ
; #@! TA.AperFunction,Plated,PTH,ViaDrill
T1C0.300
; #@! TA.AperFunction,Plated,PTH,ComponentDrill
T2C0.750
; #@! TA.AperFunction,Plated,PTH,ComponentDrill
T3C1.000
; #@! TA.AperFunction,Plated,PTH,ComponentDrill
T4C1.200
%
G90
G05
T1
X189773Y-85230
X189843Y-82800
X189892Y-80290
X192833Y-75870
X195840Y-146820
X196750Y-156610
X197133Y-77920
X197150Y-148770
X200960Y-156580
X201090Y-151870
X203440Y-156480
X205320Y-145720
X208380Y-149980
X209910Y-147310
X216370Y-185530
X217270Y-185480
X220690Y-185900
X224910Y-58370
X227850Y-54840
X237140Y-166300
X237260Y-171390
X240830Y-121370
X242770Y-168520
X245260Y-168550
X245960Y-121370
X247720Y-168570
X248640Y-99180
T2
X215860Y-56130
X217860Y-56130
X219860Y-56130
X226560Y-231000
X228560Y-231000
X230560Y-231000
X237960Y-231000
X239960Y-231000
X241960Y-231000
X249650Y-127690
X249650Y-129690
X249650Y-131690
X249650Y-133690
T3
X148520Y-177630
X148520Y-180170
X148520Y-182710
X148520Y-185250
X148520Y-187790
X148520Y-190330
X148520Y-192870
X148520Y-195410
X148520Y-197950
X148520Y-200490
X148520Y-203030
X148520Y-205570
X148520Y-208110
X148520Y-210650
X148520Y-213190
X148520Y-215730
X148520Y-218270
X148520Y-220810
X148520Y-223350
X148520Y-225890
X156140Y-177630
X156140Y-180170
X156140Y-182710
X156140Y-185250
X156140Y-187790
X156140Y-190330
X156140Y-192870
X156140Y-195410
X156140Y-197950
X156140Y-200490
X156140Y-203030
X156140Y-205570
X156140Y-208110
X156140Y-210650
X156140Y-213190
X156140Y-215730
X156140Y-218270
X156140Y-220810
X156140Y-223350
X156140Y-225890
X186478Y-68600
X186478Y-71140
X217350Y-196840
X217350Y-199380
X224120Y-171360
X224120Y-173900
X228710Y-148250
X228710Y-150790
X228710Y-153330
X228710Y-155870
X228710Y-158410
X228710Y-160950
X228710Y-163490
X228710Y-166030
X228800Y-64530
X228800Y-67070
X228800Y-69610
X228800Y-72150
X228800Y-74690
X228800Y-77230
X228800Y-79770
X228800Y-82310
X228800Y-84850
X228800Y-87390
X228800Y-89930
X228800Y-92470
X228800Y-95010
X228800Y-97550
X239120Y-131660
X241660Y-131660
X251570Y-148250
X251570Y-150790
X251570Y-153330
X251570Y-155870
X251570Y-158410
X251570Y-160950
X251570Y-163490
X251570Y-166030
X251580Y-64520
X251580Y-67060
X251580Y-69600
X251580Y-72140
X251580Y-74680
X251580Y-77220
X251580Y-79760
X251580Y-82300
X251580Y-84840
X251580Y-87380
X251580Y-89920
X251580Y-92460
X251580Y-95000
X251580Y-97540
X251580Y-100080
X251580Y-102620
X251580Y-105160
X251580Y-107700
T4
X249680Y-139220
T0
M30
