%TF.GenerationSoftware,KiCad,Pcbnew,7.0.1*%
%TF.CreationDate,2023-12-13T20:39:24+01:00*%
%TF.ProjectId,big_pcb,6269675f-7063-4622-9e6b-696361645f70,rev?*%
%TF.SameCoordinates,Original*%
%TF.FileFunction,Copper,L2,Inr*%
%TF.FilePolarity,Positive*%
%FSLAX46Y46*%
G04 Gerber Fmt 4.6, Leading zero omitted, Abs format (unit mm)*
G04 Created by KiCad (PCBNEW 7.0.1) date 2023-12-13 20:39:24*
%MOMM*%
%LPD*%
G01*
G04 APERTURE LIST*
G04 Aperture macros list*
%AMRoundRect*
0 Rectangle with rounded corners*
0 $1 Rounding radius*
0 $2 $3 $4 $5 $6 $7 $8 $9 X,Y pos of 4 corners*
0 Add a 4 corners polygon primitive as box body*
4,1,4,$2,$3,$4,$5,$6,$7,$8,$9,$2,$3,0*
0 Add four circle primitives for the rounded corners*
1,1,$1+$1,$2,$3*
1,1,$1+$1,$4,$5*
1,1,$1+$1,$6,$7*
1,1,$1+$1,$8,$9*
0 Add four rect primitives between the rounded corners*
20,1,$1+$1,$2,$3,$4,$5,0*
20,1,$1+$1,$4,$5,$6,$7,0*
20,1,$1+$1,$6,$7,$8,$9,0*
20,1,$1+$1,$8,$9,$2,$3,0*%
G04 Aperture macros list end*
%ADD10C,0.300000*%
%TA.AperFunction,NonConductor*%
%ADD11C,0.300000*%
%TD*%
%TA.AperFunction,ComponentPad*%
%ADD12R,1.700000X1.700000*%
%TD*%
%TA.AperFunction,ComponentPad*%
%ADD13O,1.700000X1.700000*%
%TD*%
%TA.AperFunction,ComponentPad*%
%ADD14RoundRect,0.250000X0.350000X0.625000X-0.350000X0.625000X-0.350000X-0.625000X0.350000X-0.625000X0*%
%TD*%
%TA.AperFunction,ComponentPad*%
%ADD15O,1.200000X1.750000*%
%TD*%
%TA.AperFunction,ComponentPad*%
%ADD16RoundRect,0.250000X0.625000X-0.350000X0.625000X0.350000X-0.625000X0.350000X-0.625000X-0.350000X0*%
%TD*%
%TA.AperFunction,ComponentPad*%
%ADD17O,1.750000X1.200000*%
%TD*%
%TA.AperFunction,ComponentPad*%
%ADD18RoundRect,0.250000X-0.350000X-0.625000X0.350000X-0.625000X0.350000X0.625000X-0.350000X0.625000X0*%
%TD*%
%TA.AperFunction,ComponentPad*%
%ADD19C,2.500000*%
%TD*%
%TA.AperFunction,ViaPad*%
%ADD20C,0.700000*%
%TD*%
G04 APERTURE END LIST*
D10*
D11*
X149531428Y-53216428D02*
X148817142Y-53216428D01*
X148817142Y-53216428D02*
X148817142Y-51716428D01*
X149960000Y-51859285D02*
X150031428Y-51787857D01*
X150031428Y-51787857D02*
X150174286Y-51716428D01*
X150174286Y-51716428D02*
X150531428Y-51716428D01*
X150531428Y-51716428D02*
X150674286Y-51787857D01*
X150674286Y-51787857D02*
X150745714Y-51859285D01*
X150745714Y-51859285D02*
X150817143Y-52002142D01*
X150817143Y-52002142D02*
X150817143Y-52145000D01*
X150817143Y-52145000D02*
X150745714Y-52359285D01*
X150745714Y-52359285D02*
X149888571Y-53216428D01*
X149888571Y-53216428D02*
X150817143Y-53216428D01*
D12*
%TO.N,Net-(JP2-A)*%
%TO.C,JP2*%
X224120000Y-173900000D03*
D13*
%TO.N,+3.3VA*%
X224120000Y-171360000D03*
%TD*%
D14*
%TO.N,Net-(J10-Pin_1)*%
%TO.C,J10*%
X219860000Y-56130000D03*
D15*
%TO.N,/HALL_TOP*%
X217860000Y-56130000D03*
%TO.N,GND*%
X215860000Y-56130000D03*
%TD*%
D12*
%TO.N,Net-(JP3-A)*%
%TO.C,JP3*%
X186477500Y-71140000D03*
D13*
%TO.N,+3.3VP*%
X186477500Y-68600000D03*
%TD*%
D12*
%TO.N,unconnected-(J4-Pin_1-Pad1)*%
%TO.C,J4*%
X228710000Y-148250000D03*
D13*
%TO.N,unconnected-(J4-Pin_2-Pad2)*%
X228710000Y-150790000D03*
%TO.N,unconnected-(J4-Pin_3-Pad3)*%
X228710000Y-153330000D03*
%TO.N,/SD_D5_SCK*%
X228710000Y-155870000D03*
%TO.N,/SD_D6_MISO*%
X228710000Y-158410000D03*
%TO.N,/SD_D7_MOSI*%
X228710000Y-160950000D03*
%TO.N,/SD_D8_CS*%
X228710000Y-163490000D03*
%TO.N,+3.3VA*%
X228710000Y-166030000D03*
%TD*%
D12*
%TO.N,/SPI_CS*%
%TO.C,J1*%
X228800000Y-64530000D03*
D13*
%TO.N,Net-(J1-Pin_2)*%
X228800000Y-67070000D03*
%TO.N,Net-(J1-Pin_3)*%
X228800000Y-69610000D03*
%TO.N,/SPI_MISO*%
X228800000Y-72150000D03*
%TO.N,/DVP_Y5*%
X228800000Y-74690000D03*
%TO.N,/DVP_PCLK*%
X228800000Y-77230000D03*
%TO.N,/VSYNC*%
X228800000Y-79770000D03*
%TO.N,/DVP_Y7*%
X228800000Y-82310000D03*
%TO.N,/DISP_HRDY*%
X228800000Y-84850000D03*
%TO.N,/DISP_RST*%
X228800000Y-87390000D03*
%TO.N,unconnected-(J1-Pin_11-Pad11)*%
X228800000Y-89930000D03*
%TO.N,/D-*%
X228800000Y-92470000D03*
%TO.N,/D+*%
X228800000Y-95010000D03*
%TO.N,+5V*%
X228800000Y-97550000D03*
%TD*%
D16*
%TO.N,GND*%
%TO.C,J6*%
X249650000Y-133690000D03*
D17*
%TO.N,Net-(J6-Pin_2)*%
X249650000Y-131690000D03*
%TO.N,/SCL*%
X249650000Y-129690000D03*
%TO.N,/SDA*%
X249650000Y-127690000D03*
%TD*%
D18*
%TO.N,Net-(J9-Pin_1)*%
%TO.C,J9*%
X237960000Y-231000000D03*
D15*
%TO.N,/HALL_RIGHT*%
X239960000Y-231000000D03*
%TO.N,GND*%
X241960000Y-231000000D03*
%TD*%
D12*
%TO.N,Net-(J6-Pin_2)*%
%TO.C,JP8*%
X241660000Y-131660000D03*
D13*
%TO.N,+5V*%
X239120000Y-131660000D03*
%TD*%
D12*
%TO.N,/LED*%
%TO.C,J2*%
X251580000Y-64520000D03*
D13*
%TO.N,/SW_DISP_SD*%
X251580000Y-67060000D03*
%TO.N,/HALL_TOP*%
X251580000Y-69600000D03*
%TO.N,/EN_PWR_HALL*%
X251580000Y-72140000D03*
%TO.N,/DVP_Y6*%
X251580000Y-74680000D03*
%TO.N,/HALL_LEFT*%
X251580000Y-77220000D03*
%TO.N,/EN_PWR_DISP*%
X251580000Y-79760000D03*
%TO.N,/EN_PWR_SD*%
X251580000Y-82300000D03*
%TO.N,/CAM_SDA*%
X251580000Y-84840000D03*
%TO.N,/CAM_SCL*%
X251580000Y-87380000D03*
%TO.N,/HALL_RIGHT*%
X251580000Y-89920000D03*
%TO.N,/BATT_SCL*%
X251580000Y-92460000D03*
%TO.N,/BATT_SDA*%
X251580000Y-95000000D03*
%TO.N,unconnected-(J2-Pin_14-Pad14)*%
X251580000Y-97540000D03*
%TO.N,GND*%
X251580000Y-100080000D03*
%TO.N,unconnected-(J2-Pin_16-Pad16)*%
X251580000Y-102620000D03*
%TO.N,+3.3V*%
X251580000Y-105160000D03*
%TO.N,/ESP_RST#*%
X251580000Y-107700000D03*
%TD*%
D18*
%TO.N,Net-(J8-Pin_1)*%
%TO.C,J8*%
X226560000Y-231000000D03*
D15*
%TO.N,/HALL_LEFT*%
X228560000Y-231000000D03*
%TO.N,GND*%
X230560000Y-231000000D03*
%TD*%
D12*
%TO.N,Net-(JP1-A)*%
%TO.C,JP1*%
X217350000Y-196840000D03*
D13*
%TO.N,+5VD*%
X217350000Y-199380000D03*
%TD*%
D19*
%TO.N,GND*%
%TO.C,TP4*%
X249680000Y-139220000D03*
%TD*%
D12*
%TO.N,unconnected-(J5-Pin_1-Pad1)*%
%TO.C,J5*%
X251570000Y-148250000D03*
D13*
%TO.N,unconnected-(J5-Pin_2-Pad2)*%
X251570000Y-150790000D03*
%TO.N,unconnected-(J5-Pin_3-Pad3)*%
X251570000Y-153330000D03*
%TO.N,unconnected-(J5-Pin_4-Pad4)*%
X251570000Y-155870000D03*
%TO.N,unconnected-(J5-Pin_5-Pad5)*%
X251570000Y-158410000D03*
%TO.N,unconnected-(J5-Pin_6-Pad6)*%
X251570000Y-160950000D03*
%TO.N,GND*%
X251570000Y-163490000D03*
%TO.N,unconnected-(J5-Pin_8-Pad8)*%
X251570000Y-166030000D03*
%TD*%
D12*
%TO.N,Net-(J3-Pin_1)*%
%TO.C,J3*%
X156140000Y-225890000D03*
D13*
%TO.N,+5VD*%
X148520000Y-225890000D03*
%TO.N,/DISP_SDA*%
X156140000Y-223350000D03*
%TO.N,+5VD*%
X148520000Y-223350000D03*
%TO.N,/DISP_SCL*%
X156140000Y-220810000D03*
%TO.N,GND*%
X148520000Y-220810000D03*
%TO.N,/P4_free*%
X156140000Y-218270000D03*
%TO.N,/P_TX_free*%
X148520000Y-218270000D03*
%TO.N,GND*%
X156140000Y-215730000D03*
%TO.N,/P_RX_free*%
X148520000Y-215730000D03*
%TO.N,/DISP_RST*%
X156140000Y-213190000D03*
%TO.N,/P18_free*%
X148520000Y-213190000D03*
%TO.N,/P27_free*%
X156140000Y-210650000D03*
%TO.N,GND*%
X148520000Y-210650000D03*
%TO.N,/P22_free*%
X156140000Y-208110000D03*
%TO.N,/P23_free*%
X148520000Y-208110000D03*
%TO.N,Net-(J3-Pin_17)*%
X156140000Y-205570000D03*
%TO.N,/DISP_HRDY*%
X148520000Y-205570000D03*
%TO.N,/DISP_MOSI*%
X156140000Y-203030000D03*
%TO.N,GND*%
X148520000Y-203030000D03*
%TO.N,Net-(J3-Pin_21)*%
X156140000Y-200490000D03*
%TO.N,/P25_free*%
X148520000Y-200490000D03*
%TO.N,/DISP_SCK*%
X156140000Y-197950000D03*
%TO.N,/DISP_CS*%
X148520000Y-197950000D03*
%TO.N,GND*%
X156140000Y-195410000D03*
%TO.N,/P_CS1_free*%
X148520000Y-195410000D03*
%TO.N,/ID_SD*%
X156140000Y-192870000D03*
%TO.N,/ID_SC_free*%
X148520000Y-192870000D03*
%TO.N,/P5_free*%
X156140000Y-190330000D03*
%TO.N,GND*%
X148520000Y-190330000D03*
%TO.N,/P6_free*%
X156140000Y-187790000D03*
%TO.N,/P12_free*%
X148520000Y-187790000D03*
%TO.N,/P13_free*%
X156140000Y-185250000D03*
%TO.N,GND*%
X148520000Y-185250000D03*
%TO.N,/P19_free*%
X156140000Y-182710000D03*
%TO.N,/P16_free*%
X148520000Y-182710000D03*
%TO.N,/P26_free*%
X156140000Y-180170000D03*
%TO.N,/P20_free*%
X148520000Y-180170000D03*
%TO.N,GND*%
X156140000Y-177630000D03*
%TO.N,/P21_free*%
X148520000Y-177630000D03*
%TD*%
D20*
%TO.N,+5V*%
X216370000Y-185530000D03*
X217270000Y-185480000D03*
%TO.N,GND*%
X205320000Y-145720000D03*
X245260000Y-168550000D03*
X220690000Y-185900000D03*
X227850000Y-54840000D03*
X196750000Y-156610000D03*
X189842500Y-82800000D03*
X189772500Y-85230000D03*
X247720000Y-168570000D03*
X200960000Y-156580000D03*
X242770000Y-168520000D03*
X189892500Y-80290000D03*
X203440000Y-156480000D03*
%TO.N,+3.3V*%
X201090000Y-151870000D03*
X240830000Y-121370000D03*
X192832500Y-75870000D03*
X237140000Y-166300000D03*
X245960000Y-121370000D03*
X237260000Y-171390000D03*
%TO.N,Net-(D1-A)*%
X224910000Y-58370000D03*
%TO.N,/SD_D5_SCK*%
X208380000Y-149980000D03*
%TO.N,/SD_D6_MISO*%
X209910000Y-147310000D03*
%TO.N,/SD_D7_MOSI*%
X197150000Y-148770000D03*
%TO.N,/SD_D8_CS*%
X195840000Y-146820000D03*
%TO.N,/EN_PWR_HALL*%
X197132500Y-77920000D03*
%TO.N,/HALL_LEFT*%
X248640000Y-99180000D03*
%TD*%
%TA.AperFunction,Conductor*%
%TO.N,GND*%
G36*
X188189934Y-50089934D02*
G01*
X229566000Y-50090000D01*
X229628000Y-50106613D01*
X229673387Y-50152000D01*
X229690000Y-50214000D01*
X229690000Y-59100000D01*
X255566000Y-59100000D01*
X255628000Y-59116613D01*
X255673387Y-59162000D01*
X255690000Y-59224000D01*
X255690000Y-236966000D01*
X255673387Y-237028000D01*
X255628000Y-237073387D01*
X255566000Y-237090000D01*
X146814000Y-237090000D01*
X146752000Y-237073387D01*
X146706613Y-237028000D01*
X146690000Y-236966000D01*
X146689995Y-230693304D01*
X198085766Y-230693304D01*
X198095722Y-231079831D01*
X198120627Y-231272194D01*
X198145367Y-231463286D01*
X198234176Y-231839600D01*
X198361211Y-232204797D01*
X198525117Y-232554987D01*
X198724162Y-232886469D01*
X198724164Y-232886472D01*
X198724165Y-232886473D01*
X198956241Y-233195734D01*
X199218885Y-233479495D01*
X199509314Y-233734745D01*
X199824449Y-233958781D01*
X199824453Y-233958783D01*
X200160949Y-234149228D01*
X200515242Y-234304063D01*
X200515247Y-234304065D01*
X200883588Y-234421652D01*
X201262067Y-234500743D01*
X201646673Y-234540500D01*
X201936582Y-234540500D01*
X201936589Y-234540500D01*
X202226142Y-234525574D01*
X202608191Y-234466072D01*
X202776861Y-234421652D01*
X202982092Y-234367604D01*
X203015936Y-234354844D01*
X203343896Y-234231209D01*
X203516883Y-234144744D01*
X203689751Y-234058340D01*
X204015998Y-233850826D01*
X204015999Y-233850825D01*
X204016004Y-233850822D01*
X204319187Y-233610860D01*
X204596091Y-233340997D01*
X204596091Y-233340996D01*
X204596095Y-233340993D01*
X204843777Y-233044095D01*
X204949835Y-232886469D01*
X205059627Y-232723294D01*
X205241346Y-232382002D01*
X205387009Y-232023834D01*
X205487307Y-231679269D01*
X225759500Y-231679269D01*
X225762353Y-231709696D01*
X225807207Y-231837884D01*
X225887849Y-231947150D01*
X225997115Y-232027792D01*
X225997118Y-232027793D01*
X226125301Y-232072646D01*
X226137474Y-232073787D01*
X226155731Y-232075500D01*
X226155734Y-232075500D01*
X226964266Y-232075500D01*
X226964269Y-232075500D01*
X226979482Y-232074073D01*
X226994699Y-232072646D01*
X227122882Y-232027793D01*
X227122882Y-232027792D01*
X227122884Y-232027792D01*
X227232150Y-231947150D01*
X227312792Y-231837884D01*
X227312793Y-231837882D01*
X227357646Y-231709699D01*
X227360500Y-231679266D01*
X227360500Y-231319957D01*
X227759500Y-231319957D01*
X227774631Y-231454251D01*
X227774631Y-231454253D01*
X227774632Y-231454255D01*
X227834211Y-231624522D01*
X227863660Y-231671389D01*
X227930185Y-231777264D01*
X228057735Y-231904814D01*
X228057737Y-231904815D01*
X228057738Y-231904816D01*
X228210478Y-232000789D01*
X228380745Y-232060368D01*
X228515046Y-232075500D01*
X228559999Y-232080565D01*
X228559999Y-232080564D01*
X228560000Y-232080565D01*
X228739255Y-232060368D01*
X228909522Y-232000789D01*
X229062262Y-231904816D01*
X229189816Y-231777262D01*
X229285789Y-231624522D01*
X229339389Y-231471340D01*
X229373366Y-231420231D01*
X229427698Y-231391674D01*
X229489070Y-231392673D01*
X229542443Y-231422984D01*
X229574741Y-231475179D01*
X229636303Y-231671389D01*
X229735003Y-231849214D01*
X229867479Y-232003531D01*
X230028307Y-232128021D01*
X230210905Y-232217589D01*
X230309999Y-232243246D01*
X230310000Y-232243247D01*
X230310000Y-231250000D01*
X230810000Y-231250000D01*
X230810000Y-232248366D01*
X230811948Y-232248067D01*
X231002663Y-232177435D01*
X231175263Y-232069854D01*
X231322669Y-231929733D01*
X231438855Y-231762805D01*
X231474703Y-231679269D01*
X237159500Y-231679269D01*
X237162353Y-231709696D01*
X237207207Y-231837884D01*
X237287849Y-231947150D01*
X237397115Y-232027792D01*
X237397118Y-232027793D01*
X237525301Y-232072646D01*
X237537474Y-232073787D01*
X237555731Y-232075500D01*
X237555734Y-232075500D01*
X238364266Y-232075500D01*
X238364269Y-232075500D01*
X238379482Y-232074073D01*
X238394699Y-232072646D01*
X238522882Y-232027793D01*
X238522882Y-232027792D01*
X238522884Y-232027792D01*
X238632150Y-231947150D01*
X238712792Y-231837884D01*
X238712793Y-231837882D01*
X238757646Y-231709699D01*
X238760500Y-231679266D01*
X238760500Y-231319957D01*
X239159500Y-231319957D01*
X239174631Y-231454251D01*
X239174631Y-231454253D01*
X239174632Y-231454255D01*
X239234211Y-231624522D01*
X239263660Y-231671389D01*
X239330185Y-231777264D01*
X239457735Y-231904814D01*
X239457737Y-231904815D01*
X239457738Y-231904816D01*
X239610478Y-232000789D01*
X239780745Y-232060368D01*
X239915046Y-232075500D01*
X239959999Y-232080565D01*
X239959999Y-232080564D01*
X239960000Y-232080565D01*
X240139255Y-232060368D01*
X240309522Y-232000789D01*
X240462262Y-231904816D01*
X240589816Y-231777262D01*
X240685789Y-231624522D01*
X240739389Y-231471340D01*
X240773366Y-231420231D01*
X240827698Y-231391674D01*
X240889070Y-231392673D01*
X240942443Y-231422984D01*
X240974741Y-231475179D01*
X241036303Y-231671389D01*
X241135003Y-231849214D01*
X241267479Y-232003531D01*
X241428307Y-232128021D01*
X241610905Y-232217589D01*
X241709999Y-232243246D01*
X241710000Y-232243247D01*
X241710000Y-231250000D01*
X242210000Y-231250000D01*
X242210000Y-232248366D01*
X242211948Y-232248067D01*
X242402663Y-232177435D01*
X242575263Y-232069854D01*
X242722669Y-231929733D01*
X242838855Y-231762805D01*
X242919059Y-231575907D01*
X242960000Y-231376689D01*
X242960000Y-231250000D01*
X242210000Y-231250000D01*
X241710000Y-231250000D01*
X241710000Y-229756753D01*
X242210000Y-229756753D01*
X242210000Y-230750000D01*
X242960000Y-230750000D01*
X242960000Y-230674290D01*
X242944580Y-230522660D01*
X242883696Y-230328610D01*
X242784996Y-230150785D01*
X242652520Y-229996468D01*
X242491692Y-229871978D01*
X242309094Y-229782410D01*
X242210000Y-229756753D01*
X241710000Y-229756753D01*
X241710000Y-229751634D01*
X241708051Y-229751932D01*
X241517336Y-229822564D01*
X241344736Y-229930145D01*
X241197330Y-230070266D01*
X241081144Y-230237194D01*
X241000941Y-230424092D01*
X240980945Y-230521390D01*
X240952449Y-230578485D01*
X240899334Y-230613850D01*
X240835666Y-230618119D01*
X240778305Y-230590162D01*
X240742442Y-230537384D01*
X240685789Y-230375478D01*
X240589816Y-230222738D01*
X240589815Y-230222737D01*
X240589814Y-230222735D01*
X240462264Y-230095185D01*
X240394886Y-230052849D01*
X240309522Y-229999211D01*
X240139255Y-229939632D01*
X240139253Y-229939631D01*
X240139251Y-229939631D01*
X239960000Y-229919434D01*
X239780748Y-229939631D01*
X239780745Y-229939631D01*
X239780745Y-229939632D01*
X239610478Y-229999211D01*
X239610476Y-229999211D01*
X239610476Y-229999212D01*
X239457735Y-230095185D01*
X239330185Y-230222735D01*
X239234212Y-230375476D01*
X239174631Y-230545748D01*
X239159500Y-230680043D01*
X239159500Y-231319957D01*
X238760500Y-231319957D01*
X238760500Y-230320734D01*
X238757646Y-230290301D01*
X238712793Y-230162118D01*
X238712792Y-230162115D01*
X238632150Y-230052849D01*
X238522884Y-229972207D01*
X238394873Y-229927415D01*
X238394699Y-229927354D01*
X238394698Y-229927353D01*
X238394696Y-229927353D01*
X238364269Y-229924500D01*
X238364266Y-229924500D01*
X237555734Y-229924500D01*
X237555731Y-229924500D01*
X237525303Y-229927353D01*
X237397115Y-229972207D01*
X237287849Y-230052849D01*
X237207207Y-230162115D01*
X237162353Y-230290303D01*
X237159500Y-230320731D01*
X237159500Y-231679269D01*
X231474703Y-231679269D01*
X231519059Y-231575907D01*
X231560000Y-231376689D01*
X231560000Y-231250000D01*
X230810000Y-231250000D01*
X230310000Y-231250000D01*
X230310000Y-229756753D01*
X230810000Y-229756753D01*
X230810000Y-230750000D01*
X231560000Y-230750000D01*
X231560000Y-230674290D01*
X231544580Y-230522660D01*
X231483696Y-230328610D01*
X231384996Y-230150785D01*
X231252520Y-229996468D01*
X231091692Y-229871978D01*
X230909094Y-229782410D01*
X230810000Y-229756753D01*
X230310000Y-229756753D01*
X230310000Y-229751634D01*
X230308051Y-229751932D01*
X230117336Y-229822564D01*
X229944736Y-229930145D01*
X229797330Y-230070266D01*
X229681144Y-230237194D01*
X229600941Y-230424092D01*
X229580945Y-230521390D01*
X229552449Y-230578485D01*
X229499334Y-230613850D01*
X229435666Y-230618119D01*
X229378305Y-230590162D01*
X229342442Y-230537384D01*
X229285789Y-230375478D01*
X229189816Y-230222738D01*
X229189815Y-230222737D01*
X229189814Y-230222735D01*
X229062264Y-230095185D01*
X228994886Y-230052849D01*
X228909522Y-229999211D01*
X228739255Y-229939632D01*
X228739253Y-229939631D01*
X228739251Y-229939631D01*
X228560000Y-229919434D01*
X228380748Y-229939631D01*
X228380745Y-229939631D01*
X228380745Y-229939632D01*
X228210478Y-229999211D01*
X228210476Y-229999211D01*
X228210476Y-229999212D01*
X228057735Y-230095185D01*
X227930185Y-230222735D01*
X227834212Y-230375476D01*
X227774631Y-230545748D01*
X227759500Y-230680043D01*
X227759500Y-231319957D01*
X227360500Y-231319957D01*
X227360500Y-230320734D01*
X227357646Y-230290301D01*
X227312793Y-230162118D01*
X227312792Y-230162115D01*
X227232150Y-230052849D01*
X227122884Y-229972207D01*
X226994873Y-229927415D01*
X226994699Y-229927354D01*
X226994698Y-229927353D01*
X226994696Y-229927353D01*
X226964269Y-229924500D01*
X226964266Y-229924500D01*
X226155734Y-229924500D01*
X226155731Y-229924500D01*
X226125303Y-229927353D01*
X225997115Y-229972207D01*
X225887849Y-230052849D01*
X225807207Y-230162115D01*
X225762353Y-230290303D01*
X225759500Y-230320731D01*
X225759500Y-231679269D01*
X205487307Y-231679269D01*
X205495074Y-231652587D01*
X205564394Y-231272197D01*
X205594234Y-230886696D01*
X205584278Y-230500169D01*
X205534633Y-230116715D01*
X205445823Y-229740398D01*
X205318790Y-229375206D01*
X205154882Y-229025012D01*
X204955835Y-228693527D01*
X204723759Y-228384266D01*
X204461115Y-228100505D01*
X204170686Y-227845255D01*
X203855551Y-227621219D01*
X203855546Y-227621216D01*
X203519050Y-227430771D01*
X203164757Y-227275936D01*
X202796410Y-227158347D01*
X202417935Y-227079257D01*
X202225629Y-227059378D01*
X202033327Y-227039500D01*
X201743411Y-227039500D01*
X201540723Y-227049948D01*
X201453855Y-227054426D01*
X201071802Y-227113929D01*
X200697907Y-227212395D01*
X200336098Y-227348793D01*
X199990248Y-227521659D01*
X199664001Y-227729173D01*
X199360810Y-227969142D01*
X199083904Y-228239006D01*
X198836222Y-228535904D01*
X198620372Y-228856707D01*
X198438653Y-229197998D01*
X198292993Y-229556160D01*
X198184925Y-229927415D01*
X198115605Y-230307805D01*
X198086792Y-230680043D01*
X198085766Y-230693304D01*
X146689995Y-230693304D01*
X146689991Y-225890000D01*
X147464417Y-225890000D01*
X147484699Y-226095932D01*
X147484700Y-226095934D01*
X147544768Y-226293954D01*
X147642315Y-226476450D01*
X147693609Y-226538952D01*
X147773589Y-226636410D01*
X147853569Y-226702047D01*
X147933550Y-226767685D01*
X148116046Y-226865232D01*
X148314066Y-226925300D01*
X148520000Y-226945583D01*
X148725934Y-226925300D01*
X148923954Y-226865232D01*
X149106450Y-226767685D01*
X149116120Y-226759749D01*
X155089500Y-226759749D01*
X155101132Y-226818230D01*
X155145447Y-226884552D01*
X155211769Y-226928867D01*
X155270251Y-226940500D01*
X155270252Y-226940500D01*
X157009748Y-226940500D01*
X157009749Y-226940500D01*
X157038989Y-226934683D01*
X157068231Y-226928867D01*
X157134552Y-226884552D01*
X157178867Y-226818231D01*
X157190500Y-226759748D01*
X157190500Y-225020252D01*
X157178867Y-224961769D01*
X157178866Y-224961768D01*
X157134552Y-224895447D01*
X157068230Y-224851132D01*
X157009749Y-224839500D01*
X157009748Y-224839500D01*
X155270252Y-224839500D01*
X155270251Y-224839500D01*
X155211769Y-224851132D01*
X155145447Y-224895447D01*
X155101132Y-224961769D01*
X155089500Y-225020251D01*
X155089500Y-226759749D01*
X149116120Y-226759749D01*
X149266410Y-226636410D01*
X149397685Y-226476450D01*
X149495232Y-226293954D01*
X149555300Y-226095934D01*
X149575583Y-225890000D01*
X149555300Y-225684066D01*
X149495232Y-225486046D01*
X149397685Y-225303550D01*
X149332047Y-225223569D01*
X149266410Y-225143589D01*
X149116121Y-225020252D01*
X149106450Y-225012315D01*
X148923954Y-224914768D01*
X148824943Y-224884733D01*
X148725932Y-224854699D01*
X148520000Y-224834417D01*
X148314067Y-224854699D01*
X148116043Y-224914769D01*
X147933551Y-225012314D01*
X147773589Y-225143589D01*
X147642314Y-225303551D01*
X147544769Y-225486043D01*
X147484699Y-225684067D01*
X147464417Y-225890000D01*
X146689991Y-225890000D01*
X146689989Y-223349999D01*
X147464417Y-223349999D01*
X147484699Y-223555932D01*
X147484700Y-223555934D01*
X147544768Y-223753954D01*
X147642315Y-223936450D01*
X147693608Y-223998952D01*
X147773589Y-224096410D01*
X147853569Y-224162047D01*
X147933550Y-224227685D01*
X148116046Y-224325232D01*
X148314066Y-224385300D01*
X148520000Y-224405583D01*
X148725934Y-224385300D01*
X148923954Y-224325232D01*
X149106450Y-224227685D01*
X149266410Y-224096410D01*
X149397685Y-223936450D01*
X149495232Y-223753954D01*
X149555300Y-223555934D01*
X149575583Y-223350000D01*
X149575583Y-223349999D01*
X155084417Y-223349999D01*
X155104699Y-223555932D01*
X155104700Y-223555934D01*
X155164768Y-223753954D01*
X155262315Y-223936450D01*
X155313608Y-223998952D01*
X155393589Y-224096410D01*
X155473569Y-224162047D01*
X155553550Y-224227685D01*
X155736046Y-224325232D01*
X155934066Y-224385300D01*
X156140000Y-224405583D01*
X156345934Y-224385300D01*
X156543954Y-224325232D01*
X156726450Y-224227685D01*
X156886410Y-224096410D01*
X157017685Y-223936450D01*
X157115232Y-223753954D01*
X157175300Y-223555934D01*
X157195583Y-223350000D01*
X157175300Y-223144066D01*
X157115232Y-222946046D01*
X157017685Y-222763550D01*
X156952047Y-222683569D01*
X156886410Y-222603589D01*
X156788952Y-222523608D01*
X156726450Y-222472315D01*
X156543954Y-222374768D01*
X156444943Y-222344733D01*
X156345932Y-222314699D01*
X156140000Y-222294417D01*
X155934067Y-222314699D01*
X155736043Y-222374769D01*
X155553551Y-222472314D01*
X155393589Y-222603589D01*
X155262314Y-222763551D01*
X155164769Y-222946043D01*
X155104699Y-223144067D01*
X155084417Y-223349999D01*
X149575583Y-223349999D01*
X149555300Y-223144066D01*
X149495232Y-222946046D01*
X149397685Y-222763550D01*
X149332047Y-222683569D01*
X149266410Y-222603589D01*
X149168952Y-222523608D01*
X149106450Y-222472315D01*
X148923954Y-222374768D01*
X148824943Y-222344733D01*
X148725932Y-222314699D01*
X148520000Y-222294417D01*
X148314067Y-222314699D01*
X148116043Y-222374769D01*
X147933551Y-222472314D01*
X147773589Y-222603589D01*
X147642314Y-222763551D01*
X147544769Y-222946043D01*
X147484699Y-223144067D01*
X147464417Y-223349999D01*
X146689989Y-223349999D01*
X146689987Y-221060000D01*
X147292892Y-221060000D01*
X147340897Y-221239159D01*
X147433332Y-221437385D01*
X147558790Y-221616557D01*
X147713442Y-221771209D01*
X147892614Y-221896667D01*
X148090840Y-221989102D01*
X148269999Y-222037107D01*
X148270000Y-222037108D01*
X148270000Y-221060000D01*
X148770000Y-221060000D01*
X148770000Y-222037107D01*
X148949159Y-221989102D01*
X149147385Y-221896667D01*
X149326557Y-221771209D01*
X149481209Y-221616557D01*
X149606667Y-221437385D01*
X149699102Y-221239159D01*
X149747108Y-221060000D01*
X148770000Y-221060000D01*
X148270000Y-221060000D01*
X147292892Y-221060000D01*
X146689987Y-221060000D01*
X146689987Y-220809999D01*
X155084417Y-220809999D01*
X155104699Y-221015932D01*
X155104700Y-221015934D01*
X155164768Y-221213954D01*
X155262315Y-221396450D01*
X155313608Y-221458952D01*
X155393589Y-221556410D01*
X155466880Y-221616557D01*
X155553550Y-221687685D01*
X155736046Y-221785232D01*
X155934066Y-221845300D01*
X156140000Y-221865583D01*
X156345934Y-221845300D01*
X156543954Y-221785232D01*
X156726450Y-221687685D01*
X156886410Y-221556410D01*
X157017685Y-221396450D01*
X157115232Y-221213954D01*
X157175300Y-221015934D01*
X157195583Y-220810000D01*
X157175300Y-220604066D01*
X157115232Y-220406046D01*
X157017685Y-220223550D01*
X156952047Y-220143569D01*
X156886410Y-220063589D01*
X156788952Y-219983609D01*
X156726450Y-219932315D01*
X156543954Y-219834768D01*
X156444943Y-219804733D01*
X156345932Y-219774699D01*
X156140000Y-219754417D01*
X155934067Y-219774699D01*
X155736043Y-219834769D01*
X155553551Y-219932314D01*
X155393589Y-220063589D01*
X155262314Y-220223551D01*
X155164769Y-220406043D01*
X155104699Y-220604067D01*
X155084417Y-220809999D01*
X146689987Y-220809999D01*
X146689987Y-220560000D01*
X147292892Y-220560000D01*
X148270000Y-220560000D01*
X148270000Y-219582892D01*
X148770000Y-219582892D01*
X148770000Y-220560000D01*
X149747108Y-220560000D01*
X149747107Y-220559999D01*
X149699102Y-220380840D01*
X149606667Y-220182615D01*
X149481209Y-220003442D01*
X149326557Y-219848790D01*
X149147385Y-219723332D01*
X148949159Y-219630897D01*
X148770000Y-219582892D01*
X148270000Y-219582892D01*
X148269999Y-219582892D01*
X148090840Y-219630897D01*
X147892615Y-219723332D01*
X147713442Y-219848790D01*
X147558790Y-220003442D01*
X147433332Y-220182615D01*
X147340897Y-220380840D01*
X147292892Y-220559999D01*
X147292892Y-220560000D01*
X146689987Y-220560000D01*
X146689986Y-218270000D01*
X147464417Y-218270000D01*
X147484699Y-218475932D01*
X147484700Y-218475934D01*
X147544768Y-218673954D01*
X147642315Y-218856450D01*
X147693608Y-218918952D01*
X147773589Y-219016410D01*
X147853570Y-219082047D01*
X147933550Y-219147685D01*
X148116046Y-219245232D01*
X148314066Y-219305300D01*
X148520000Y-219325583D01*
X148725934Y-219305300D01*
X148923954Y-219245232D01*
X149106450Y-219147685D01*
X149266410Y-219016410D01*
X149397685Y-218856450D01*
X149495232Y-218673954D01*
X149555300Y-218475934D01*
X149575583Y-218270000D01*
X155084417Y-218270000D01*
X155104699Y-218475932D01*
X155104700Y-218475934D01*
X155164768Y-218673954D01*
X155262315Y-218856450D01*
X155313608Y-218918952D01*
X155393589Y-219016410D01*
X155473570Y-219082047D01*
X155553550Y-219147685D01*
X155736046Y-219245232D01*
X155934066Y-219305300D01*
X156140000Y-219325583D01*
X156345934Y-219305300D01*
X156543954Y-219245232D01*
X156726450Y-219147685D01*
X156886410Y-219016410D01*
X157017685Y-218856450D01*
X157115232Y-218673954D01*
X157175300Y-218475934D01*
X157195583Y-218270000D01*
X157175300Y-218064066D01*
X157115232Y-217866046D01*
X157017685Y-217683550D01*
X156952047Y-217603570D01*
X156886410Y-217523589D01*
X156788952Y-217443609D01*
X156726450Y-217392315D01*
X156543954Y-217294768D01*
X156444944Y-217264734D01*
X156345932Y-217234699D01*
X156140000Y-217214417D01*
X155934067Y-217234699D01*
X155736043Y-217294769D01*
X155553551Y-217392314D01*
X155393589Y-217523589D01*
X155262314Y-217683551D01*
X155164769Y-217866043D01*
X155104699Y-218064067D01*
X155084417Y-218270000D01*
X149575583Y-218270000D01*
X149555300Y-218064066D01*
X149495232Y-217866046D01*
X149397685Y-217683550D01*
X149332047Y-217603570D01*
X149266410Y-217523589D01*
X149168952Y-217443609D01*
X149106450Y-217392315D01*
X148923954Y-217294768D01*
X148824944Y-217264734D01*
X148725932Y-217234699D01*
X148520000Y-217214417D01*
X148314067Y-217234699D01*
X148116043Y-217294769D01*
X147933551Y-217392314D01*
X147773589Y-217523589D01*
X147642314Y-217683551D01*
X147544769Y-217866043D01*
X147484699Y-218064067D01*
X147464417Y-218270000D01*
X146689986Y-218270000D01*
X146689984Y-215730000D01*
X147464417Y-215730000D01*
X147484699Y-215935932D01*
X147484700Y-215935934D01*
X147544768Y-216133954D01*
X147642315Y-216316450D01*
X147693608Y-216378952D01*
X147773589Y-216476410D01*
X147846880Y-216536557D01*
X147933550Y-216607685D01*
X148116046Y-216705232D01*
X148314066Y-216765300D01*
X148520000Y-216785583D01*
X148725934Y-216765300D01*
X148923954Y-216705232D01*
X149106450Y-216607685D01*
X149266410Y-216476410D01*
X149397685Y-216316450D01*
X149495232Y-216133954D01*
X149541933Y-215980000D01*
X154912892Y-215980000D01*
X154960897Y-216159159D01*
X155053332Y-216357385D01*
X155178790Y-216536557D01*
X155333442Y-216691209D01*
X155512614Y-216816667D01*
X155710840Y-216909102D01*
X155889999Y-216957107D01*
X155890000Y-216957108D01*
X155890000Y-215980000D01*
X156390000Y-215980000D01*
X156390000Y-216957107D01*
X156569159Y-216909102D01*
X156767385Y-216816667D01*
X156946557Y-216691209D01*
X157101209Y-216536557D01*
X157226667Y-216357385D01*
X157319102Y-216159159D01*
X157367108Y-215980000D01*
X156390000Y-215980000D01*
X155890000Y-215980000D01*
X154912892Y-215980000D01*
X149541933Y-215980000D01*
X149555300Y-215935934D01*
X149575583Y-215730000D01*
X149555300Y-215524066D01*
X149541933Y-215480000D01*
X154912892Y-215480000D01*
X155890000Y-215480000D01*
X155890000Y-214502892D01*
X156390000Y-214502892D01*
X156390000Y-215480000D01*
X157367108Y-215480000D01*
X157367107Y-215479999D01*
X157319102Y-215300840D01*
X157226667Y-215102615D01*
X157101209Y-214923442D01*
X156946557Y-214768790D01*
X156767385Y-214643332D01*
X156569159Y-214550897D01*
X156390000Y-214502892D01*
X155890000Y-214502892D01*
X155889999Y-214502892D01*
X155710840Y-214550897D01*
X155512615Y-214643332D01*
X155333442Y-214768790D01*
X155178790Y-214923442D01*
X155053332Y-215102615D01*
X154960897Y-215300840D01*
X154912892Y-215479999D01*
X154912892Y-215480000D01*
X149541933Y-215480000D01*
X149495232Y-215326046D01*
X149397685Y-215143550D01*
X149332047Y-215063569D01*
X149266410Y-214983589D01*
X149168952Y-214903608D01*
X149106450Y-214852315D01*
X148923954Y-214754768D01*
X148824943Y-214724733D01*
X148725932Y-214694699D01*
X148520000Y-214674417D01*
X148314067Y-214694699D01*
X148116043Y-214754769D01*
X147933551Y-214852314D01*
X147773589Y-214983589D01*
X147642314Y-215143551D01*
X147544769Y-215326043D01*
X147484699Y-215524067D01*
X147464417Y-215730000D01*
X146689984Y-215730000D01*
X146689982Y-213189999D01*
X147464417Y-213189999D01*
X147484699Y-213395932D01*
X147484700Y-213395934D01*
X147544768Y-213593954D01*
X147642315Y-213776450D01*
X147693609Y-213838952D01*
X147773589Y-213936410D01*
X147853569Y-214002047D01*
X147933550Y-214067685D01*
X148116046Y-214165232D01*
X148314066Y-214225300D01*
X148520000Y-214245583D01*
X148725934Y-214225300D01*
X148923954Y-214165232D01*
X149106450Y-214067685D01*
X149266410Y-213936410D01*
X149397685Y-213776450D01*
X149495232Y-213593954D01*
X149555300Y-213395934D01*
X149575583Y-213190000D01*
X149575583Y-213189999D01*
X155084417Y-213189999D01*
X155104699Y-213395932D01*
X155104700Y-213395934D01*
X155164768Y-213593954D01*
X155262315Y-213776450D01*
X155313609Y-213838952D01*
X155393589Y-213936410D01*
X155473569Y-214002047D01*
X155553550Y-214067685D01*
X155736046Y-214165232D01*
X155934066Y-214225300D01*
X156140000Y-214245583D01*
X156345934Y-214225300D01*
X156543954Y-214165232D01*
X156726450Y-214067685D01*
X156886410Y-213936410D01*
X157017685Y-213776450D01*
X157115232Y-213593954D01*
X157175300Y-213395934D01*
X157195583Y-213190000D01*
X157175300Y-212984066D01*
X157115232Y-212786046D01*
X157017685Y-212603550D01*
X156952047Y-212523570D01*
X156886410Y-212443589D01*
X156788952Y-212363608D01*
X156726450Y-212312315D01*
X156543954Y-212214768D01*
X156444943Y-212184733D01*
X156345932Y-212154699D01*
X156140000Y-212134417D01*
X155934067Y-212154699D01*
X155736043Y-212214769D01*
X155553551Y-212312314D01*
X155393589Y-212443589D01*
X155262314Y-212603551D01*
X155164769Y-212786043D01*
X155104699Y-212984067D01*
X155084417Y-213189999D01*
X149575583Y-213189999D01*
X149555300Y-212984066D01*
X149495232Y-212786046D01*
X149397685Y-212603550D01*
X149332047Y-212523570D01*
X149266410Y-212443589D01*
X149168952Y-212363608D01*
X149106450Y-212312315D01*
X148923954Y-212214768D01*
X148824943Y-212184733D01*
X148725932Y-212154699D01*
X148520000Y-212134417D01*
X148314067Y-212154699D01*
X148116043Y-212214769D01*
X147933551Y-212312314D01*
X147773589Y-212443589D01*
X147642314Y-212603551D01*
X147544769Y-212786043D01*
X147484699Y-212984067D01*
X147464417Y-213189999D01*
X146689982Y-213189999D01*
X146689980Y-210900000D01*
X147292892Y-210900000D01*
X147340897Y-211079159D01*
X147433332Y-211277385D01*
X147558790Y-211456557D01*
X147713442Y-211611209D01*
X147892614Y-211736667D01*
X148090840Y-211829102D01*
X148269999Y-211877107D01*
X148270000Y-211877108D01*
X148270000Y-210900000D01*
X148770000Y-210900000D01*
X148770000Y-211877107D01*
X148949159Y-211829102D01*
X149147385Y-211736667D01*
X149326557Y-211611209D01*
X149481209Y-211456557D01*
X149606667Y-211277385D01*
X149699102Y-211079159D01*
X149747108Y-210900000D01*
X148770000Y-210900000D01*
X148270000Y-210900000D01*
X147292892Y-210900000D01*
X146689980Y-210900000D01*
X146689980Y-210649999D01*
X155084417Y-210649999D01*
X155104699Y-210855932D01*
X155104700Y-210855934D01*
X155164768Y-211053954D01*
X155262315Y-211236450D01*
X155313609Y-211298952D01*
X155393589Y-211396410D01*
X155466880Y-211456557D01*
X155553550Y-211527685D01*
X155736046Y-211625232D01*
X155934066Y-211685300D01*
X156140000Y-211705583D01*
X156345934Y-211685300D01*
X156543954Y-211625232D01*
X156726450Y-211527685D01*
X156886410Y-211396410D01*
X157017685Y-211236450D01*
X157115232Y-211053954D01*
X157175300Y-210855934D01*
X157195583Y-210650000D01*
X157175300Y-210444066D01*
X157115232Y-210246046D01*
X157017685Y-210063550D01*
X156952047Y-209983570D01*
X156886410Y-209903589D01*
X156788952Y-209823609D01*
X156726450Y-209772315D01*
X156543954Y-209674768D01*
X156444943Y-209644733D01*
X156345932Y-209614699D01*
X156140000Y-209594417D01*
X155934067Y-209614699D01*
X155736043Y-209674769D01*
X155553551Y-209772314D01*
X155393589Y-209903589D01*
X155262314Y-210063551D01*
X155164769Y-210246043D01*
X155104699Y-210444067D01*
X155084417Y-210649999D01*
X146689980Y-210649999D01*
X146689980Y-210400000D01*
X147292892Y-210400000D01*
X148270000Y-210400000D01*
X148270000Y-209422892D01*
X148770000Y-209422892D01*
X148770000Y-210400000D01*
X149747108Y-210400000D01*
X149747107Y-210399999D01*
X149699102Y-210220840D01*
X149606667Y-210022615D01*
X149481209Y-209843442D01*
X149326557Y-209688790D01*
X149147385Y-209563332D01*
X148949159Y-209470897D01*
X148770000Y-209422892D01*
X148270000Y-209422892D01*
X148269999Y-209422892D01*
X148090840Y-209470897D01*
X147892615Y-209563332D01*
X147713442Y-209688790D01*
X147558790Y-209843442D01*
X147433332Y-210022615D01*
X147340897Y-210220840D01*
X147292892Y-210399999D01*
X147292892Y-210400000D01*
X146689980Y-210400000D01*
X146689979Y-208109999D01*
X147464417Y-208109999D01*
X147484699Y-208315932D01*
X147484700Y-208315934D01*
X147544768Y-208513954D01*
X147642315Y-208696450D01*
X147693609Y-208758952D01*
X147773589Y-208856410D01*
X147853569Y-208922047D01*
X147933550Y-208987685D01*
X148116046Y-209085232D01*
X148314066Y-209145300D01*
X148520000Y-209165583D01*
X148725934Y-209145300D01*
X148923954Y-209085232D01*
X149106450Y-208987685D01*
X149266410Y-208856410D01*
X149397685Y-208696450D01*
X149495232Y-208513954D01*
X149555300Y-208315934D01*
X149575583Y-208110000D01*
X155084417Y-208110000D01*
X155104699Y-208315932D01*
X155104700Y-208315934D01*
X155164768Y-208513954D01*
X155262315Y-208696450D01*
X155313609Y-208758952D01*
X155393589Y-208856410D01*
X155473569Y-208922047D01*
X155553550Y-208987685D01*
X155736046Y-209085232D01*
X155934066Y-209145300D01*
X156140000Y-209165583D01*
X156345934Y-209145300D01*
X156543954Y-209085232D01*
X156726450Y-208987685D01*
X156886410Y-208856410D01*
X157017685Y-208696450D01*
X157115232Y-208513954D01*
X157175300Y-208315934D01*
X157195583Y-208110000D01*
X157175300Y-207904066D01*
X157115232Y-207706046D01*
X157017685Y-207523550D01*
X156952047Y-207443569D01*
X156886410Y-207363589D01*
X156788952Y-207283609D01*
X156726450Y-207232315D01*
X156543954Y-207134768D01*
X156444943Y-207104733D01*
X156345932Y-207074699D01*
X156162497Y-207056632D01*
X156140000Y-207054417D01*
X156139999Y-207054417D01*
X155934067Y-207074699D01*
X155736043Y-207134769D01*
X155553551Y-207232314D01*
X155393589Y-207363589D01*
X155262314Y-207523551D01*
X155164769Y-207706043D01*
X155104699Y-207904067D01*
X155084417Y-208110000D01*
X149575583Y-208110000D01*
X149555300Y-207904066D01*
X149495232Y-207706046D01*
X149397685Y-207523550D01*
X149332047Y-207443569D01*
X149266410Y-207363589D01*
X149168952Y-207283609D01*
X149106450Y-207232315D01*
X148923954Y-207134768D01*
X148824943Y-207104733D01*
X148725932Y-207074699D01*
X148542497Y-207056632D01*
X148520000Y-207054417D01*
X148519999Y-207054417D01*
X148314067Y-207074699D01*
X148116043Y-207134769D01*
X147933551Y-207232314D01*
X147773589Y-207363589D01*
X147642314Y-207523551D01*
X147544769Y-207706043D01*
X147484699Y-207904067D01*
X147464417Y-208109999D01*
X146689979Y-208109999D01*
X146689977Y-205570000D01*
X147464417Y-205570000D01*
X147484699Y-205775932D01*
X147484700Y-205775934D01*
X147544768Y-205973954D01*
X147642315Y-206156450D01*
X147693608Y-206218952D01*
X147773589Y-206316410D01*
X147853569Y-206382047D01*
X147933550Y-206447685D01*
X148116046Y-206545232D01*
X148314066Y-206605300D01*
X148520000Y-206625583D01*
X148725934Y-206605300D01*
X148923954Y-206545232D01*
X149106450Y-206447685D01*
X149266410Y-206316410D01*
X149397685Y-206156450D01*
X149495232Y-205973954D01*
X149555300Y-205775934D01*
X149575583Y-205570000D01*
X155084417Y-205570000D01*
X155104699Y-205775932D01*
X155104700Y-205775934D01*
X155164768Y-205973954D01*
X155262315Y-206156450D01*
X155313608Y-206218952D01*
X155393589Y-206316410D01*
X155473569Y-206382047D01*
X155553550Y-206447685D01*
X155736046Y-206545232D01*
X155934066Y-206605300D01*
X156140000Y-206625583D01*
X156345934Y-206605300D01*
X156543954Y-206545232D01*
X156726450Y-206447685D01*
X156886410Y-206316410D01*
X157017685Y-206156450D01*
X157115232Y-205973954D01*
X157175300Y-205775934D01*
X157195583Y-205570000D01*
X157175300Y-205364066D01*
X157115232Y-205166046D01*
X157017685Y-204983550D01*
X156952047Y-204903570D01*
X156886410Y-204823589D01*
X156788952Y-204743609D01*
X156726450Y-204692315D01*
X156543954Y-204594768D01*
X156444944Y-204564734D01*
X156345932Y-204534699D01*
X156140000Y-204514417D01*
X155934067Y-204534699D01*
X155736043Y-204594769D01*
X155553551Y-204692314D01*
X155393589Y-204823589D01*
X155262314Y-204983551D01*
X155164769Y-205166043D01*
X155104699Y-205364067D01*
X155084417Y-205570000D01*
X149575583Y-205570000D01*
X149555300Y-205364066D01*
X149495232Y-205166046D01*
X149397685Y-204983550D01*
X149332047Y-204903570D01*
X149266410Y-204823589D01*
X149168952Y-204743609D01*
X149106450Y-204692315D01*
X148923954Y-204594768D01*
X148824944Y-204564734D01*
X148725932Y-204534699D01*
X148520000Y-204514417D01*
X148314067Y-204534699D01*
X148116043Y-204594769D01*
X147933551Y-204692314D01*
X147773589Y-204823589D01*
X147642314Y-204983551D01*
X147544769Y-205166043D01*
X147484699Y-205364067D01*
X147464417Y-205570000D01*
X146689977Y-205570000D01*
X146689975Y-203280000D01*
X147292892Y-203280000D01*
X147340897Y-203459159D01*
X147433332Y-203657385D01*
X147558790Y-203836557D01*
X147713442Y-203991209D01*
X147892614Y-204116667D01*
X148090840Y-204209102D01*
X148269999Y-204257107D01*
X148270000Y-204257108D01*
X148270000Y-203280000D01*
X148770000Y-203280000D01*
X148770000Y-204257107D01*
X148949159Y-204209102D01*
X149147385Y-204116667D01*
X149326557Y-203991209D01*
X149481209Y-203836557D01*
X149606667Y-203657385D01*
X149699102Y-203459159D01*
X149747108Y-203280000D01*
X148770000Y-203280000D01*
X148270000Y-203280000D01*
X147292892Y-203280000D01*
X146689975Y-203280000D01*
X146689975Y-203030000D01*
X155084417Y-203030000D01*
X155104699Y-203235932D01*
X155104700Y-203235934D01*
X155164768Y-203433954D01*
X155262315Y-203616450D01*
X155313609Y-203678952D01*
X155393589Y-203776410D01*
X155466880Y-203836557D01*
X155553550Y-203907685D01*
X155736046Y-204005232D01*
X155934066Y-204065300D01*
X156140000Y-204085583D01*
X156345934Y-204065300D01*
X156543954Y-204005232D01*
X156726450Y-203907685D01*
X156886410Y-203776410D01*
X157017685Y-203616450D01*
X157115232Y-203433954D01*
X157175300Y-203235934D01*
X157195583Y-203030000D01*
X157175300Y-202824066D01*
X157115232Y-202626046D01*
X157017685Y-202443550D01*
X156952047Y-202363570D01*
X156886410Y-202283589D01*
X156788952Y-202203609D01*
X156726450Y-202152315D01*
X156543954Y-202054768D01*
X156444943Y-202024733D01*
X156345932Y-201994699D01*
X156140000Y-201974417D01*
X155934067Y-201994699D01*
X155736043Y-202054769D01*
X155553551Y-202152314D01*
X155393589Y-202283589D01*
X155262314Y-202443551D01*
X155164769Y-202626043D01*
X155104699Y-202824067D01*
X155084417Y-203030000D01*
X146689975Y-203030000D01*
X146689975Y-202780000D01*
X147292892Y-202780000D01*
X148270000Y-202780000D01*
X148270000Y-201802892D01*
X148770000Y-201802892D01*
X148770000Y-202780000D01*
X149747108Y-202780000D01*
X149747107Y-202779999D01*
X149699102Y-202600840D01*
X149606667Y-202402615D01*
X149481209Y-202223442D01*
X149326557Y-202068790D01*
X149147385Y-201943332D01*
X148949159Y-201850897D01*
X148770000Y-201802892D01*
X148270000Y-201802892D01*
X148269999Y-201802892D01*
X148090840Y-201850897D01*
X147892615Y-201943332D01*
X147713442Y-202068790D01*
X147558790Y-202223442D01*
X147433332Y-202402615D01*
X147340897Y-202600840D01*
X147292892Y-202779999D01*
X147292892Y-202780000D01*
X146689975Y-202780000D01*
X146689974Y-200489999D01*
X147464417Y-200489999D01*
X147484699Y-200695932D01*
X147484700Y-200695934D01*
X147544768Y-200893954D01*
X147642315Y-201076450D01*
X147693609Y-201138952D01*
X147773589Y-201236410D01*
X147853570Y-201302047D01*
X147933550Y-201367685D01*
X148116046Y-201465232D01*
X148314066Y-201525300D01*
X148520000Y-201545583D01*
X148725934Y-201525300D01*
X148923954Y-201465232D01*
X149106450Y-201367685D01*
X149266410Y-201236410D01*
X149397685Y-201076450D01*
X149495232Y-200893954D01*
X149555300Y-200695934D01*
X149575583Y-200490000D01*
X149575583Y-200489999D01*
X155084417Y-200489999D01*
X155104699Y-200695932D01*
X155104700Y-200695934D01*
X155164768Y-200893954D01*
X155262315Y-201076450D01*
X155313609Y-201138952D01*
X155393589Y-201236410D01*
X155473570Y-201302047D01*
X155553550Y-201367685D01*
X155736046Y-201465232D01*
X155934066Y-201525300D01*
X156140000Y-201545583D01*
X156345934Y-201525300D01*
X156543954Y-201465232D01*
X156726450Y-201367685D01*
X156886410Y-201236410D01*
X157017685Y-201076450D01*
X157115232Y-200893954D01*
X157175300Y-200695934D01*
X157195583Y-200490000D01*
X157175300Y-200284066D01*
X157115232Y-200086046D01*
X157017685Y-199903550D01*
X156952047Y-199823570D01*
X156886410Y-199743589D01*
X156788952Y-199663609D01*
X156726450Y-199612315D01*
X156543954Y-199514768D01*
X156444944Y-199484734D01*
X156345932Y-199454699D01*
X156140000Y-199434417D01*
X155934067Y-199454699D01*
X155736043Y-199514769D01*
X155553551Y-199612314D01*
X155393589Y-199743589D01*
X155262314Y-199903551D01*
X155164769Y-200086043D01*
X155104699Y-200284067D01*
X155084417Y-200489999D01*
X149575583Y-200489999D01*
X149555300Y-200284066D01*
X149495232Y-200086046D01*
X149397685Y-199903550D01*
X149332047Y-199823570D01*
X149266410Y-199743589D01*
X149168952Y-199663609D01*
X149106450Y-199612315D01*
X148923954Y-199514768D01*
X148824944Y-199484734D01*
X148725932Y-199454699D01*
X148520000Y-199434417D01*
X148314067Y-199454699D01*
X148116043Y-199514769D01*
X147933551Y-199612314D01*
X147773589Y-199743589D01*
X147642314Y-199903551D01*
X147544769Y-200086043D01*
X147484699Y-200284067D01*
X147464417Y-200489999D01*
X146689974Y-200489999D01*
X146689973Y-199379999D01*
X216294417Y-199379999D01*
X216314699Y-199585932D01*
X216314700Y-199585934D01*
X216374768Y-199783954D01*
X216472315Y-199966450D01*
X216523608Y-200028952D01*
X216603589Y-200126410D01*
X216683570Y-200192047D01*
X216763550Y-200257685D01*
X216946046Y-200355232D01*
X217144066Y-200415300D01*
X217350000Y-200435583D01*
X217555934Y-200415300D01*
X217753954Y-200355232D01*
X217936450Y-200257685D01*
X218096410Y-200126410D01*
X218227685Y-199966450D01*
X218325232Y-199783954D01*
X218385300Y-199585934D01*
X218405583Y-199380000D01*
X218385300Y-199174066D01*
X218325232Y-198976046D01*
X218227685Y-198793550D01*
X218147965Y-198696410D01*
X218096410Y-198633589D01*
X217978041Y-198536448D01*
X217936450Y-198502315D01*
X217753954Y-198404768D01*
X217654943Y-198374733D01*
X217555932Y-198344699D01*
X217372497Y-198326632D01*
X217350000Y-198324417D01*
X217349999Y-198324417D01*
X217144067Y-198344699D01*
X216946043Y-198404769D01*
X216763551Y-198502314D01*
X216603589Y-198633589D01*
X216472314Y-198793551D01*
X216374769Y-198976043D01*
X216314699Y-199174067D01*
X216294417Y-199379999D01*
X146689973Y-199379999D01*
X146689972Y-197949999D01*
X147464417Y-197949999D01*
X147484699Y-198155932D01*
X147484700Y-198155934D01*
X147544768Y-198353954D01*
X147642315Y-198536450D01*
X147693609Y-198598952D01*
X147773589Y-198696410D01*
X147853570Y-198762047D01*
X147933550Y-198827685D01*
X148116046Y-198925232D01*
X148314066Y-198985300D01*
X148520000Y-199005583D01*
X148725934Y-198985300D01*
X148923954Y-198925232D01*
X149106450Y-198827685D01*
X149266410Y-198696410D01*
X149397685Y-198536450D01*
X149495232Y-198353954D01*
X149555300Y-198155934D01*
X149575583Y-197950000D01*
X149575583Y-197949999D01*
X155084417Y-197949999D01*
X155104699Y-198155932D01*
X155104700Y-198155934D01*
X155164768Y-198353954D01*
X155262315Y-198536450D01*
X155313609Y-198598952D01*
X155393589Y-198696410D01*
X155473570Y-198762047D01*
X155553550Y-198827685D01*
X155736046Y-198925232D01*
X155934066Y-198985300D01*
X156140000Y-199005583D01*
X156345934Y-198985300D01*
X156543954Y-198925232D01*
X156726450Y-198827685D01*
X156886410Y-198696410D01*
X157017685Y-198536450D01*
X157115232Y-198353954D01*
X157175300Y-198155934D01*
X157195583Y-197950000D01*
X157175300Y-197744066D01*
X157164890Y-197709749D01*
X216299500Y-197709749D01*
X216311132Y-197768230D01*
X216355447Y-197834552D01*
X216421769Y-197878867D01*
X216480251Y-197890500D01*
X216480252Y-197890500D01*
X218219748Y-197890500D01*
X218219749Y-197890500D01*
X218248989Y-197884683D01*
X218278231Y-197878867D01*
X218344552Y-197834552D01*
X218388867Y-197768231D01*
X218400500Y-197709748D01*
X218400500Y-195970252D01*
X218388867Y-195911769D01*
X218388866Y-195911768D01*
X218344552Y-195845447D01*
X218278230Y-195801132D01*
X218219749Y-195789500D01*
X218219748Y-195789500D01*
X216480252Y-195789500D01*
X216480251Y-195789500D01*
X216421769Y-195801132D01*
X216355447Y-195845447D01*
X216311132Y-195911769D01*
X216299500Y-195970251D01*
X216299500Y-197709749D01*
X157164890Y-197709749D01*
X157115232Y-197546046D01*
X157017685Y-197363550D01*
X156952047Y-197283569D01*
X156886410Y-197203589D01*
X156788952Y-197123609D01*
X156726450Y-197072315D01*
X156543954Y-196974768D01*
X156444944Y-196944734D01*
X156345932Y-196914699D01*
X156140000Y-196894417D01*
X155934067Y-196914699D01*
X155736043Y-196974769D01*
X155553551Y-197072314D01*
X155393589Y-197203589D01*
X155262314Y-197363551D01*
X155164769Y-197546043D01*
X155104699Y-197744067D01*
X155084417Y-197949999D01*
X149575583Y-197949999D01*
X149555300Y-197744066D01*
X149495232Y-197546046D01*
X149397685Y-197363550D01*
X149332047Y-197283569D01*
X149266410Y-197203589D01*
X149168952Y-197123609D01*
X149106450Y-197072315D01*
X148923954Y-196974768D01*
X148824944Y-196944734D01*
X148725932Y-196914699D01*
X148520000Y-196894417D01*
X148314067Y-196914699D01*
X148116043Y-196974769D01*
X147933551Y-197072314D01*
X147773589Y-197203589D01*
X147642314Y-197363551D01*
X147544769Y-197546043D01*
X147484699Y-197744067D01*
X147464417Y-197949999D01*
X146689972Y-197949999D01*
X146689970Y-195410000D01*
X147464417Y-195410000D01*
X147484699Y-195615932D01*
X147544769Y-195813956D01*
X147561602Y-195845448D01*
X147642315Y-195996450D01*
X147693608Y-196058952D01*
X147773589Y-196156410D01*
X147846880Y-196216557D01*
X147933550Y-196287685D01*
X148116046Y-196385232D01*
X148314066Y-196445300D01*
X148520000Y-196465583D01*
X148725934Y-196445300D01*
X148923954Y-196385232D01*
X149106450Y-196287685D01*
X149266410Y-196156410D01*
X149397685Y-195996450D01*
X149495232Y-195813954D01*
X149541933Y-195660000D01*
X154912892Y-195660000D01*
X154960897Y-195839159D01*
X155053332Y-196037385D01*
X155178790Y-196216557D01*
X155333442Y-196371209D01*
X155512614Y-196496667D01*
X155710840Y-196589102D01*
X155889999Y-196637107D01*
X155890000Y-196637108D01*
X155890000Y-195660000D01*
X156390000Y-195660000D01*
X156390000Y-196637107D01*
X156569159Y-196589102D01*
X156767385Y-196496667D01*
X156946557Y-196371209D01*
X157101209Y-196216557D01*
X157226667Y-196037385D01*
X157319102Y-195839159D01*
X157367108Y-195660000D01*
X156390000Y-195660000D01*
X155890000Y-195660000D01*
X154912892Y-195660000D01*
X149541933Y-195660000D01*
X149555300Y-195615934D01*
X149575583Y-195410000D01*
X149555300Y-195204066D01*
X149541933Y-195160000D01*
X154912892Y-195160000D01*
X155890000Y-195160000D01*
X155890000Y-194182892D01*
X156390000Y-194182892D01*
X156390000Y-195160000D01*
X157367108Y-195160000D01*
X157367107Y-195159999D01*
X157319102Y-194980840D01*
X157226667Y-194782615D01*
X157101209Y-194603442D01*
X156946557Y-194448790D01*
X156767385Y-194323332D01*
X156569159Y-194230897D01*
X156390000Y-194182892D01*
X155890000Y-194182892D01*
X155889999Y-194182892D01*
X155710840Y-194230897D01*
X155512615Y-194323332D01*
X155333442Y-194448790D01*
X155178790Y-194603442D01*
X155053332Y-194782615D01*
X154960897Y-194980840D01*
X154912892Y-195159999D01*
X154912892Y-195160000D01*
X149541933Y-195160000D01*
X149495232Y-195006046D01*
X149397685Y-194823550D01*
X149332047Y-194743569D01*
X149266410Y-194663589D01*
X149168952Y-194583608D01*
X149106450Y-194532315D01*
X148923954Y-194434768D01*
X148824944Y-194404734D01*
X148725932Y-194374699D01*
X148520000Y-194354417D01*
X148314067Y-194374699D01*
X148116043Y-194434769D01*
X147933551Y-194532314D01*
X147773589Y-194663589D01*
X147642314Y-194823551D01*
X147544769Y-195006043D01*
X147484699Y-195204067D01*
X147464417Y-195410000D01*
X146689970Y-195410000D01*
X146689968Y-192870000D01*
X147464417Y-192870000D01*
X147484699Y-193075932D01*
X147484700Y-193075934D01*
X147544768Y-193273954D01*
X147642315Y-193456450D01*
X147693608Y-193518952D01*
X147773589Y-193616410D01*
X147853569Y-193682047D01*
X147933550Y-193747685D01*
X148116046Y-193845232D01*
X148314066Y-193905300D01*
X148520000Y-193925583D01*
X148725934Y-193905300D01*
X148923954Y-193845232D01*
X149106450Y-193747685D01*
X149266410Y-193616410D01*
X149397685Y-193456450D01*
X149495232Y-193273954D01*
X149555300Y-193075934D01*
X149575583Y-192870000D01*
X155084417Y-192870000D01*
X155104699Y-193075932D01*
X155104700Y-193075934D01*
X155164768Y-193273954D01*
X155262315Y-193456450D01*
X155313608Y-193518952D01*
X155393589Y-193616410D01*
X155473569Y-193682047D01*
X155553550Y-193747685D01*
X155736046Y-193845232D01*
X155934066Y-193905300D01*
X156140000Y-193925583D01*
X156345934Y-193905300D01*
X156543954Y-193845232D01*
X156726450Y-193747685D01*
X156886410Y-193616410D01*
X157017685Y-193456450D01*
X157115232Y-193273954D01*
X157175300Y-193075934D01*
X157195583Y-192870000D01*
X157175300Y-192664066D01*
X157115232Y-192466046D01*
X157017685Y-192283550D01*
X156952047Y-192203570D01*
X156886410Y-192123589D01*
X156788952Y-192043609D01*
X156726450Y-191992315D01*
X156543954Y-191894768D01*
X156444944Y-191864734D01*
X156345932Y-191834699D01*
X156140000Y-191814417D01*
X155934067Y-191834699D01*
X155736043Y-191894769D01*
X155553551Y-191992314D01*
X155393589Y-192123589D01*
X155262314Y-192283551D01*
X155164769Y-192466043D01*
X155104699Y-192664067D01*
X155084417Y-192870000D01*
X149575583Y-192870000D01*
X149555300Y-192664066D01*
X149495232Y-192466046D01*
X149397685Y-192283550D01*
X149332047Y-192203570D01*
X149266410Y-192123589D01*
X149168952Y-192043609D01*
X149106450Y-191992315D01*
X148923954Y-191894768D01*
X148824944Y-191864734D01*
X148725932Y-191834699D01*
X148520000Y-191814417D01*
X148314067Y-191834699D01*
X148116043Y-191894769D01*
X147933551Y-191992314D01*
X147773589Y-192123589D01*
X147642314Y-192283551D01*
X147544769Y-192466043D01*
X147484699Y-192664067D01*
X147464417Y-192870000D01*
X146689968Y-192870000D01*
X146689966Y-190580000D01*
X147292892Y-190580000D01*
X147340897Y-190759159D01*
X147433332Y-190957385D01*
X147558790Y-191136557D01*
X147713442Y-191291209D01*
X147892614Y-191416667D01*
X148090840Y-191509102D01*
X148269999Y-191557107D01*
X148270000Y-191557108D01*
X148270000Y-190580000D01*
X148770000Y-190580000D01*
X148770000Y-191557107D01*
X148949159Y-191509102D01*
X149147385Y-191416667D01*
X149326557Y-191291209D01*
X149481209Y-191136557D01*
X149606667Y-190957385D01*
X149699102Y-190759159D01*
X149747108Y-190580000D01*
X148770000Y-190580000D01*
X148270000Y-190580000D01*
X147292892Y-190580000D01*
X146689966Y-190580000D01*
X146689966Y-190330000D01*
X155084417Y-190330000D01*
X155104699Y-190535932D01*
X155104700Y-190535934D01*
X155164768Y-190733954D01*
X155262315Y-190916450D01*
X155313609Y-190978952D01*
X155393589Y-191076410D01*
X155466880Y-191136557D01*
X155553550Y-191207685D01*
X155736046Y-191305232D01*
X155934066Y-191365300D01*
X156140000Y-191385583D01*
X156345934Y-191365300D01*
X156543954Y-191305232D01*
X156726450Y-191207685D01*
X156886410Y-191076410D01*
X157017685Y-190916450D01*
X157115232Y-190733954D01*
X157175300Y-190535934D01*
X157195583Y-190330000D01*
X157175300Y-190124066D01*
X157115232Y-189926046D01*
X157017685Y-189743550D01*
X156952047Y-189663570D01*
X156886410Y-189583589D01*
X156788952Y-189503609D01*
X156726450Y-189452315D01*
X156543954Y-189354768D01*
X156444943Y-189324733D01*
X156345932Y-189294699D01*
X156162497Y-189276632D01*
X156140000Y-189274417D01*
X156139999Y-189274417D01*
X155934067Y-189294699D01*
X155736043Y-189354769D01*
X155553551Y-189452314D01*
X155393589Y-189583589D01*
X155262314Y-189743551D01*
X155164769Y-189926043D01*
X155104699Y-190124067D01*
X155084417Y-190330000D01*
X146689966Y-190330000D01*
X146689966Y-190080000D01*
X147292892Y-190080000D01*
X148270000Y-190080000D01*
X148270000Y-189102892D01*
X148770000Y-189102892D01*
X148770000Y-190080000D01*
X149747108Y-190080000D01*
X149747107Y-190079999D01*
X149699102Y-189900840D01*
X149606667Y-189702615D01*
X149481209Y-189523442D01*
X149326557Y-189368790D01*
X149147385Y-189243332D01*
X148949159Y-189150897D01*
X148770000Y-189102892D01*
X148270000Y-189102892D01*
X148269999Y-189102892D01*
X148090840Y-189150897D01*
X147892615Y-189243332D01*
X147713442Y-189368790D01*
X147558790Y-189523442D01*
X147433332Y-189702615D01*
X147340897Y-189900840D01*
X147292892Y-190079999D01*
X147292892Y-190080000D01*
X146689966Y-190080000D01*
X146689964Y-187789999D01*
X147464417Y-187789999D01*
X147484699Y-187995932D01*
X147484700Y-187995934D01*
X147544768Y-188193954D01*
X147642315Y-188376450D01*
X147693608Y-188438952D01*
X147773589Y-188536410D01*
X147853570Y-188602047D01*
X147933550Y-188667685D01*
X148116046Y-188765232D01*
X148314066Y-188825300D01*
X148520000Y-188845583D01*
X148725934Y-188825300D01*
X148923954Y-188765232D01*
X149106450Y-188667685D01*
X149266410Y-188536410D01*
X149397685Y-188376450D01*
X149495232Y-188193954D01*
X149555300Y-187995934D01*
X149575583Y-187790000D01*
X149575583Y-187789999D01*
X155084417Y-187789999D01*
X155104699Y-187995932D01*
X155104700Y-187995934D01*
X155164768Y-188193954D01*
X155262315Y-188376450D01*
X155313608Y-188438952D01*
X155393589Y-188536410D01*
X155473570Y-188602047D01*
X155553550Y-188667685D01*
X155736046Y-188765232D01*
X155934066Y-188825300D01*
X156140000Y-188845583D01*
X156345934Y-188825300D01*
X156543954Y-188765232D01*
X156726450Y-188667685D01*
X156886410Y-188536410D01*
X157017685Y-188376450D01*
X157115232Y-188193954D01*
X157175300Y-187995934D01*
X157195583Y-187790000D01*
X157175300Y-187584066D01*
X157115232Y-187386046D01*
X157017685Y-187203550D01*
X156952047Y-187123569D01*
X156886410Y-187043589D01*
X156788952Y-186963609D01*
X156726450Y-186912315D01*
X156543954Y-186814768D01*
X156444943Y-186784733D01*
X156345932Y-186754699D01*
X156162497Y-186736632D01*
X156140000Y-186734417D01*
X156139999Y-186734417D01*
X155934067Y-186754699D01*
X155736043Y-186814769D01*
X155553551Y-186912314D01*
X155393589Y-187043589D01*
X155262314Y-187203551D01*
X155164769Y-187386043D01*
X155104699Y-187584067D01*
X155084417Y-187789999D01*
X149575583Y-187789999D01*
X149555300Y-187584066D01*
X149495232Y-187386046D01*
X149397685Y-187203550D01*
X149332047Y-187123569D01*
X149266410Y-187043589D01*
X149168952Y-186963609D01*
X149106450Y-186912315D01*
X148923954Y-186814768D01*
X148824943Y-186784733D01*
X148725932Y-186754699D01*
X148542497Y-186736632D01*
X148520000Y-186734417D01*
X148519999Y-186734417D01*
X148314067Y-186754699D01*
X148116043Y-186814769D01*
X147933551Y-186912314D01*
X147773589Y-187043589D01*
X147642314Y-187203551D01*
X147544769Y-187386043D01*
X147484699Y-187584067D01*
X147464417Y-187789999D01*
X146689964Y-187789999D01*
X146689963Y-185500000D01*
X147292892Y-185500000D01*
X147340897Y-185679159D01*
X147433332Y-185877385D01*
X147558790Y-186056557D01*
X147713442Y-186211209D01*
X147892614Y-186336667D01*
X148090840Y-186429102D01*
X148269999Y-186477107D01*
X148270000Y-186477108D01*
X148270000Y-185500000D01*
X148770000Y-185500000D01*
X148770000Y-186477107D01*
X148949159Y-186429102D01*
X149147385Y-186336667D01*
X149326557Y-186211209D01*
X149481209Y-186056557D01*
X149606667Y-185877385D01*
X149699102Y-185679159D01*
X149747108Y-185500000D01*
X148770000Y-185500000D01*
X148270000Y-185500000D01*
X147292892Y-185500000D01*
X146689963Y-185500000D01*
X146689963Y-185249999D01*
X155084417Y-185249999D01*
X155104699Y-185455932D01*
X155104700Y-185455934D01*
X155164768Y-185653954D01*
X155262315Y-185836450D01*
X155303511Y-185886648D01*
X155393589Y-185996410D01*
X155440917Y-186035250D01*
X155553550Y-186127685D01*
X155736046Y-186225232D01*
X155934066Y-186285300D01*
X156140000Y-186305583D01*
X156345934Y-186285300D01*
X156543954Y-186225232D01*
X156726450Y-186127685D01*
X156886410Y-185996410D01*
X157017685Y-185836450D01*
X157115232Y-185653954D01*
X157152833Y-185530000D01*
X215814749Y-185530000D01*
X215833670Y-185673709D01*
X215889137Y-185807622D01*
X215889138Y-185807624D01*
X215889139Y-185807625D01*
X215977379Y-185922621D01*
X216092375Y-186010861D01*
X216092376Y-186010861D01*
X216092377Y-186010862D01*
X216122715Y-186023428D01*
X216226291Y-186066330D01*
X216370000Y-186085250D01*
X216513709Y-186066330D01*
X216647625Y-186010861D01*
X216762621Y-185922621D01*
X216762621Y-185922620D01*
X216775572Y-185912683D01*
X216777853Y-185915656D01*
X216804702Y-185895041D01*
X216868354Y-185886648D01*
X216927672Y-185911213D01*
X216992375Y-185960861D01*
X217126291Y-186016330D01*
X217270000Y-186035250D01*
X217413709Y-186016330D01*
X217547625Y-185960861D01*
X217662621Y-185872621D01*
X217750861Y-185757625D01*
X217806330Y-185623709D01*
X217825250Y-185480000D01*
X217806330Y-185336291D01*
X217750861Y-185202375D01*
X217662621Y-185087379D01*
X217547625Y-184999139D01*
X217547624Y-184999138D01*
X217547622Y-184999137D01*
X217413709Y-184943670D01*
X217270000Y-184924749D01*
X217126290Y-184943670D01*
X216992374Y-184999138D01*
X216864429Y-185097316D01*
X216862150Y-185094346D01*
X216835232Y-185114986D01*
X216771609Y-185123348D01*
X216712326Y-185098786D01*
X216647625Y-185049138D01*
X216513709Y-184993670D01*
X216370000Y-184974749D01*
X216226290Y-184993670D01*
X216092377Y-185049137D01*
X215977379Y-185137379D01*
X215889137Y-185252377D01*
X215833670Y-185386290D01*
X215814749Y-185530000D01*
X157152833Y-185530000D01*
X157175300Y-185455934D01*
X157195583Y-185250000D01*
X157175300Y-185044066D01*
X157115232Y-184846046D01*
X157017685Y-184663550D01*
X156952047Y-184583569D01*
X156886410Y-184503589D01*
X156788952Y-184423609D01*
X156726450Y-184372315D01*
X156543954Y-184274768D01*
X156444943Y-184244733D01*
X156345932Y-184214699D01*
X156140000Y-184194417D01*
X155934067Y-184214699D01*
X155736043Y-184274769D01*
X155553551Y-184372314D01*
X155393589Y-184503589D01*
X155262314Y-184663551D01*
X155164769Y-184846043D01*
X155104699Y-185044067D01*
X155084417Y-185249999D01*
X146689963Y-185249999D01*
X146689963Y-185000000D01*
X147292892Y-185000000D01*
X148270000Y-185000000D01*
X148270000Y-184022892D01*
X148770000Y-184022892D01*
X148770000Y-185000000D01*
X149747108Y-185000000D01*
X149747107Y-184999999D01*
X149699102Y-184820840D01*
X149606667Y-184622615D01*
X149481209Y-184443442D01*
X149326557Y-184288790D01*
X149147385Y-184163332D01*
X148949159Y-184070897D01*
X148770000Y-184022892D01*
X148270000Y-184022892D01*
X148269999Y-184022892D01*
X148090840Y-184070897D01*
X147892615Y-184163332D01*
X147713442Y-184288790D01*
X147558790Y-184443442D01*
X147433332Y-184622615D01*
X147340897Y-184820840D01*
X147292892Y-184999999D01*
X147292892Y-185000000D01*
X146689963Y-185000000D01*
X146689962Y-182709999D01*
X147464417Y-182709999D01*
X147484699Y-182915932D01*
X147484700Y-182915934D01*
X147544768Y-183113954D01*
X147642315Y-183296450D01*
X147693608Y-183358952D01*
X147773589Y-183456410D01*
X147853570Y-183522047D01*
X147933550Y-183587685D01*
X148116046Y-183685232D01*
X148314066Y-183745300D01*
X148520000Y-183765583D01*
X148725934Y-183745300D01*
X148923954Y-183685232D01*
X149106450Y-183587685D01*
X149266410Y-183456410D01*
X149397685Y-183296450D01*
X149495232Y-183113954D01*
X149555300Y-182915934D01*
X149575583Y-182710000D01*
X149575583Y-182709999D01*
X155084417Y-182709999D01*
X155104699Y-182915932D01*
X155104700Y-182915934D01*
X155164768Y-183113954D01*
X155262315Y-183296450D01*
X155313608Y-183358952D01*
X155393589Y-183456410D01*
X155473570Y-183522047D01*
X155553550Y-183587685D01*
X155736046Y-183685232D01*
X155934066Y-183745300D01*
X156140000Y-183765583D01*
X156345934Y-183745300D01*
X156543954Y-183685232D01*
X156726450Y-183587685D01*
X156886410Y-183456410D01*
X157017685Y-183296450D01*
X157115232Y-183113954D01*
X157175300Y-182915934D01*
X157195583Y-182710000D01*
X157175300Y-182504066D01*
X157115232Y-182306046D01*
X157017685Y-182123550D01*
X156952047Y-182043569D01*
X156886410Y-181963589D01*
X156788952Y-181883609D01*
X156726450Y-181832315D01*
X156543954Y-181734768D01*
X156444944Y-181704734D01*
X156345932Y-181674699D01*
X156140000Y-181654417D01*
X155934067Y-181674699D01*
X155736043Y-181734769D01*
X155553551Y-181832314D01*
X155393589Y-181963589D01*
X155262314Y-182123551D01*
X155164769Y-182306043D01*
X155104699Y-182504067D01*
X155084417Y-182709999D01*
X149575583Y-182709999D01*
X149555300Y-182504066D01*
X149495232Y-182306046D01*
X149397685Y-182123550D01*
X149332047Y-182043569D01*
X149266410Y-181963589D01*
X149168952Y-181883609D01*
X149106450Y-181832315D01*
X148923954Y-181734768D01*
X148824944Y-181704734D01*
X148725932Y-181674699D01*
X148520000Y-181654417D01*
X148314067Y-181674699D01*
X148116043Y-181734769D01*
X147933551Y-181832314D01*
X147773589Y-181963589D01*
X147642314Y-182123551D01*
X147544769Y-182306043D01*
X147484699Y-182504067D01*
X147464417Y-182709999D01*
X146689962Y-182709999D01*
X146689960Y-180170000D01*
X147464417Y-180170000D01*
X147484699Y-180375932D01*
X147484700Y-180375934D01*
X147544768Y-180573954D01*
X147642315Y-180756450D01*
X147693608Y-180818952D01*
X147773589Y-180916410D01*
X147853570Y-180982047D01*
X147933550Y-181047685D01*
X148116046Y-181145232D01*
X148314066Y-181205300D01*
X148520000Y-181225583D01*
X148725934Y-181205300D01*
X148923954Y-181145232D01*
X149106450Y-181047685D01*
X149266410Y-180916410D01*
X149397685Y-180756450D01*
X149495232Y-180573954D01*
X149555300Y-180375934D01*
X149575583Y-180170000D01*
X155084417Y-180170000D01*
X155104699Y-180375932D01*
X155104700Y-180375934D01*
X155164768Y-180573954D01*
X155262315Y-180756450D01*
X155313608Y-180818952D01*
X155393589Y-180916410D01*
X155473570Y-180982047D01*
X155553550Y-181047685D01*
X155736046Y-181145232D01*
X155934066Y-181205300D01*
X156140000Y-181225583D01*
X156345934Y-181205300D01*
X156543954Y-181145232D01*
X156726450Y-181047685D01*
X156886410Y-180916410D01*
X157017685Y-180756450D01*
X157115232Y-180573954D01*
X157175300Y-180375934D01*
X157195583Y-180170000D01*
X157175300Y-179964066D01*
X157115232Y-179766046D01*
X157017685Y-179583550D01*
X156952047Y-179503569D01*
X156886410Y-179423589D01*
X156788952Y-179343609D01*
X156726450Y-179292315D01*
X156543954Y-179194768D01*
X156444944Y-179164734D01*
X156345932Y-179134699D01*
X156140000Y-179114417D01*
X155934067Y-179134699D01*
X155736043Y-179194769D01*
X155553551Y-179292314D01*
X155393589Y-179423589D01*
X155262314Y-179583551D01*
X155164769Y-179766043D01*
X155104699Y-179964067D01*
X155084417Y-180170000D01*
X149575583Y-180170000D01*
X149555300Y-179964066D01*
X149495232Y-179766046D01*
X149397685Y-179583550D01*
X149332047Y-179503569D01*
X149266410Y-179423589D01*
X149168952Y-179343609D01*
X149106450Y-179292315D01*
X148923954Y-179194768D01*
X148824944Y-179164734D01*
X148725932Y-179134699D01*
X148520000Y-179114417D01*
X148314067Y-179134699D01*
X148116043Y-179194769D01*
X147933551Y-179292314D01*
X147773589Y-179423589D01*
X147642314Y-179583551D01*
X147544769Y-179766043D01*
X147484699Y-179964067D01*
X147464417Y-180170000D01*
X146689960Y-180170000D01*
X146689958Y-177630000D01*
X147464417Y-177630000D01*
X147484699Y-177835932D01*
X147484700Y-177835934D01*
X147544768Y-178033954D01*
X147642315Y-178216450D01*
X147693609Y-178278952D01*
X147773589Y-178376410D01*
X147846880Y-178436557D01*
X147933550Y-178507685D01*
X148116046Y-178605232D01*
X148314066Y-178665300D01*
X148520000Y-178685583D01*
X148725934Y-178665300D01*
X148923954Y-178605232D01*
X149106450Y-178507685D01*
X149266410Y-178376410D01*
X149397685Y-178216450D01*
X149495232Y-178033954D01*
X149541933Y-177880000D01*
X154912892Y-177880000D01*
X154960897Y-178059159D01*
X155053332Y-178257385D01*
X155178790Y-178436557D01*
X155333442Y-178591209D01*
X155512614Y-178716667D01*
X155710840Y-178809102D01*
X155889999Y-178857107D01*
X155890000Y-178857108D01*
X155890000Y-177880000D01*
X156390000Y-177880000D01*
X156390000Y-178857107D01*
X156569159Y-178809102D01*
X156767385Y-178716667D01*
X156946557Y-178591209D01*
X157101209Y-178436557D01*
X157226667Y-178257385D01*
X157319102Y-178059159D01*
X157367108Y-177880000D01*
X156390000Y-177880000D01*
X155890000Y-177880000D01*
X154912892Y-177880000D01*
X149541933Y-177880000D01*
X149555300Y-177835934D01*
X149575583Y-177630000D01*
X149555300Y-177424066D01*
X149541933Y-177380000D01*
X154912892Y-177380000D01*
X155890000Y-177380000D01*
X155890000Y-176402892D01*
X156390000Y-176402892D01*
X156390000Y-177380000D01*
X157367108Y-177380000D01*
X157367107Y-177379999D01*
X157319102Y-177200840D01*
X157226667Y-177002615D01*
X157101209Y-176823442D01*
X156946557Y-176668790D01*
X156767385Y-176543332D01*
X156569159Y-176450897D01*
X156390000Y-176402892D01*
X155890000Y-176402892D01*
X155889999Y-176402892D01*
X155710840Y-176450897D01*
X155512615Y-176543332D01*
X155333442Y-176668790D01*
X155178790Y-176823442D01*
X155053332Y-177002615D01*
X154960897Y-177200840D01*
X154912892Y-177379999D01*
X154912892Y-177380000D01*
X149541933Y-177380000D01*
X149495232Y-177226046D01*
X149397685Y-177043550D01*
X149332047Y-176963569D01*
X149266410Y-176883589D01*
X149168952Y-176803608D01*
X149106450Y-176752315D01*
X148923954Y-176654768D01*
X148824943Y-176624733D01*
X148725932Y-176594699D01*
X148520000Y-176574417D01*
X148314067Y-176594699D01*
X148116043Y-176654769D01*
X147933551Y-176752314D01*
X147773589Y-176883589D01*
X147642314Y-177043551D01*
X147544769Y-177226043D01*
X147484699Y-177424067D01*
X147464417Y-177630000D01*
X146689958Y-177630000D01*
X146689954Y-172693300D01*
X198085766Y-172693300D01*
X198095722Y-173079828D01*
X198145367Y-173463286D01*
X198234176Y-173839600D01*
X198361211Y-174204797D01*
X198525117Y-174554987D01*
X198724162Y-174886469D01*
X198724164Y-174886472D01*
X198724165Y-174886473D01*
X198956241Y-175195734D01*
X199218885Y-175479495D01*
X199509314Y-175734745D01*
X199824449Y-175958781D01*
X199824453Y-175958783D01*
X200160949Y-176149228D01*
X200515242Y-176304063D01*
X200515247Y-176304065D01*
X200883588Y-176421652D01*
X201262067Y-176500743D01*
X201646673Y-176540500D01*
X201936582Y-176540500D01*
X201936589Y-176540500D01*
X202226142Y-176525574D01*
X202608191Y-176466072D01*
X202776861Y-176421652D01*
X202982092Y-176367604D01*
X203015936Y-176354844D01*
X203343896Y-176231209D01*
X203516883Y-176144744D01*
X203689751Y-176058340D01*
X204015998Y-175850826D01*
X204015999Y-175850825D01*
X204016004Y-175850822D01*
X204319187Y-175610860D01*
X204596091Y-175340997D01*
X204596091Y-175340996D01*
X204596095Y-175340993D01*
X204843777Y-175044095D01*
X204914579Y-174938867D01*
X205028370Y-174769749D01*
X223069500Y-174769749D01*
X223081132Y-174828230D01*
X223125447Y-174894552D01*
X223191769Y-174938867D01*
X223250251Y-174950500D01*
X223250252Y-174950500D01*
X224989748Y-174950500D01*
X224989749Y-174950500D01*
X225018989Y-174944683D01*
X225048231Y-174938867D01*
X225114552Y-174894552D01*
X225158867Y-174828231D01*
X225170500Y-174769748D01*
X225170500Y-173030252D01*
X225158867Y-172971769D01*
X225114552Y-172905447D01*
X225048230Y-172861132D01*
X224989749Y-172849500D01*
X224989748Y-172849500D01*
X223250252Y-172849500D01*
X223250251Y-172849500D01*
X223191769Y-172861132D01*
X223125447Y-172905447D01*
X223081132Y-172971769D01*
X223069500Y-173030251D01*
X223069500Y-174769749D01*
X205028370Y-174769749D01*
X205059627Y-174723294D01*
X205241346Y-174382002D01*
X205387009Y-174023834D01*
X205495074Y-173652587D01*
X205564394Y-173272197D01*
X205594234Y-172886696D01*
X205584278Y-172500169D01*
X205534633Y-172116715D01*
X205445823Y-171740398D01*
X205318790Y-171375206D01*
X205311673Y-171360000D01*
X223064417Y-171360000D01*
X223084699Y-171565932D01*
X223084700Y-171565934D01*
X223144768Y-171763954D01*
X223242315Y-171946450D01*
X223293609Y-172008952D01*
X223373589Y-172106410D01*
X223453569Y-172172047D01*
X223533550Y-172237685D01*
X223716046Y-172335232D01*
X223914066Y-172395300D01*
X224120000Y-172415583D01*
X224325934Y-172395300D01*
X224523954Y-172335232D01*
X224706450Y-172237685D01*
X224866410Y-172106410D01*
X224997685Y-171946450D01*
X225095232Y-171763954D01*
X225155300Y-171565934D01*
X225172628Y-171390000D01*
X236704749Y-171390000D01*
X236723670Y-171533709D01*
X236779137Y-171667622D01*
X236779138Y-171667624D01*
X236779139Y-171667625D01*
X236867379Y-171782621D01*
X236982375Y-171870861D01*
X237116291Y-171926330D01*
X237260000Y-171945250D01*
X237403709Y-171926330D01*
X237537625Y-171870861D01*
X237652621Y-171782621D01*
X237740861Y-171667625D01*
X237796330Y-171533709D01*
X237815250Y-171390000D01*
X237796330Y-171246291D01*
X237740861Y-171112375D01*
X237652621Y-170997379D01*
X237537625Y-170909139D01*
X237537624Y-170909138D01*
X237537622Y-170909137D01*
X237403709Y-170853670D01*
X237260000Y-170834749D01*
X237116290Y-170853670D01*
X236982377Y-170909137D01*
X236867379Y-170997379D01*
X236779137Y-171112377D01*
X236723670Y-171246290D01*
X236704749Y-171390000D01*
X225172628Y-171390000D01*
X225175583Y-171360000D01*
X225155300Y-171154066D01*
X225095232Y-170956046D01*
X224997685Y-170773550D01*
X224932012Y-170693527D01*
X224866410Y-170613589D01*
X224768952Y-170533609D01*
X224706450Y-170482315D01*
X224523954Y-170384768D01*
X224424944Y-170354734D01*
X224325932Y-170324699D01*
X224120000Y-170304417D01*
X223914067Y-170324699D01*
X223716043Y-170384769D01*
X223533551Y-170482314D01*
X223373589Y-170613589D01*
X223242314Y-170773551D01*
X223144769Y-170956043D01*
X223084699Y-171154067D01*
X223064417Y-171360000D01*
X205311673Y-171360000D01*
X205154882Y-171025012D01*
X205085304Y-170909139D01*
X204955837Y-170693530D01*
X204895848Y-170613590D01*
X204723759Y-170384266D01*
X204461115Y-170100505D01*
X204170686Y-169845255D01*
X203855551Y-169621219D01*
X203855546Y-169621216D01*
X203519050Y-169430771D01*
X203164757Y-169275936D01*
X202796410Y-169158347D01*
X202417935Y-169079257D01*
X202225630Y-169059378D01*
X202033327Y-169039500D01*
X201743411Y-169039500D01*
X201540723Y-169049948D01*
X201453855Y-169054426D01*
X201071802Y-169113929D01*
X200697907Y-169212395D01*
X200336098Y-169348793D01*
X199990248Y-169521659D01*
X199664001Y-169729173D01*
X199360810Y-169969142D01*
X199083904Y-170239006D01*
X198836222Y-170535904D01*
X198620372Y-170856707D01*
X198438653Y-171197998D01*
X198292993Y-171556160D01*
X198184925Y-171927415D01*
X198115605Y-172307805D01*
X198085766Y-172693300D01*
X146689954Y-172693300D01*
X146689950Y-166030000D01*
X227654417Y-166030000D01*
X227674699Y-166235932D01*
X227674700Y-166235934D01*
X227734768Y-166433954D01*
X227832315Y-166616450D01*
X227883608Y-166678952D01*
X227963589Y-166776410D01*
X228036602Y-166836329D01*
X228123550Y-166907685D01*
X228306046Y-167005232D01*
X228504066Y-167065300D01*
X228710000Y-167085583D01*
X228915934Y-167065300D01*
X229113954Y-167005232D01*
X229296450Y-166907685D01*
X229456410Y-166776410D01*
X229587685Y-166616450D01*
X229685232Y-166433954D01*
X229725866Y-166300000D01*
X236584749Y-166300000D01*
X236603670Y-166443709D01*
X236659137Y-166577622D01*
X236659138Y-166577624D01*
X236659139Y-166577625D01*
X236747379Y-166692621D01*
X236862375Y-166780861D01*
X236996291Y-166836330D01*
X237140000Y-166855250D01*
X237283709Y-166836330D01*
X237417625Y-166780861D01*
X237532621Y-166692621D01*
X237620861Y-166577625D01*
X237676330Y-166443709D01*
X237695250Y-166300000D01*
X237676330Y-166156291D01*
X237624019Y-166030000D01*
X250514417Y-166030000D01*
X250534699Y-166235932D01*
X250534700Y-166235934D01*
X250594768Y-166433954D01*
X250692315Y-166616450D01*
X250743608Y-166678952D01*
X250823589Y-166776410D01*
X250896602Y-166836329D01*
X250983550Y-166907685D01*
X251166046Y-167005232D01*
X251364066Y-167065300D01*
X251570000Y-167085583D01*
X251775934Y-167065300D01*
X251973954Y-167005232D01*
X252156450Y-166907685D01*
X252316410Y-166776410D01*
X252447685Y-166616450D01*
X252545232Y-166433954D01*
X252605300Y-166235934D01*
X252625583Y-166030000D01*
X252605300Y-165824066D01*
X252545232Y-165626046D01*
X252447685Y-165443550D01*
X252382047Y-165363570D01*
X252316410Y-165283589D01*
X252218952Y-165203608D01*
X252156450Y-165152315D01*
X251973954Y-165054768D01*
X251874944Y-165024734D01*
X251775932Y-164994699D01*
X251592497Y-164976632D01*
X251570000Y-164974417D01*
X251569999Y-164974417D01*
X251364067Y-164994699D01*
X251166043Y-165054769D01*
X250983551Y-165152314D01*
X250823589Y-165283589D01*
X250692314Y-165443551D01*
X250594769Y-165626043D01*
X250534699Y-165824067D01*
X250514417Y-166030000D01*
X237624019Y-166030000D01*
X237620861Y-166022375D01*
X237532621Y-165907379D01*
X237417625Y-165819139D01*
X237417624Y-165819138D01*
X237417622Y-165819137D01*
X237283709Y-165763670D01*
X237140000Y-165744749D01*
X236996290Y-165763670D01*
X236862377Y-165819137D01*
X236747379Y-165907379D01*
X236659137Y-166022377D01*
X236603670Y-166156290D01*
X236584749Y-166300000D01*
X229725866Y-166300000D01*
X229745300Y-166235934D01*
X229765583Y-166030000D01*
X229745300Y-165824066D01*
X229685232Y-165626046D01*
X229587685Y-165443550D01*
X229522047Y-165363570D01*
X229456410Y-165283589D01*
X229358952Y-165203608D01*
X229296450Y-165152315D01*
X229113954Y-165054768D01*
X229014944Y-165024734D01*
X228915932Y-164994699D01*
X228732497Y-164976632D01*
X228710000Y-164974417D01*
X228709999Y-164974417D01*
X228504067Y-164994699D01*
X228306043Y-165054769D01*
X228123551Y-165152314D01*
X227963589Y-165283589D01*
X227832314Y-165443551D01*
X227734769Y-165626043D01*
X227674699Y-165824067D01*
X227654417Y-166030000D01*
X146689950Y-166030000D01*
X146689948Y-163489999D01*
X227654417Y-163489999D01*
X227674699Y-163695932D01*
X227674700Y-163695934D01*
X227734768Y-163893954D01*
X227832315Y-164076450D01*
X227883609Y-164138952D01*
X227963589Y-164236410D01*
X228036880Y-164296557D01*
X228123550Y-164367685D01*
X228306046Y-164465232D01*
X228504066Y-164525300D01*
X228710000Y-164545583D01*
X228915934Y-164525300D01*
X229113954Y-164465232D01*
X229296450Y-164367685D01*
X229456410Y-164236410D01*
X229587685Y-164076450D01*
X229685232Y-163893954D01*
X229731933Y-163740000D01*
X250342892Y-163740000D01*
X250390897Y-163919159D01*
X250483332Y-164117385D01*
X250608790Y-164296557D01*
X250763442Y-164451209D01*
X250942614Y-164576667D01*
X251140840Y-164669102D01*
X251319999Y-164717107D01*
X251320000Y-164717108D01*
X251320000Y-163740000D01*
X251820000Y-163740000D01*
X251820000Y-164717107D01*
X251999159Y-164669102D01*
X252197385Y-164576667D01*
X252376557Y-164451209D01*
X252531209Y-164296557D01*
X252656667Y-164117385D01*
X252749102Y-163919159D01*
X252797108Y-163740000D01*
X251820000Y-163740000D01*
X251320000Y-163740000D01*
X250342892Y-163740000D01*
X229731933Y-163740000D01*
X229745300Y-163695934D01*
X229765583Y-163490000D01*
X229745300Y-163284066D01*
X229731933Y-163240000D01*
X250342892Y-163240000D01*
X251320000Y-163240000D01*
X251320000Y-162262892D01*
X251820000Y-162262892D01*
X251820000Y-163240000D01*
X252797108Y-163240000D01*
X252797107Y-163239999D01*
X252749102Y-163060840D01*
X252656667Y-162862615D01*
X252531209Y-162683442D01*
X252376557Y-162528790D01*
X252197385Y-162403332D01*
X251999159Y-162310897D01*
X251820000Y-162262892D01*
X251320000Y-162262892D01*
X251319999Y-162262892D01*
X251140840Y-162310897D01*
X250942615Y-162403332D01*
X250763442Y-162528790D01*
X250608790Y-162683442D01*
X250483332Y-162862615D01*
X250390897Y-163060840D01*
X250342892Y-163239999D01*
X250342892Y-163240000D01*
X229731933Y-163240000D01*
X229685232Y-163086046D01*
X229587685Y-162903550D01*
X229522047Y-162823569D01*
X229456410Y-162743589D01*
X229358952Y-162663609D01*
X229296450Y-162612315D01*
X229113954Y-162514768D01*
X229014944Y-162484734D01*
X228915932Y-162454699D01*
X228710000Y-162434417D01*
X228504067Y-162454699D01*
X228306043Y-162514769D01*
X228123551Y-162612314D01*
X227963589Y-162743589D01*
X227832314Y-162903551D01*
X227734769Y-163086043D01*
X227674699Y-163284067D01*
X227654417Y-163489999D01*
X146689948Y-163489999D01*
X146689946Y-160949999D01*
X227654417Y-160949999D01*
X227674699Y-161155932D01*
X227674700Y-161155934D01*
X227734768Y-161353954D01*
X227832315Y-161536450D01*
X227883609Y-161598952D01*
X227963589Y-161696410D01*
X228043570Y-161762047D01*
X228123550Y-161827685D01*
X228306046Y-161925232D01*
X228504066Y-161985300D01*
X228710000Y-162005583D01*
X228915934Y-161985300D01*
X229113954Y-161925232D01*
X229296450Y-161827685D01*
X229456410Y-161696410D01*
X229587685Y-161536450D01*
X229685232Y-161353954D01*
X229745300Y-161155934D01*
X229765583Y-160950000D01*
X229765583Y-160949999D01*
X250514417Y-160949999D01*
X250534699Y-161155932D01*
X250534700Y-161155934D01*
X250594768Y-161353954D01*
X250692315Y-161536450D01*
X250743609Y-161598952D01*
X250823589Y-161696410D01*
X250903570Y-161762047D01*
X250983550Y-161827685D01*
X251166046Y-161925232D01*
X251364066Y-161985300D01*
X251570000Y-162005583D01*
X251775934Y-161985300D01*
X251973954Y-161925232D01*
X252156450Y-161827685D01*
X252316410Y-161696410D01*
X252447685Y-161536450D01*
X252545232Y-161353954D01*
X252605300Y-161155934D01*
X252625583Y-160950000D01*
X252605300Y-160744066D01*
X252545232Y-160546046D01*
X252447685Y-160363550D01*
X252382047Y-160283570D01*
X252316410Y-160203589D01*
X252218952Y-160123609D01*
X252156450Y-160072315D01*
X251973954Y-159974768D01*
X251874944Y-159944734D01*
X251775932Y-159914699D01*
X251570000Y-159894417D01*
X251364067Y-159914699D01*
X251166043Y-159974769D01*
X250983551Y-160072314D01*
X250823589Y-160203589D01*
X250692314Y-160363551D01*
X250594769Y-160546043D01*
X250534699Y-160744067D01*
X250514417Y-160949999D01*
X229765583Y-160949999D01*
X229745300Y-160744066D01*
X229685232Y-160546046D01*
X229587685Y-160363550D01*
X229522047Y-160283570D01*
X229456410Y-160203589D01*
X229358952Y-160123609D01*
X229296450Y-160072315D01*
X229113954Y-159974768D01*
X229014944Y-159944734D01*
X228915932Y-159914699D01*
X228710000Y-159894417D01*
X228504067Y-159914699D01*
X228306043Y-159974769D01*
X228123551Y-160072314D01*
X227963589Y-160203589D01*
X227832314Y-160363551D01*
X227734769Y-160546043D01*
X227674699Y-160744067D01*
X227654417Y-160949999D01*
X146689946Y-160949999D01*
X146689944Y-158410000D01*
X227654417Y-158410000D01*
X227674699Y-158615932D01*
X227674700Y-158615934D01*
X227734768Y-158813954D01*
X227832315Y-158996450D01*
X227883609Y-159058952D01*
X227963589Y-159156410D01*
X228043570Y-159222047D01*
X228123550Y-159287685D01*
X228306046Y-159385232D01*
X228504066Y-159445300D01*
X228710000Y-159465583D01*
X228915934Y-159445300D01*
X229113954Y-159385232D01*
X229296450Y-159287685D01*
X229456410Y-159156410D01*
X229587685Y-158996450D01*
X229685232Y-158813954D01*
X229745300Y-158615934D01*
X229765583Y-158410000D01*
X250514417Y-158410000D01*
X250534699Y-158615932D01*
X250534700Y-158615934D01*
X250594768Y-158813954D01*
X250692315Y-158996450D01*
X250743609Y-159058952D01*
X250823589Y-159156410D01*
X250903570Y-159222047D01*
X250983550Y-159287685D01*
X251166046Y-159385232D01*
X251364066Y-159445300D01*
X251570000Y-159465583D01*
X251775934Y-159445300D01*
X251973954Y-159385232D01*
X252156450Y-159287685D01*
X252316410Y-159156410D01*
X252447685Y-158996450D01*
X252545232Y-158813954D01*
X252605300Y-158615934D01*
X252625583Y-158410000D01*
X252605300Y-158204066D01*
X252545232Y-158006046D01*
X252447685Y-157823550D01*
X252382047Y-157743570D01*
X252316410Y-157663589D01*
X252218952Y-157583608D01*
X252156450Y-157532315D01*
X251973954Y-157434768D01*
X251874943Y-157404733D01*
X251775932Y-157374699D01*
X251570000Y-157354417D01*
X251364067Y-157374699D01*
X251166043Y-157434769D01*
X250983551Y-157532314D01*
X250823589Y-157663589D01*
X250692314Y-157823551D01*
X250594769Y-158006043D01*
X250534699Y-158204067D01*
X250514417Y-158410000D01*
X229765583Y-158410000D01*
X229745300Y-158204066D01*
X229685232Y-158006046D01*
X229587685Y-157823550D01*
X229522047Y-157743570D01*
X229456410Y-157663589D01*
X229358952Y-157583608D01*
X229296450Y-157532315D01*
X229113954Y-157434768D01*
X229014943Y-157404733D01*
X228915932Y-157374699D01*
X228710000Y-157354417D01*
X228504067Y-157374699D01*
X228306043Y-157434769D01*
X228123551Y-157532314D01*
X227963589Y-157663589D01*
X227832314Y-157823551D01*
X227734769Y-158006043D01*
X227674699Y-158204067D01*
X227654417Y-158410000D01*
X146689944Y-158410000D01*
X146689942Y-155870000D01*
X227654417Y-155870000D01*
X227674699Y-156075932D01*
X227674700Y-156075934D01*
X227734768Y-156273954D01*
X227832315Y-156456450D01*
X227883609Y-156518952D01*
X227963589Y-156616410D01*
X228043570Y-156682047D01*
X228123550Y-156747685D01*
X228306046Y-156845232D01*
X228504066Y-156905300D01*
X228710000Y-156925583D01*
X228915934Y-156905300D01*
X229113954Y-156845232D01*
X229296450Y-156747685D01*
X229456410Y-156616410D01*
X229587685Y-156456450D01*
X229685232Y-156273954D01*
X229745300Y-156075934D01*
X229765583Y-155870000D01*
X250514417Y-155870000D01*
X250534699Y-156075932D01*
X250534700Y-156075934D01*
X250594768Y-156273954D01*
X250692315Y-156456450D01*
X250743609Y-156518952D01*
X250823589Y-156616410D01*
X250903570Y-156682047D01*
X250983550Y-156747685D01*
X251166046Y-156845232D01*
X251364066Y-156905300D01*
X251570000Y-156925583D01*
X251775934Y-156905300D01*
X251973954Y-156845232D01*
X252156450Y-156747685D01*
X252316410Y-156616410D01*
X252447685Y-156456450D01*
X252545232Y-156273954D01*
X252605300Y-156075934D01*
X252625583Y-155870000D01*
X252605300Y-155664066D01*
X252545232Y-155466046D01*
X252447685Y-155283550D01*
X252382047Y-155203570D01*
X252316410Y-155123589D01*
X252218952Y-155043608D01*
X252156450Y-154992315D01*
X251973954Y-154894768D01*
X251874943Y-154864733D01*
X251775932Y-154834699D01*
X251570000Y-154814417D01*
X251364067Y-154834699D01*
X251166043Y-154894769D01*
X250983551Y-154992314D01*
X250823589Y-155123589D01*
X250692314Y-155283551D01*
X250594769Y-155466043D01*
X250534699Y-155664067D01*
X250514417Y-155870000D01*
X229765583Y-155870000D01*
X229745300Y-155664066D01*
X229685232Y-155466046D01*
X229587685Y-155283550D01*
X229522047Y-155203570D01*
X229456410Y-155123589D01*
X229358952Y-155043608D01*
X229296450Y-154992315D01*
X229113954Y-154894768D01*
X229014943Y-154864733D01*
X228915932Y-154834699D01*
X228710000Y-154814417D01*
X228504067Y-154834699D01*
X228306043Y-154894769D01*
X228123551Y-154992314D01*
X227963589Y-155123589D01*
X227832314Y-155283551D01*
X227734769Y-155466043D01*
X227674699Y-155664067D01*
X227654417Y-155870000D01*
X146689942Y-155870000D01*
X146689940Y-153330000D01*
X227654417Y-153330000D01*
X227674699Y-153535932D01*
X227674700Y-153535934D01*
X227734768Y-153733954D01*
X227832315Y-153916450D01*
X227883608Y-153978952D01*
X227963589Y-154076410D01*
X228043570Y-154142047D01*
X228123550Y-154207685D01*
X228306046Y-154305232D01*
X228504066Y-154365300D01*
X228710000Y-154385583D01*
X228915934Y-154365300D01*
X229113954Y-154305232D01*
X229296450Y-154207685D01*
X229456410Y-154076410D01*
X229587685Y-153916450D01*
X229685232Y-153733954D01*
X229745300Y-153535934D01*
X229765583Y-153330000D01*
X250514417Y-153330000D01*
X250534699Y-153535932D01*
X250534700Y-153535934D01*
X250594768Y-153733954D01*
X250692315Y-153916450D01*
X250743608Y-153978952D01*
X250823589Y-154076410D01*
X250903570Y-154142047D01*
X250983550Y-154207685D01*
X251166046Y-154305232D01*
X251364066Y-154365300D01*
X251570000Y-154385583D01*
X251775934Y-154365300D01*
X251973954Y-154305232D01*
X252156450Y-154207685D01*
X252316410Y-154076410D01*
X252447685Y-153916450D01*
X252545232Y-153733954D01*
X252605300Y-153535934D01*
X252625583Y-153330000D01*
X252605300Y-153124066D01*
X252545232Y-152926046D01*
X252447685Y-152743550D01*
X252382047Y-152663569D01*
X252316410Y-152583589D01*
X252218952Y-152503608D01*
X252156450Y-152452315D01*
X251973954Y-152354768D01*
X251874944Y-152324734D01*
X251775932Y-152294699D01*
X251570000Y-152274417D01*
X251364067Y-152294699D01*
X251166043Y-152354769D01*
X250983551Y-152452314D01*
X250823589Y-152583589D01*
X250692314Y-152743551D01*
X250594769Y-152926043D01*
X250534699Y-153124067D01*
X250514417Y-153330000D01*
X229765583Y-153330000D01*
X229745300Y-153124066D01*
X229685232Y-152926046D01*
X229587685Y-152743550D01*
X229522047Y-152663569D01*
X229456410Y-152583589D01*
X229358952Y-152503608D01*
X229296450Y-152452315D01*
X229113954Y-152354768D01*
X229014944Y-152324734D01*
X228915932Y-152294699D01*
X228710000Y-152274417D01*
X228504067Y-152294699D01*
X228306043Y-152354769D01*
X228123551Y-152452314D01*
X227963589Y-152583589D01*
X227832314Y-152743551D01*
X227734769Y-152926043D01*
X227674699Y-153124067D01*
X227654417Y-153330000D01*
X146689940Y-153330000D01*
X146689939Y-151869999D01*
X200534749Y-151869999D01*
X200553670Y-152013709D01*
X200609137Y-152147622D01*
X200609138Y-152147624D01*
X200609139Y-152147625D01*
X200697379Y-152262621D01*
X200812375Y-152350861D01*
X200946291Y-152406330D01*
X201090000Y-152425250D01*
X201233709Y-152406330D01*
X201367625Y-152350861D01*
X201482621Y-152262621D01*
X201570861Y-152147625D01*
X201626330Y-152013709D01*
X201645250Y-151870000D01*
X201626330Y-151726291D01*
X201570861Y-151592375D01*
X201482621Y-151477379D01*
X201367625Y-151389139D01*
X201367624Y-151389138D01*
X201367622Y-151389137D01*
X201233709Y-151333670D01*
X201090000Y-151314749D01*
X200946290Y-151333670D01*
X200812377Y-151389137D01*
X200697379Y-151477379D01*
X200609137Y-151592377D01*
X200553670Y-151726290D01*
X200534749Y-151869999D01*
X146689939Y-151869999D01*
X146689938Y-150789999D01*
X227654417Y-150789999D01*
X227674699Y-150995932D01*
X227674700Y-150995934D01*
X227734768Y-151193954D01*
X227832315Y-151376450D01*
X227842727Y-151389137D01*
X227963589Y-151536410D01*
X228031784Y-151592375D01*
X228123550Y-151667685D01*
X228306046Y-151765232D01*
X228504066Y-151825300D01*
X228710000Y-151845583D01*
X228915934Y-151825300D01*
X229113954Y-151765232D01*
X229296450Y-151667685D01*
X229456410Y-151536410D01*
X229587685Y-151376450D01*
X229685232Y-151193954D01*
X229745300Y-150995934D01*
X229765583Y-150790000D01*
X229765583Y-150789999D01*
X250514417Y-150789999D01*
X250534699Y-150995932D01*
X250534700Y-150995934D01*
X250594768Y-151193954D01*
X250692315Y-151376450D01*
X250702727Y-151389137D01*
X250823589Y-151536410D01*
X250891784Y-151592375D01*
X250983550Y-151667685D01*
X251166046Y-151765232D01*
X251364066Y-151825300D01*
X251570000Y-151845583D01*
X251775934Y-151825300D01*
X251973954Y-151765232D01*
X252156450Y-151667685D01*
X252316410Y-151536410D01*
X252447685Y-151376450D01*
X252545232Y-151193954D01*
X252605300Y-150995934D01*
X252625583Y-150790000D01*
X252605300Y-150584066D01*
X252545232Y-150386046D01*
X252447685Y-150203550D01*
X252382047Y-150123570D01*
X252316410Y-150043589D01*
X252218952Y-149963608D01*
X252156450Y-149912315D01*
X252014220Y-149836291D01*
X251973956Y-149814769D01*
X251973955Y-149814768D01*
X251973954Y-149814768D01*
X251874943Y-149784733D01*
X251775932Y-149754699D01*
X251570000Y-149734417D01*
X251364067Y-149754699D01*
X251166043Y-149814769D01*
X250983551Y-149912314D01*
X250823589Y-150043589D01*
X250692314Y-150203551D01*
X250594769Y-150386043D01*
X250534699Y-150584067D01*
X250514417Y-150789999D01*
X229765583Y-150789999D01*
X229745300Y-150584066D01*
X229685232Y-150386046D01*
X229587685Y-150203550D01*
X229522047Y-150123570D01*
X229456410Y-150043589D01*
X229358952Y-149963608D01*
X229296450Y-149912315D01*
X229154220Y-149836291D01*
X229113956Y-149814769D01*
X229113955Y-149814768D01*
X229113954Y-149814768D01*
X229014943Y-149784733D01*
X228915932Y-149754699D01*
X228710000Y-149734417D01*
X228504067Y-149754699D01*
X228306043Y-149814769D01*
X228123551Y-149912314D01*
X227963589Y-150043589D01*
X227832314Y-150203551D01*
X227734769Y-150386043D01*
X227674699Y-150584067D01*
X227654417Y-150789999D01*
X146689938Y-150789999D01*
X146689938Y-149980000D01*
X207824749Y-149980000D01*
X207843670Y-150123709D01*
X207899137Y-150257622D01*
X207899138Y-150257624D01*
X207899139Y-150257625D01*
X207987379Y-150372621D01*
X208102375Y-150460861D01*
X208236291Y-150516330D01*
X208380000Y-150535250D01*
X208523709Y-150516330D01*
X208657625Y-150460861D01*
X208772621Y-150372621D01*
X208860861Y-150257625D01*
X208916330Y-150123709D01*
X208935250Y-149980000D01*
X208916330Y-149836291D01*
X208860861Y-149702375D01*
X208772621Y-149587379D01*
X208657625Y-149499139D01*
X208657624Y-149499138D01*
X208657622Y-149499137D01*
X208523709Y-149443670D01*
X208380000Y-149424749D01*
X208236290Y-149443670D01*
X208102377Y-149499137D01*
X207987379Y-149587379D01*
X207899137Y-149702377D01*
X207843670Y-149836290D01*
X207824749Y-149980000D01*
X146689938Y-149980000D01*
X146689937Y-148770000D01*
X196594749Y-148770000D01*
X196613670Y-148913709D01*
X196669137Y-149047622D01*
X196669138Y-149047624D01*
X196669139Y-149047625D01*
X196757379Y-149162621D01*
X196872375Y-149250861D01*
X197006291Y-149306330D01*
X197150000Y-149325250D01*
X197293709Y-149306330D01*
X197427625Y-149250861D01*
X197542621Y-149162621D01*
X197575518Y-149119749D01*
X227659500Y-149119749D01*
X227671132Y-149178230D01*
X227715447Y-149244552D01*
X227781769Y-149288867D01*
X227840251Y-149300500D01*
X227840252Y-149300500D01*
X229579748Y-149300500D01*
X229579749Y-149300500D01*
X229608989Y-149294683D01*
X229638231Y-149288867D01*
X229704552Y-149244552D01*
X229748867Y-149178231D01*
X229760500Y-149119749D01*
X250519500Y-149119749D01*
X250531132Y-149178230D01*
X250575447Y-149244552D01*
X250641769Y-149288867D01*
X250700251Y-149300500D01*
X250700252Y-149300500D01*
X252439748Y-149300500D01*
X252439749Y-149300500D01*
X252468989Y-149294683D01*
X252498231Y-149288867D01*
X252564552Y-149244552D01*
X252608867Y-149178231D01*
X252620500Y-149119748D01*
X252620500Y-147380252D01*
X252615741Y-147356329D01*
X252608867Y-147321769D01*
X252564552Y-147255447D01*
X252498230Y-147211132D01*
X252439749Y-147199500D01*
X252439748Y-147199500D01*
X250700252Y-147199500D01*
X250700251Y-147199500D01*
X250641769Y-147211132D01*
X250575447Y-147255447D01*
X250531132Y-147321769D01*
X250519500Y-147380251D01*
X250519500Y-149119749D01*
X229760500Y-149119749D01*
X229760500Y-149119748D01*
X229760500Y-147380252D01*
X229755741Y-147356329D01*
X229748867Y-147321769D01*
X229704552Y-147255447D01*
X229638230Y-147211132D01*
X229579749Y-147199500D01*
X229579748Y-147199500D01*
X227840252Y-147199500D01*
X227840251Y-147199500D01*
X227781769Y-147211132D01*
X227715447Y-147255447D01*
X227671132Y-147321769D01*
X227659500Y-147380251D01*
X227659500Y-149119749D01*
X197575518Y-149119749D01*
X197630861Y-149047625D01*
X197686330Y-148913709D01*
X197705250Y-148770000D01*
X197686330Y-148626291D01*
X197630861Y-148492375D01*
X197542621Y-148377379D01*
X197427625Y-148289139D01*
X197427624Y-148289138D01*
X197427622Y-148289137D01*
X197293709Y-148233670D01*
X197150000Y-148214749D01*
X197006290Y-148233670D01*
X196872377Y-148289137D01*
X196757379Y-148377379D01*
X196669137Y-148492377D01*
X196613670Y-148626290D01*
X196594749Y-148770000D01*
X146689937Y-148770000D01*
X146689936Y-146820000D01*
X195284749Y-146820000D01*
X195303670Y-146963709D01*
X195359137Y-147097622D01*
X195359138Y-147097624D01*
X195359139Y-147097625D01*
X195447379Y-147212621D01*
X195562375Y-147300861D01*
X195696291Y-147356330D01*
X195840000Y-147375250D01*
X195983709Y-147356330D01*
X196095561Y-147310000D01*
X209354749Y-147310000D01*
X209373670Y-147453709D01*
X209429137Y-147587622D01*
X209429138Y-147587624D01*
X209429139Y-147587625D01*
X209517379Y-147702621D01*
X209632375Y-147790861D01*
X209766291Y-147846330D01*
X209910000Y-147865250D01*
X210053709Y-147846330D01*
X210187625Y-147790861D01*
X210302621Y-147702621D01*
X210390861Y-147587625D01*
X210446330Y-147453709D01*
X210465250Y-147310000D01*
X210446330Y-147166291D01*
X210390861Y-147032375D01*
X210302621Y-146917379D01*
X210187625Y-146829139D01*
X210187624Y-146829138D01*
X210187622Y-146829137D01*
X210053709Y-146773670D01*
X209910000Y-146754749D01*
X209766290Y-146773670D01*
X209632377Y-146829137D01*
X209517379Y-146917379D01*
X209429137Y-147032377D01*
X209373670Y-147166290D01*
X209354749Y-147310000D01*
X196095561Y-147310000D01*
X196117625Y-147300861D01*
X196232621Y-147212621D01*
X196320861Y-147097625D01*
X196376330Y-146963709D01*
X196395250Y-146820000D01*
X196376330Y-146676291D01*
X196320861Y-146542375D01*
X196232621Y-146427379D01*
X196117625Y-146339139D01*
X196117624Y-146339138D01*
X196117622Y-146339137D01*
X195983709Y-146283670D01*
X195840000Y-146264749D01*
X195696290Y-146283670D01*
X195562377Y-146339137D01*
X195447379Y-146427379D01*
X195359137Y-146542377D01*
X195303670Y-146676290D01*
X195284749Y-146820000D01*
X146689936Y-146820000D01*
X146689932Y-140553198D01*
X248700354Y-140553198D01*
X248707155Y-140559006D01*
X248928597Y-140694705D01*
X249168544Y-140794096D01*
X249421083Y-140854724D01*
X249680000Y-140875101D01*
X249938916Y-140854724D01*
X250191455Y-140794096D01*
X250431397Y-140694707D01*
X250652849Y-140559003D01*
X250659645Y-140553198D01*
X249680000Y-139573553D01*
X248700354Y-140553198D01*
X146689932Y-140553198D01*
X146689931Y-139219999D01*
X248024898Y-139219999D01*
X248045275Y-139478916D01*
X248105903Y-139731455D01*
X248205294Y-139971402D01*
X248340993Y-140192843D01*
X248346801Y-140199644D01*
X249326447Y-139220001D01*
X249326447Y-139220000D01*
X250033553Y-139220000D01*
X251013198Y-140199645D01*
X251019003Y-140192849D01*
X251154707Y-139971397D01*
X251254096Y-139731455D01*
X251314724Y-139478916D01*
X251335101Y-139219999D01*
X251314724Y-138961083D01*
X251254096Y-138708544D01*
X251154705Y-138468597D01*
X251019006Y-138247155D01*
X251013198Y-138240354D01*
X250033553Y-139220000D01*
X249326447Y-139220000D01*
X248346801Y-138240354D01*
X248340992Y-138247156D01*
X248205294Y-138468597D01*
X248105903Y-138708544D01*
X248045275Y-138961083D01*
X248024898Y-139219999D01*
X146689931Y-139219999D01*
X146689930Y-137886801D01*
X248700354Y-137886801D01*
X249680000Y-138866447D01*
X249680001Y-138866447D01*
X250659645Y-137886801D01*
X250652843Y-137880993D01*
X250431402Y-137745294D01*
X250191455Y-137645903D01*
X249938916Y-137585275D01*
X249680000Y-137564898D01*
X249421083Y-137585275D01*
X249168544Y-137645903D01*
X248928597Y-137745294D01*
X248707156Y-137880992D01*
X248700354Y-137886801D01*
X146689930Y-137886801D01*
X146689927Y-133940000D01*
X248375000Y-133940000D01*
X248375000Y-134105639D01*
X248377900Y-134142493D01*
X248423717Y-134300197D01*
X248507317Y-134441557D01*
X248623442Y-134557682D01*
X248764802Y-134641282D01*
X248922506Y-134687099D01*
X248959361Y-134690000D01*
X249400000Y-134690000D01*
X249400000Y-133940000D01*
X249900000Y-133940000D01*
X249900000Y-134690000D01*
X250340639Y-134690000D01*
X250377493Y-134687099D01*
X250535197Y-134641282D01*
X250676557Y-134557682D01*
X250792682Y-134441557D01*
X250876282Y-134300197D01*
X250922099Y-134142493D01*
X250925000Y-134105639D01*
X250925000Y-133940000D01*
X249900000Y-133940000D01*
X249400000Y-133940000D01*
X248375000Y-133940000D01*
X146689927Y-133940000D01*
X146689927Y-133440000D01*
X248375000Y-133440000D01*
X250925000Y-133440000D01*
X250925000Y-133274361D01*
X250922099Y-133237506D01*
X250876282Y-133079802D01*
X250792682Y-132938442D01*
X250676557Y-132822317D01*
X250535197Y-132738717D01*
X250377493Y-132692900D01*
X250340639Y-132690000D01*
X250220684Y-132690000D01*
X250154712Y-132670994D01*
X250108964Y-132619802D01*
X250097464Y-132552117D01*
X250123737Y-132488687D01*
X250179729Y-132448959D01*
X250274519Y-132415790D01*
X250274518Y-132415790D01*
X250274522Y-132415789D01*
X250427262Y-132319816D01*
X250554816Y-132192262D01*
X250650789Y-132039522D01*
X250710368Y-131869255D01*
X250730565Y-131690000D01*
X250710368Y-131510745D01*
X250650789Y-131340478D01*
X250554816Y-131187738D01*
X250554815Y-131187737D01*
X250554814Y-131187735D01*
X250427264Y-131060185D01*
X250364867Y-131020978D01*
X250274522Y-130964211D01*
X250104255Y-130904632D01*
X250104253Y-130904631D01*
X250104251Y-130904631D01*
X249969957Y-130889500D01*
X249969954Y-130889500D01*
X249330046Y-130889500D01*
X249330043Y-130889500D01*
X249195748Y-130904631D01*
X249195745Y-130904631D01*
X249195745Y-130904632D01*
X249025478Y-130964211D01*
X249025476Y-130964211D01*
X249025476Y-130964212D01*
X248872735Y-131060185D01*
X248745185Y-131187735D01*
X248702263Y-131256046D01*
X248649211Y-131340478D01*
X248589632Y-131510745D01*
X248589631Y-131510748D01*
X248569434Y-131689999D01*
X248589631Y-131869251D01*
X248589631Y-131869253D01*
X248589632Y-131869255D01*
X248649211Y-132039522D01*
X248649212Y-132039523D01*
X248745185Y-132192264D01*
X248872735Y-132319814D01*
X248872737Y-132319815D01*
X248872738Y-132319816D01*
X249010551Y-132406410D01*
X249025480Y-132415790D01*
X249120271Y-132448959D01*
X249176263Y-132488687D01*
X249202536Y-132552117D01*
X249191036Y-132619802D01*
X249145288Y-132670994D01*
X249079316Y-132690000D01*
X248959361Y-132690000D01*
X248922506Y-132692900D01*
X248764802Y-132738717D01*
X248623442Y-132822317D01*
X248507317Y-132938442D01*
X248423717Y-133079802D01*
X248377900Y-133237506D01*
X248375000Y-133274361D01*
X248375000Y-133440000D01*
X146689927Y-133440000D01*
X146689926Y-131659999D01*
X238064417Y-131659999D01*
X238084699Y-131865932D01*
X238084700Y-131865934D01*
X238144768Y-132063954D01*
X238242315Y-132246450D01*
X238293608Y-132308952D01*
X238373589Y-132406410D01*
X238425436Y-132448959D01*
X238533550Y-132537685D01*
X238716046Y-132635232D01*
X238914066Y-132695300D01*
X239120000Y-132715583D01*
X239325934Y-132695300D01*
X239523954Y-132635232D01*
X239706450Y-132537685D01*
X239716120Y-132529749D01*
X240609500Y-132529749D01*
X240621132Y-132588230D01*
X240665447Y-132654552D01*
X240731769Y-132698867D01*
X240790251Y-132710500D01*
X240790252Y-132710500D01*
X242529748Y-132710500D01*
X242529749Y-132710500D01*
X242558989Y-132704683D01*
X242588231Y-132698867D01*
X242654552Y-132654552D01*
X242698867Y-132588231D01*
X242710500Y-132529748D01*
X242710500Y-130790252D01*
X242698867Y-130731769D01*
X242698866Y-130731768D01*
X242654552Y-130665447D01*
X242588230Y-130621132D01*
X242529749Y-130609500D01*
X242529748Y-130609500D01*
X240790252Y-130609500D01*
X240790251Y-130609500D01*
X240731769Y-130621132D01*
X240665447Y-130665447D01*
X240621132Y-130731769D01*
X240609500Y-130790251D01*
X240609500Y-132529749D01*
X239716120Y-132529749D01*
X239866410Y-132406410D01*
X239997685Y-132246450D01*
X240095232Y-132063954D01*
X240155300Y-131865934D01*
X240175583Y-131660000D01*
X240155300Y-131454066D01*
X240095232Y-131256046D01*
X239997685Y-131073550D01*
X239907954Y-130964212D01*
X239866410Y-130913589D01*
X239716121Y-130790252D01*
X239706450Y-130782315D01*
X239523954Y-130684768D01*
X239424943Y-130654733D01*
X239325932Y-130624699D01*
X239120000Y-130604417D01*
X238914067Y-130624699D01*
X238716043Y-130684769D01*
X238533551Y-130782314D01*
X238373589Y-130913589D01*
X238242314Y-131073551D01*
X238144769Y-131256043D01*
X238084699Y-131454067D01*
X238064417Y-131659999D01*
X146689926Y-131659999D01*
X146689925Y-129690000D01*
X248569434Y-129690000D01*
X248589631Y-129869251D01*
X248589631Y-129869253D01*
X248589632Y-129869255D01*
X248649211Y-130039522D01*
X248649212Y-130039523D01*
X248745185Y-130192264D01*
X248872735Y-130319814D01*
X248872737Y-130319815D01*
X248872738Y-130319816D01*
X249025478Y-130415789D01*
X249195745Y-130475368D01*
X249262895Y-130482934D01*
X249330043Y-130490500D01*
X249330046Y-130490500D01*
X249969954Y-130490500D01*
X249969957Y-130490500D01*
X250027511Y-130484014D01*
X250104255Y-130475368D01*
X250274522Y-130415789D01*
X250427262Y-130319816D01*
X250554816Y-130192262D01*
X250650789Y-130039522D01*
X250710368Y-129869255D01*
X250730565Y-129690000D01*
X250710368Y-129510745D01*
X250650789Y-129340478D01*
X250554816Y-129187738D01*
X250554815Y-129187737D01*
X250554814Y-129187735D01*
X250427264Y-129060185D01*
X250364867Y-129020978D01*
X250274522Y-128964211D01*
X250104255Y-128904632D01*
X250104253Y-128904631D01*
X250104251Y-128904631D01*
X249969957Y-128889500D01*
X249969954Y-128889500D01*
X249330046Y-128889500D01*
X249330043Y-128889500D01*
X249195748Y-128904631D01*
X249195745Y-128904631D01*
X249195745Y-128904632D01*
X249025478Y-128964211D01*
X249025476Y-128964211D01*
X249025476Y-128964212D01*
X248872735Y-129060185D01*
X248745185Y-129187735D01*
X248649212Y-129340476D01*
X248589631Y-129510748D01*
X248569434Y-129690000D01*
X146689925Y-129690000D01*
X146689923Y-127690000D01*
X248569434Y-127690000D01*
X248589631Y-127869251D01*
X248589631Y-127869253D01*
X248589632Y-127869255D01*
X248649211Y-128039522D01*
X248649212Y-128039523D01*
X248745185Y-128192264D01*
X248872735Y-128319814D01*
X248872737Y-128319815D01*
X248872738Y-128319816D01*
X249025478Y-128415789D01*
X249195745Y-128475368D01*
X249262895Y-128482934D01*
X249330043Y-128490500D01*
X249330046Y-128490500D01*
X249969954Y-128490500D01*
X249969957Y-128490500D01*
X250027511Y-128484014D01*
X250104255Y-128475368D01*
X250274522Y-128415789D01*
X250427262Y-128319816D01*
X250554816Y-128192262D01*
X250650789Y-128039522D01*
X250710368Y-127869255D01*
X250730565Y-127690000D01*
X250710368Y-127510745D01*
X250650789Y-127340478D01*
X250554816Y-127187738D01*
X250554815Y-127187737D01*
X250554814Y-127187735D01*
X250427264Y-127060185D01*
X250364867Y-127020979D01*
X250274522Y-126964211D01*
X250104255Y-126904632D01*
X250104253Y-126904631D01*
X250104251Y-126904631D01*
X249969957Y-126889500D01*
X249969954Y-126889500D01*
X249330046Y-126889500D01*
X249330043Y-126889500D01*
X249195748Y-126904631D01*
X249195745Y-126904631D01*
X249195745Y-126904632D01*
X249025478Y-126964211D01*
X249025476Y-126964211D01*
X249025476Y-126964212D01*
X248872735Y-127060185D01*
X248745185Y-127187735D01*
X248649212Y-127340476D01*
X248589631Y-127510748D01*
X248569434Y-127690000D01*
X146689923Y-127690000D01*
X146689919Y-121762620D01*
X146689919Y-121369999D01*
X240274749Y-121369999D01*
X240293670Y-121513709D01*
X240349137Y-121647622D01*
X240349138Y-121647624D01*
X240349139Y-121647625D01*
X240437379Y-121762621D01*
X240552375Y-121850861D01*
X240686291Y-121906330D01*
X240830000Y-121925250D01*
X240973709Y-121906330D01*
X241107625Y-121850861D01*
X241222621Y-121762621D01*
X241310861Y-121647625D01*
X241366330Y-121513709D01*
X241385250Y-121370000D01*
X241385250Y-121369999D01*
X245404749Y-121369999D01*
X245423670Y-121513709D01*
X245479137Y-121647622D01*
X245479138Y-121647624D01*
X245479139Y-121647625D01*
X245567379Y-121762621D01*
X245682375Y-121850861D01*
X245816291Y-121906330D01*
X245960000Y-121925250D01*
X246103709Y-121906330D01*
X246237625Y-121850861D01*
X246352621Y-121762621D01*
X246440861Y-121647625D01*
X246496330Y-121513709D01*
X246515250Y-121370000D01*
X246496330Y-121226291D01*
X246440861Y-121092375D01*
X246352621Y-120977379D01*
X246237625Y-120889139D01*
X246237624Y-120889138D01*
X246237622Y-120889137D01*
X246103709Y-120833670D01*
X245960000Y-120814749D01*
X245816290Y-120833670D01*
X245682377Y-120889137D01*
X245567379Y-120977379D01*
X245479137Y-121092377D01*
X245423670Y-121226290D01*
X245404749Y-121369999D01*
X241385250Y-121369999D01*
X241366330Y-121226291D01*
X241310861Y-121092375D01*
X241222621Y-120977379D01*
X241107625Y-120889139D01*
X241107624Y-120889138D01*
X241107622Y-120889137D01*
X240973709Y-120833670D01*
X240830000Y-120814749D01*
X240686290Y-120833670D01*
X240552377Y-120889137D01*
X240437379Y-120977379D01*
X240349137Y-121092377D01*
X240293670Y-121226290D01*
X240274749Y-121369999D01*
X146689919Y-121369999D01*
X146689909Y-107699999D01*
X250524417Y-107699999D01*
X250544699Y-107905932D01*
X250544700Y-107905934D01*
X250604768Y-108103954D01*
X250702315Y-108286450D01*
X250753609Y-108348952D01*
X250833589Y-108446410D01*
X250913570Y-108512047D01*
X250993550Y-108577685D01*
X251176046Y-108675232D01*
X251374066Y-108735300D01*
X251580000Y-108755583D01*
X251785934Y-108735300D01*
X251983954Y-108675232D01*
X252166450Y-108577685D01*
X252326410Y-108446410D01*
X252457685Y-108286450D01*
X252555232Y-108103954D01*
X252615300Y-107905934D01*
X252635583Y-107700000D01*
X252615300Y-107494066D01*
X252555232Y-107296046D01*
X252457685Y-107113550D01*
X252392047Y-107033569D01*
X252326410Y-106953589D01*
X252228952Y-106873609D01*
X252166450Y-106822315D01*
X251983954Y-106724768D01*
X251884943Y-106694733D01*
X251785932Y-106664699D01*
X251580000Y-106644417D01*
X251374067Y-106664699D01*
X251176043Y-106724769D01*
X250993551Y-106822314D01*
X250833589Y-106953589D01*
X250702314Y-107113551D01*
X250604769Y-107296043D01*
X250544699Y-107494067D01*
X250524417Y-107699999D01*
X146689909Y-107699999D01*
X146689907Y-105159999D01*
X250524417Y-105159999D01*
X250544699Y-105365932D01*
X250544700Y-105365934D01*
X250604768Y-105563954D01*
X250702315Y-105746450D01*
X250753608Y-105808952D01*
X250833589Y-105906410D01*
X250913570Y-105972047D01*
X250993550Y-106037685D01*
X251176046Y-106135232D01*
X251374066Y-106195300D01*
X251580000Y-106215583D01*
X251785934Y-106195300D01*
X251983954Y-106135232D01*
X252166450Y-106037685D01*
X252326410Y-105906410D01*
X252457685Y-105746450D01*
X252555232Y-105563954D01*
X252615300Y-105365934D01*
X252635583Y-105160000D01*
X252615300Y-104954066D01*
X252555232Y-104756046D01*
X252457685Y-104573550D01*
X252392047Y-104493569D01*
X252326410Y-104413589D01*
X252228952Y-104333609D01*
X252166450Y-104282315D01*
X251983954Y-104184768D01*
X251884944Y-104154734D01*
X251785932Y-104124699D01*
X251580000Y-104104417D01*
X251374067Y-104124699D01*
X251176043Y-104184769D01*
X250993551Y-104282314D01*
X250833589Y-104413589D01*
X250702314Y-104573551D01*
X250604769Y-104756043D01*
X250544699Y-104954067D01*
X250524417Y-105159999D01*
X146689907Y-105159999D01*
X146689905Y-102620000D01*
X250524417Y-102620000D01*
X250544699Y-102825932D01*
X250544700Y-102825934D01*
X250604768Y-103023954D01*
X250702315Y-103206450D01*
X250753609Y-103268952D01*
X250833589Y-103366410D01*
X250913569Y-103432047D01*
X250993550Y-103497685D01*
X251176046Y-103595232D01*
X251374066Y-103655300D01*
X251580000Y-103675583D01*
X251785934Y-103655300D01*
X251983954Y-103595232D01*
X252166450Y-103497685D01*
X252326410Y-103366410D01*
X252457685Y-103206450D01*
X252555232Y-103023954D01*
X252615300Y-102825934D01*
X252635583Y-102620000D01*
X252615300Y-102414066D01*
X252555232Y-102216046D01*
X252457685Y-102033550D01*
X252392047Y-101953570D01*
X252326410Y-101873589D01*
X252228952Y-101793608D01*
X252166450Y-101742315D01*
X251983954Y-101644768D01*
X251884943Y-101614733D01*
X251785932Y-101584699D01*
X251602497Y-101566632D01*
X251580000Y-101564417D01*
X251579999Y-101564417D01*
X251374067Y-101584699D01*
X251176043Y-101644769D01*
X250993551Y-101742314D01*
X250833589Y-101873589D01*
X250702314Y-102033551D01*
X250604769Y-102216043D01*
X250544699Y-102414067D01*
X250524417Y-102620000D01*
X146689905Y-102620000D01*
X146689903Y-100330000D01*
X250352892Y-100330000D01*
X250400897Y-100509159D01*
X250493332Y-100707385D01*
X250618790Y-100886557D01*
X250773442Y-101041209D01*
X250952614Y-101166667D01*
X251150840Y-101259102D01*
X251329999Y-101307107D01*
X251330000Y-101307108D01*
X251330000Y-100330000D01*
X251830000Y-100330000D01*
X251830000Y-101307107D01*
X252009159Y-101259102D01*
X252207385Y-101166667D01*
X252386557Y-101041209D01*
X252541209Y-100886557D01*
X252666667Y-100707385D01*
X252759102Y-100509159D01*
X252807108Y-100330000D01*
X251830000Y-100330000D01*
X251330000Y-100330000D01*
X250352892Y-100330000D01*
X146689903Y-100330000D01*
X146689903Y-99830000D01*
X250352892Y-99830000D01*
X251330000Y-99830000D01*
X251330000Y-98852892D01*
X251830000Y-98852892D01*
X251830000Y-99830000D01*
X252807108Y-99830000D01*
X252807107Y-99829999D01*
X252759102Y-99650840D01*
X252666667Y-99452615D01*
X252541209Y-99273442D01*
X252386557Y-99118790D01*
X252207385Y-98993332D01*
X252009159Y-98900897D01*
X251830000Y-98852892D01*
X251330000Y-98852892D01*
X251329999Y-98852892D01*
X251150840Y-98900897D01*
X250952615Y-98993332D01*
X250773442Y-99118790D01*
X250618790Y-99273442D01*
X250493332Y-99452615D01*
X250400897Y-99650840D01*
X250352892Y-99829999D01*
X250352892Y-99830000D01*
X146689903Y-99830000D01*
X146689903Y-99180000D01*
X248084749Y-99180000D01*
X248103670Y-99323709D01*
X248159137Y-99457622D01*
X248159138Y-99457624D01*
X248159139Y-99457625D01*
X248247379Y-99572621D01*
X248362375Y-99660861D01*
X248496291Y-99716330D01*
X248640000Y-99735250D01*
X248783709Y-99716330D01*
X248917625Y-99660861D01*
X249032621Y-99572621D01*
X249120861Y-99457625D01*
X249176330Y-99323709D01*
X249195250Y-99180000D01*
X249176330Y-99036291D01*
X249120861Y-98902375D01*
X249032621Y-98787379D01*
X248917625Y-98699139D01*
X248917624Y-98699138D01*
X248917622Y-98699137D01*
X248783709Y-98643670D01*
X248640000Y-98624749D01*
X248496290Y-98643670D01*
X248362377Y-98699137D01*
X248247379Y-98787379D01*
X248159137Y-98902377D01*
X248103670Y-99036290D01*
X248084749Y-99180000D01*
X146689903Y-99180000D01*
X146689902Y-97550000D01*
X227744417Y-97550000D01*
X227764699Y-97755932D01*
X227764700Y-97755934D01*
X227824768Y-97953954D01*
X227922315Y-98136450D01*
X227973609Y-98198952D01*
X228053589Y-98296410D01*
X228133569Y-98362047D01*
X228213550Y-98427685D01*
X228396046Y-98525232D01*
X228594066Y-98585300D01*
X228800000Y-98605583D01*
X229005934Y-98585300D01*
X229203954Y-98525232D01*
X229386450Y-98427685D01*
X229546410Y-98296410D01*
X229677685Y-98136450D01*
X229775232Y-97953954D01*
X229835300Y-97755934D01*
X229855583Y-97550000D01*
X229854598Y-97540000D01*
X250524417Y-97540000D01*
X250544699Y-97745932D01*
X250547733Y-97755934D01*
X250604768Y-97943954D01*
X250702315Y-98126450D01*
X250710522Y-98136450D01*
X250833589Y-98286410D01*
X250913570Y-98352047D01*
X250993550Y-98417685D01*
X251176046Y-98515232D01*
X251374066Y-98575300D01*
X251580000Y-98595583D01*
X251785934Y-98575300D01*
X251983954Y-98515232D01*
X252166450Y-98417685D01*
X252326410Y-98286410D01*
X252457685Y-98126450D01*
X252555232Y-97943954D01*
X252615300Y-97745934D01*
X252635583Y-97540000D01*
X252615300Y-97334066D01*
X252555232Y-97136046D01*
X252457685Y-96953550D01*
X252334617Y-96803590D01*
X252326410Y-96793589D01*
X252228952Y-96713608D01*
X252166450Y-96662315D01*
X251983954Y-96564768D01*
X251884944Y-96534734D01*
X251785932Y-96504699D01*
X251602497Y-96486632D01*
X251580000Y-96484417D01*
X251579999Y-96484417D01*
X251374067Y-96504699D01*
X251176043Y-96564769D01*
X250993551Y-96662314D01*
X250833589Y-96793589D01*
X250702314Y-96953551D01*
X250604769Y-97136043D01*
X250604768Y-97136045D01*
X250604768Y-97136046D01*
X250601735Y-97146046D01*
X250544699Y-97334067D01*
X250524417Y-97540000D01*
X229854598Y-97540000D01*
X229835300Y-97344066D01*
X229775232Y-97146046D01*
X229677685Y-96963550D01*
X229612047Y-96883570D01*
X229546410Y-96803589D01*
X229448952Y-96723609D01*
X229386450Y-96672315D01*
X229203954Y-96574768D01*
X229104944Y-96544734D01*
X229005932Y-96514699D01*
X228822497Y-96496632D01*
X228800000Y-96494417D01*
X228799999Y-96494417D01*
X228594067Y-96514699D01*
X228396043Y-96574769D01*
X228213551Y-96672314D01*
X228053589Y-96803589D01*
X227922314Y-96963551D01*
X227824769Y-97146043D01*
X227764699Y-97344067D01*
X227744417Y-97550000D01*
X146689902Y-97550000D01*
X146689900Y-95009999D01*
X227744417Y-95009999D01*
X227764699Y-95215932D01*
X227764700Y-95215934D01*
X227824768Y-95413954D01*
X227922315Y-95596450D01*
X227973609Y-95658952D01*
X228053589Y-95756410D01*
X228133569Y-95822047D01*
X228213550Y-95887685D01*
X228396046Y-95985232D01*
X228594066Y-96045300D01*
X228800000Y-96065583D01*
X229005934Y-96045300D01*
X229203954Y-95985232D01*
X229386450Y-95887685D01*
X229546410Y-95756410D01*
X229677685Y-95596450D01*
X229775232Y-95413954D01*
X229835300Y-95215934D01*
X229855583Y-95010000D01*
X229854598Y-94999999D01*
X250524417Y-94999999D01*
X250544699Y-95205932D01*
X250547733Y-95215934D01*
X250604768Y-95403954D01*
X250702315Y-95586450D01*
X250710522Y-95596450D01*
X250833589Y-95746410D01*
X250913570Y-95812047D01*
X250993550Y-95877685D01*
X251176046Y-95975232D01*
X251374066Y-96035300D01*
X251580000Y-96055583D01*
X251785934Y-96035300D01*
X251983954Y-95975232D01*
X252166450Y-95877685D01*
X252326410Y-95746410D01*
X252457685Y-95586450D01*
X252555232Y-95403954D01*
X252615300Y-95205934D01*
X252635583Y-95000000D01*
X252615300Y-94794066D01*
X252555232Y-94596046D01*
X252457685Y-94413550D01*
X252334617Y-94263590D01*
X252326410Y-94253589D01*
X252228952Y-94173609D01*
X252166450Y-94122315D01*
X251983954Y-94024768D01*
X251884944Y-93994734D01*
X251785932Y-93964699D01*
X251580000Y-93944417D01*
X251374067Y-93964699D01*
X251176043Y-94024769D01*
X250993551Y-94122314D01*
X250833589Y-94253589D01*
X250702314Y-94413551D01*
X250604769Y-94596043D01*
X250604768Y-94596045D01*
X250604768Y-94596046D01*
X250601735Y-94606046D01*
X250544699Y-94794067D01*
X250524417Y-94999999D01*
X229854598Y-94999999D01*
X229835300Y-94804066D01*
X229775232Y-94606046D01*
X229677685Y-94423550D01*
X229612047Y-94343570D01*
X229546410Y-94263589D01*
X229448952Y-94183608D01*
X229386450Y-94132315D01*
X229203954Y-94034768D01*
X229104943Y-94004733D01*
X229005932Y-93974699D01*
X228800000Y-93954417D01*
X228594067Y-93974699D01*
X228396043Y-94034769D01*
X228213551Y-94132314D01*
X228053589Y-94263589D01*
X227922314Y-94423551D01*
X227824769Y-94606043D01*
X227764699Y-94804067D01*
X227744417Y-95009999D01*
X146689900Y-95009999D01*
X146689898Y-92469999D01*
X227744417Y-92469999D01*
X227764699Y-92675932D01*
X227764700Y-92675934D01*
X227824768Y-92873954D01*
X227922315Y-93056450D01*
X227973608Y-93118952D01*
X228053589Y-93216410D01*
X228133569Y-93282047D01*
X228213550Y-93347685D01*
X228396046Y-93445232D01*
X228594066Y-93505300D01*
X228800000Y-93525583D01*
X229005934Y-93505300D01*
X229203954Y-93445232D01*
X229386450Y-93347685D01*
X229546410Y-93216410D01*
X229677685Y-93056450D01*
X229775232Y-92873954D01*
X229835300Y-92675934D01*
X229855583Y-92470000D01*
X229854598Y-92459999D01*
X250524417Y-92459999D01*
X250544699Y-92665932D01*
X250547733Y-92675934D01*
X250604768Y-92863954D01*
X250702315Y-93046450D01*
X250710522Y-93056450D01*
X250833589Y-93206410D01*
X250913570Y-93272047D01*
X250993550Y-93337685D01*
X251176046Y-93435232D01*
X251374066Y-93495300D01*
X251580000Y-93515583D01*
X251785934Y-93495300D01*
X251983954Y-93435232D01*
X252166450Y-93337685D01*
X252326410Y-93206410D01*
X252457685Y-93046450D01*
X252555232Y-92863954D01*
X252615300Y-92665934D01*
X252635583Y-92460000D01*
X252615300Y-92254066D01*
X252555232Y-92056046D01*
X252457685Y-91873550D01*
X252334617Y-91723590D01*
X252326410Y-91713589D01*
X252228952Y-91633608D01*
X252166450Y-91582315D01*
X251983954Y-91484768D01*
X251884944Y-91454734D01*
X251785932Y-91424699D01*
X251580000Y-91404417D01*
X251374067Y-91424699D01*
X251176043Y-91484769D01*
X250993551Y-91582314D01*
X250833589Y-91713589D01*
X250702314Y-91873551D01*
X250604769Y-92056043D01*
X250604768Y-92056045D01*
X250604768Y-92056046D01*
X250601735Y-92066046D01*
X250544699Y-92254067D01*
X250524417Y-92459999D01*
X229854598Y-92459999D01*
X229835300Y-92264066D01*
X229775232Y-92066046D01*
X229677685Y-91883550D01*
X229612047Y-91803569D01*
X229546410Y-91723589D01*
X229448952Y-91643608D01*
X229386450Y-91592315D01*
X229203954Y-91494768D01*
X229104944Y-91464734D01*
X229005932Y-91434699D01*
X228822497Y-91416632D01*
X228800000Y-91414417D01*
X228799999Y-91414417D01*
X228594067Y-91434699D01*
X228396043Y-91494769D01*
X228213551Y-91592314D01*
X228053589Y-91723589D01*
X227922314Y-91883551D01*
X227824769Y-92066043D01*
X227764699Y-92264067D01*
X227744417Y-92469999D01*
X146689898Y-92469999D01*
X146689896Y-89930000D01*
X227744417Y-89930000D01*
X227764699Y-90135932D01*
X227764700Y-90135934D01*
X227824768Y-90333954D01*
X227922315Y-90516450D01*
X227973609Y-90578952D01*
X228053589Y-90676410D01*
X228133569Y-90742047D01*
X228213550Y-90807685D01*
X228396046Y-90905232D01*
X228594066Y-90965300D01*
X228800000Y-90985583D01*
X229005934Y-90965300D01*
X229203954Y-90905232D01*
X229386450Y-90807685D01*
X229546410Y-90676410D01*
X229677685Y-90516450D01*
X229775232Y-90333954D01*
X229835300Y-90135934D01*
X229855583Y-89930000D01*
X229854598Y-89919999D01*
X250524417Y-89919999D01*
X250544699Y-90125932D01*
X250547733Y-90135934D01*
X250604768Y-90323954D01*
X250702315Y-90506450D01*
X250710522Y-90516450D01*
X250833589Y-90666410D01*
X250913569Y-90732047D01*
X250993550Y-90797685D01*
X251176046Y-90895232D01*
X251374066Y-90955300D01*
X251580000Y-90975583D01*
X251785934Y-90955300D01*
X251983954Y-90895232D01*
X252166450Y-90797685D01*
X252326410Y-90666410D01*
X252457685Y-90506450D01*
X252555232Y-90323954D01*
X252615300Y-90125934D01*
X252635583Y-89920000D01*
X252615300Y-89714066D01*
X252555232Y-89516046D01*
X252457685Y-89333550D01*
X252334617Y-89183590D01*
X252326410Y-89173589D01*
X252228952Y-89093609D01*
X252166450Y-89042315D01*
X251983954Y-88944768D01*
X251884943Y-88914733D01*
X251785932Y-88884699D01*
X251580000Y-88864417D01*
X251374067Y-88884699D01*
X251176043Y-88944769D01*
X250993551Y-89042314D01*
X250833589Y-89173589D01*
X250702314Y-89333551D01*
X250604769Y-89516043D01*
X250604768Y-89516045D01*
X250604768Y-89516046D01*
X250601735Y-89526046D01*
X250544699Y-89714067D01*
X250524417Y-89919999D01*
X229854598Y-89919999D01*
X229835300Y-89724066D01*
X229775232Y-89526046D01*
X229677685Y-89343550D01*
X229612047Y-89263570D01*
X229546410Y-89183589D01*
X229448952Y-89103609D01*
X229386450Y-89052315D01*
X229203954Y-88954768D01*
X229104944Y-88924734D01*
X229005932Y-88894699D01*
X228800000Y-88874417D01*
X228594067Y-88894699D01*
X228396043Y-88954769D01*
X228213551Y-89052314D01*
X228053589Y-89183589D01*
X227922314Y-89343551D01*
X227824769Y-89526043D01*
X227764699Y-89724067D01*
X227744417Y-89930000D01*
X146689896Y-89930000D01*
X146689894Y-87390000D01*
X227744417Y-87390000D01*
X227764699Y-87595932D01*
X227764700Y-87595934D01*
X227824768Y-87793954D01*
X227922315Y-87976450D01*
X227973608Y-88038952D01*
X228053589Y-88136410D01*
X228133569Y-88202047D01*
X228213550Y-88267685D01*
X228396046Y-88365232D01*
X228594066Y-88425300D01*
X228800000Y-88445583D01*
X229005934Y-88425300D01*
X229203954Y-88365232D01*
X229386450Y-88267685D01*
X229546410Y-88136410D01*
X229677685Y-87976450D01*
X229775232Y-87793954D01*
X229835300Y-87595934D01*
X229855583Y-87390000D01*
X229854598Y-87380000D01*
X250524417Y-87380000D01*
X250544699Y-87585932D01*
X250547733Y-87595934D01*
X250604768Y-87783954D01*
X250702315Y-87966450D01*
X250710522Y-87976450D01*
X250833589Y-88126410D01*
X250913570Y-88192047D01*
X250993550Y-88257685D01*
X251176046Y-88355232D01*
X251374066Y-88415300D01*
X251580000Y-88435583D01*
X251785934Y-88415300D01*
X251983954Y-88355232D01*
X252166450Y-88257685D01*
X252326410Y-88126410D01*
X252457685Y-87966450D01*
X252555232Y-87783954D01*
X252615300Y-87585934D01*
X252635583Y-87380000D01*
X252615300Y-87174066D01*
X252555232Y-86976046D01*
X252457685Y-86793550D01*
X252334617Y-86643590D01*
X252326410Y-86633589D01*
X252228952Y-86553609D01*
X252166450Y-86502315D01*
X251983954Y-86404768D01*
X251884943Y-86374733D01*
X251785932Y-86344699D01*
X251580000Y-86324417D01*
X251374067Y-86344699D01*
X251176043Y-86404769D01*
X250993551Y-86502314D01*
X250833589Y-86633589D01*
X250702314Y-86793551D01*
X250604769Y-86976043D01*
X250604768Y-86976045D01*
X250604768Y-86976046D01*
X250601735Y-86986046D01*
X250544699Y-87174067D01*
X250524417Y-87380000D01*
X229854598Y-87380000D01*
X229835300Y-87184066D01*
X229775232Y-86986046D01*
X229677685Y-86803550D01*
X229612047Y-86723570D01*
X229546410Y-86643589D01*
X229448952Y-86563608D01*
X229386450Y-86512315D01*
X229203954Y-86414768D01*
X229104943Y-86384733D01*
X229005932Y-86354699D01*
X228800000Y-86334417D01*
X228594067Y-86354699D01*
X228396043Y-86414769D01*
X228213551Y-86512314D01*
X228053589Y-86643589D01*
X227922314Y-86803551D01*
X227824769Y-86986043D01*
X227764699Y-87184067D01*
X227744417Y-87390000D01*
X146689894Y-87390000D01*
X146689892Y-84850000D01*
X227744417Y-84850000D01*
X227764699Y-85055932D01*
X227764700Y-85055934D01*
X227824768Y-85253954D01*
X227922315Y-85436450D01*
X227973608Y-85498952D01*
X228053589Y-85596410D01*
X228133569Y-85662047D01*
X228213550Y-85727685D01*
X228396046Y-85825232D01*
X228594066Y-85885300D01*
X228800000Y-85905583D01*
X229005934Y-85885300D01*
X229203954Y-85825232D01*
X229386450Y-85727685D01*
X229546410Y-85596410D01*
X229677685Y-85436450D01*
X229775232Y-85253954D01*
X229835300Y-85055934D01*
X229855583Y-84850000D01*
X229854598Y-84840000D01*
X250524417Y-84840000D01*
X250544699Y-85045932D01*
X250547733Y-85055934D01*
X250604768Y-85243954D01*
X250702315Y-85426450D01*
X250710522Y-85436450D01*
X250833589Y-85586410D01*
X250913570Y-85652047D01*
X250993550Y-85717685D01*
X251176046Y-85815232D01*
X251374066Y-85875300D01*
X251580000Y-85895583D01*
X251785934Y-85875300D01*
X251983954Y-85815232D01*
X252166450Y-85717685D01*
X252326410Y-85586410D01*
X252457685Y-85426450D01*
X252555232Y-85243954D01*
X252615300Y-85045934D01*
X252635583Y-84840000D01*
X252615300Y-84634066D01*
X252555232Y-84436046D01*
X252457685Y-84253550D01*
X252334617Y-84103590D01*
X252326410Y-84093589D01*
X252228952Y-84013609D01*
X252166450Y-83962315D01*
X251983954Y-83864768D01*
X251884944Y-83834734D01*
X251785932Y-83804699D01*
X251580000Y-83784417D01*
X251374067Y-83804699D01*
X251176043Y-83864769D01*
X250993551Y-83962314D01*
X250833589Y-84093589D01*
X250702314Y-84253551D01*
X250604769Y-84436043D01*
X250604768Y-84436045D01*
X250604768Y-84436046D01*
X250601735Y-84446046D01*
X250544699Y-84634067D01*
X250524417Y-84840000D01*
X229854598Y-84840000D01*
X229835300Y-84644066D01*
X229775232Y-84446046D01*
X229677685Y-84263550D01*
X229612047Y-84183569D01*
X229546410Y-84103589D01*
X229448952Y-84023608D01*
X229386450Y-83972315D01*
X229203954Y-83874768D01*
X229104943Y-83844733D01*
X229005932Y-83814699D01*
X228800000Y-83794417D01*
X228594067Y-83814699D01*
X228396043Y-83874769D01*
X228213551Y-83972314D01*
X228053589Y-84103589D01*
X227922314Y-84263551D01*
X227824769Y-84446043D01*
X227764699Y-84644067D01*
X227744417Y-84850000D01*
X146689892Y-84850000D01*
X146689890Y-82309999D01*
X227744417Y-82309999D01*
X227764699Y-82515932D01*
X227764700Y-82515934D01*
X227824768Y-82713954D01*
X227922315Y-82896450D01*
X227973608Y-82958952D01*
X228053589Y-83056410D01*
X228133570Y-83122047D01*
X228213550Y-83187685D01*
X228396046Y-83285232D01*
X228594066Y-83345300D01*
X228800000Y-83365583D01*
X229005934Y-83345300D01*
X229203954Y-83285232D01*
X229386450Y-83187685D01*
X229546410Y-83056410D01*
X229677685Y-82896450D01*
X229775232Y-82713954D01*
X229835300Y-82515934D01*
X229855583Y-82310000D01*
X229854598Y-82299999D01*
X250524417Y-82299999D01*
X250544699Y-82505932D01*
X250547733Y-82515934D01*
X250604768Y-82703954D01*
X250702315Y-82886450D01*
X250710522Y-82896450D01*
X250833589Y-83046410D01*
X250913570Y-83112047D01*
X250993550Y-83177685D01*
X251176046Y-83275232D01*
X251374066Y-83335300D01*
X251580000Y-83355583D01*
X251785934Y-83335300D01*
X251983954Y-83275232D01*
X252166450Y-83177685D01*
X252326410Y-83046410D01*
X252457685Y-82886450D01*
X252555232Y-82703954D01*
X252615300Y-82505934D01*
X252635583Y-82300000D01*
X252615300Y-82094066D01*
X252555232Y-81896046D01*
X252457685Y-81713550D01*
X252334617Y-81563590D01*
X252326410Y-81553589D01*
X252228952Y-81473609D01*
X252166450Y-81422315D01*
X251983954Y-81324768D01*
X251884944Y-81294734D01*
X251785932Y-81264699D01*
X251580000Y-81244417D01*
X251374067Y-81264699D01*
X251176043Y-81324769D01*
X250993551Y-81422314D01*
X250833589Y-81553589D01*
X250702314Y-81713551D01*
X250604769Y-81896043D01*
X250604768Y-81896045D01*
X250604768Y-81896046D01*
X250601735Y-81906046D01*
X250544699Y-82094067D01*
X250524417Y-82299999D01*
X229854598Y-82299999D01*
X229835300Y-82104066D01*
X229775232Y-81906046D01*
X229677685Y-81723550D01*
X229612047Y-81643569D01*
X229546410Y-81563589D01*
X229448952Y-81483608D01*
X229386450Y-81432315D01*
X229203954Y-81334768D01*
X229104944Y-81304734D01*
X229005932Y-81274699D01*
X228800000Y-81254417D01*
X228594067Y-81274699D01*
X228396043Y-81334769D01*
X228213551Y-81432314D01*
X228053589Y-81563589D01*
X227922314Y-81723551D01*
X227824769Y-81906043D01*
X227764699Y-82104067D01*
X227744417Y-82309999D01*
X146689890Y-82309999D01*
X146689888Y-79769999D01*
X227744417Y-79769999D01*
X227764699Y-79975932D01*
X227764700Y-79975934D01*
X227824768Y-80173954D01*
X227922315Y-80356450D01*
X227973608Y-80418952D01*
X228053589Y-80516410D01*
X228133569Y-80582047D01*
X228213550Y-80647685D01*
X228396046Y-80745232D01*
X228594066Y-80805300D01*
X228800000Y-80825583D01*
X229005934Y-80805300D01*
X229203954Y-80745232D01*
X229386450Y-80647685D01*
X229546410Y-80516410D01*
X229677685Y-80356450D01*
X229775232Y-80173954D01*
X229835300Y-79975934D01*
X229855583Y-79770000D01*
X229854598Y-79759999D01*
X250524417Y-79759999D01*
X250544699Y-79965932D01*
X250547733Y-79975934D01*
X250604768Y-80163954D01*
X250702315Y-80346450D01*
X250710522Y-80356450D01*
X250833589Y-80506410D01*
X250913569Y-80572047D01*
X250993550Y-80637685D01*
X251176046Y-80735232D01*
X251374066Y-80795300D01*
X251580000Y-80815583D01*
X251785934Y-80795300D01*
X251983954Y-80735232D01*
X252166450Y-80637685D01*
X252326410Y-80506410D01*
X252457685Y-80346450D01*
X252555232Y-80163954D01*
X252615300Y-79965934D01*
X252635583Y-79760000D01*
X252615300Y-79554066D01*
X252555232Y-79356046D01*
X252457685Y-79173550D01*
X252334617Y-79023590D01*
X252326410Y-79013589D01*
X252228952Y-78933608D01*
X252166450Y-78882315D01*
X251983954Y-78784768D01*
X251884944Y-78754734D01*
X251785932Y-78724699D01*
X251580000Y-78704417D01*
X251374067Y-78724699D01*
X251176043Y-78784769D01*
X250993551Y-78882314D01*
X250833589Y-79013589D01*
X250702314Y-79173551D01*
X250604769Y-79356043D01*
X250604768Y-79356045D01*
X250604768Y-79356046D01*
X250601735Y-79366046D01*
X250544699Y-79554067D01*
X250524417Y-79759999D01*
X229854598Y-79759999D01*
X229835300Y-79564066D01*
X229775232Y-79366046D01*
X229677685Y-79183550D01*
X229612047Y-79103569D01*
X229546410Y-79023589D01*
X229448952Y-78943608D01*
X229386450Y-78892315D01*
X229203954Y-78794768D01*
X229104944Y-78764734D01*
X229005932Y-78734699D01*
X228800000Y-78714417D01*
X228594067Y-78734699D01*
X228396043Y-78794769D01*
X228213551Y-78892314D01*
X228053589Y-79023589D01*
X227922314Y-79183551D01*
X227824769Y-79366043D01*
X227764699Y-79564067D01*
X227744417Y-79769999D01*
X146689888Y-79769999D01*
X146689887Y-77919999D01*
X196577249Y-77919999D01*
X196596170Y-78063709D01*
X196651637Y-78197622D01*
X196651638Y-78197624D01*
X196651639Y-78197625D01*
X196739879Y-78312621D01*
X196854875Y-78400861D01*
X196988791Y-78456330D01*
X197132500Y-78475250D01*
X197276209Y-78456330D01*
X197410125Y-78400861D01*
X197525121Y-78312621D01*
X197613361Y-78197625D01*
X197668830Y-78063709D01*
X197687750Y-77920000D01*
X197668830Y-77776291D01*
X197613361Y-77642375D01*
X197525121Y-77527379D01*
X197410125Y-77439139D01*
X197410124Y-77439138D01*
X197410122Y-77439137D01*
X197276209Y-77383670D01*
X197132500Y-77364749D01*
X196988790Y-77383670D01*
X196854877Y-77439137D01*
X196739879Y-77527379D01*
X196651637Y-77642377D01*
X196596170Y-77776290D01*
X196577249Y-77919999D01*
X146689887Y-77919999D01*
X146689887Y-77229999D01*
X227744417Y-77229999D01*
X227764699Y-77435932D01*
X227765672Y-77439139D01*
X227824768Y-77633954D01*
X227922315Y-77816450D01*
X227973609Y-77878952D01*
X228053589Y-77976410D01*
X228133569Y-78042047D01*
X228213550Y-78107685D01*
X228396046Y-78205232D01*
X228594066Y-78265300D01*
X228800000Y-78285583D01*
X229005934Y-78265300D01*
X229203954Y-78205232D01*
X229386450Y-78107685D01*
X229546410Y-77976410D01*
X229677685Y-77816450D01*
X229775232Y-77633954D01*
X229835300Y-77435934D01*
X229855583Y-77230000D01*
X229854598Y-77220000D01*
X250524417Y-77220000D01*
X250544699Y-77425932D01*
X250574734Y-77524944D01*
X250604768Y-77623954D01*
X250702315Y-77806450D01*
X250710522Y-77816450D01*
X250833589Y-77966410D01*
X250913570Y-78032047D01*
X250993550Y-78097685D01*
X251176046Y-78195232D01*
X251374066Y-78255300D01*
X251580000Y-78275583D01*
X251785934Y-78255300D01*
X251983954Y-78195232D01*
X252166450Y-78097685D01*
X252326410Y-77966410D01*
X252457685Y-77806450D01*
X252555232Y-77623954D01*
X252615300Y-77425934D01*
X252635583Y-77220000D01*
X252615300Y-77014066D01*
X252555232Y-76816046D01*
X252457685Y-76633550D01*
X252334617Y-76483590D01*
X252326410Y-76473589D01*
X252228952Y-76393609D01*
X252166450Y-76342315D01*
X252017354Y-76262621D01*
X251983956Y-76244769D01*
X251983955Y-76244768D01*
X251983954Y-76244768D01*
X251884944Y-76214734D01*
X251785932Y-76184699D01*
X251580000Y-76164417D01*
X251374067Y-76184699D01*
X251176043Y-76244769D01*
X250993551Y-76342314D01*
X250833589Y-76473589D01*
X250702314Y-76633551D01*
X250604769Y-76816043D01*
X250604768Y-76816045D01*
X250604768Y-76816046D01*
X250601735Y-76826046D01*
X250544699Y-77014067D01*
X250524417Y-77220000D01*
X229854598Y-77220000D01*
X229835300Y-77024066D01*
X229775232Y-76826046D01*
X229677685Y-76643550D01*
X229612047Y-76563569D01*
X229546410Y-76483589D01*
X229448952Y-76403608D01*
X229386450Y-76352315D01*
X229203954Y-76254768D01*
X229104943Y-76224733D01*
X229005932Y-76194699D01*
X228800000Y-76174417D01*
X228594067Y-76194699D01*
X228396043Y-76254769D01*
X228213551Y-76352314D01*
X228053589Y-76483589D01*
X227922314Y-76643551D01*
X227824769Y-76826043D01*
X227764699Y-77024067D01*
X227744417Y-77229999D01*
X146689887Y-77229999D01*
X146689886Y-75870000D01*
X192277249Y-75870000D01*
X192296170Y-76013709D01*
X192351637Y-76147622D01*
X192351638Y-76147624D01*
X192351639Y-76147625D01*
X192439879Y-76262621D01*
X192554875Y-76350861D01*
X192688791Y-76406330D01*
X192832500Y-76425250D01*
X192976209Y-76406330D01*
X193110125Y-76350861D01*
X193225121Y-76262621D01*
X193313361Y-76147625D01*
X193368830Y-76013709D01*
X193387750Y-75870000D01*
X193368830Y-75726291D01*
X193313361Y-75592375D01*
X193225121Y-75477379D01*
X193110125Y-75389139D01*
X193110124Y-75389138D01*
X193110122Y-75389137D01*
X192976209Y-75333670D01*
X192832500Y-75314749D01*
X192688790Y-75333670D01*
X192554877Y-75389137D01*
X192439879Y-75477379D01*
X192351637Y-75592377D01*
X192296170Y-75726290D01*
X192277249Y-75870000D01*
X146689886Y-75870000D01*
X146689885Y-74690000D01*
X227744417Y-74690000D01*
X227764699Y-74895932D01*
X227764700Y-74895934D01*
X227824768Y-75093954D01*
X227922315Y-75276450D01*
X227953746Y-75314749D01*
X228053589Y-75436410D01*
X228103511Y-75477379D01*
X228213550Y-75567685D01*
X228396046Y-75665232D01*
X228594066Y-75725300D01*
X228800000Y-75745583D01*
X229005934Y-75725300D01*
X229203954Y-75665232D01*
X229386450Y-75567685D01*
X229546410Y-75436410D01*
X229677685Y-75276450D01*
X229775232Y-75093954D01*
X229835300Y-74895934D01*
X229855583Y-74690000D01*
X229854598Y-74680000D01*
X250524417Y-74680000D01*
X250544699Y-74885932D01*
X250547733Y-74895934D01*
X250604768Y-75083954D01*
X250702315Y-75266450D01*
X250710522Y-75276450D01*
X250833589Y-75426410D01*
X250895696Y-75477379D01*
X250993550Y-75557685D01*
X251176046Y-75655232D01*
X251374066Y-75715300D01*
X251580000Y-75735583D01*
X251785934Y-75715300D01*
X251983954Y-75655232D01*
X252166450Y-75557685D01*
X252326410Y-75426410D01*
X252457685Y-75266450D01*
X252555232Y-75083954D01*
X252615300Y-74885934D01*
X252635583Y-74680000D01*
X252615300Y-74474066D01*
X252555232Y-74276046D01*
X252457685Y-74093550D01*
X252334617Y-73943590D01*
X252326410Y-73933589D01*
X252228952Y-73853608D01*
X252166450Y-73802315D01*
X251983954Y-73704768D01*
X251884943Y-73674733D01*
X251785932Y-73644699D01*
X251580000Y-73624417D01*
X251374067Y-73644699D01*
X251176043Y-73704769D01*
X250993551Y-73802314D01*
X250833589Y-73933589D01*
X250702314Y-74093551D01*
X250604769Y-74276043D01*
X250604768Y-74276045D01*
X250604768Y-74276046D01*
X250601735Y-74286046D01*
X250544699Y-74474067D01*
X250524417Y-74680000D01*
X229854598Y-74680000D01*
X229835300Y-74484066D01*
X229775232Y-74286046D01*
X229677685Y-74103550D01*
X229612047Y-74023569D01*
X229546410Y-73943589D01*
X229448952Y-73863609D01*
X229386450Y-73812315D01*
X229203954Y-73714768D01*
X229104944Y-73684734D01*
X229005932Y-73654699D01*
X228800000Y-73634417D01*
X228594067Y-73654699D01*
X228396043Y-73714769D01*
X228213551Y-73812314D01*
X228053589Y-73943589D01*
X227922314Y-74103551D01*
X227824769Y-74286043D01*
X227764699Y-74484067D01*
X227744417Y-74690000D01*
X146689885Y-74690000D01*
X146689883Y-72009749D01*
X185427000Y-72009749D01*
X185438632Y-72068230D01*
X185482947Y-72134552D01*
X185549269Y-72178867D01*
X185607751Y-72190500D01*
X185607752Y-72190500D01*
X187347248Y-72190500D01*
X187347249Y-72190500D01*
X187376489Y-72184683D01*
X187405731Y-72178867D01*
X187448933Y-72150000D01*
X227744417Y-72150000D01*
X227764699Y-72355932D01*
X227764700Y-72355934D01*
X227824768Y-72553954D01*
X227922315Y-72736450D01*
X227973608Y-72798952D01*
X228053589Y-72896410D01*
X228133570Y-72962047D01*
X228213550Y-73027685D01*
X228396046Y-73125232D01*
X228594066Y-73185300D01*
X228800000Y-73205583D01*
X229005934Y-73185300D01*
X229203954Y-73125232D01*
X229386450Y-73027685D01*
X229546410Y-72896410D01*
X229677685Y-72736450D01*
X229775232Y-72553954D01*
X229835300Y-72355934D01*
X229855583Y-72150000D01*
X229854598Y-72140000D01*
X250524417Y-72140000D01*
X250544699Y-72345932D01*
X250547733Y-72355934D01*
X250604768Y-72543954D01*
X250702315Y-72726450D01*
X250710522Y-72736450D01*
X250833589Y-72886410D01*
X250913569Y-72952047D01*
X250993550Y-73017685D01*
X251176046Y-73115232D01*
X251374066Y-73175300D01*
X251580000Y-73195583D01*
X251785934Y-73175300D01*
X251983954Y-73115232D01*
X252166450Y-73017685D01*
X252326410Y-72886410D01*
X252457685Y-72726450D01*
X252555232Y-72543954D01*
X252615300Y-72345934D01*
X252635583Y-72140000D01*
X252615300Y-71934066D01*
X252555232Y-71736046D01*
X252457685Y-71553550D01*
X252334617Y-71403590D01*
X252326410Y-71393589D01*
X252228952Y-71313608D01*
X252166450Y-71262315D01*
X251983954Y-71164768D01*
X251884944Y-71134734D01*
X251785932Y-71104699D01*
X251580000Y-71084417D01*
X251374067Y-71104699D01*
X251176043Y-71164769D01*
X250993551Y-71262314D01*
X250833589Y-71393589D01*
X250702314Y-71553551D01*
X250604769Y-71736043D01*
X250604768Y-71736045D01*
X250604768Y-71736046D01*
X250601735Y-71746046D01*
X250544699Y-71934067D01*
X250524417Y-72140000D01*
X229854598Y-72140000D01*
X229835300Y-71944066D01*
X229775232Y-71746046D01*
X229677685Y-71563550D01*
X229612047Y-71483570D01*
X229546410Y-71403589D01*
X229448952Y-71323609D01*
X229386450Y-71272315D01*
X229203954Y-71174768D01*
X229104944Y-71144734D01*
X229005932Y-71114699D01*
X228800000Y-71094417D01*
X228594067Y-71114699D01*
X228396043Y-71174769D01*
X228213551Y-71272314D01*
X228053589Y-71403589D01*
X227922314Y-71563551D01*
X227824769Y-71746043D01*
X227764699Y-71944067D01*
X227744417Y-72150000D01*
X187448933Y-72150000D01*
X187472052Y-72134552D01*
X187516367Y-72068231D01*
X187528000Y-72009748D01*
X187528000Y-70270252D01*
X187516367Y-70211769D01*
X187499448Y-70186448D01*
X187472052Y-70145447D01*
X187405730Y-70101132D01*
X187347249Y-70089500D01*
X187347248Y-70089500D01*
X185607752Y-70089500D01*
X185607751Y-70089500D01*
X185549269Y-70101132D01*
X185482947Y-70145447D01*
X185438632Y-70211769D01*
X185427000Y-70270251D01*
X185427000Y-72009749D01*
X146689883Y-72009749D01*
X146689881Y-68600000D01*
X185421917Y-68600000D01*
X185442199Y-68805932D01*
X185472234Y-68904944D01*
X185502268Y-69003954D01*
X185599815Y-69186450D01*
X185615897Y-69206046D01*
X185731089Y-69346410D01*
X185801344Y-69404066D01*
X185891050Y-69477685D01*
X186073546Y-69575232D01*
X186271566Y-69635300D01*
X186477500Y-69655583D01*
X186683434Y-69635300D01*
X186766841Y-69609999D01*
X227744417Y-69609999D01*
X227764699Y-69815932D01*
X227764700Y-69815934D01*
X227824768Y-70013954D01*
X227922315Y-70196450D01*
X227934887Y-70211769D01*
X228053589Y-70356410D01*
X228133569Y-70422047D01*
X228213550Y-70487685D01*
X228396046Y-70585232D01*
X228594066Y-70645300D01*
X228800000Y-70665583D01*
X229005934Y-70645300D01*
X229203954Y-70585232D01*
X229386450Y-70487685D01*
X229546410Y-70356410D01*
X229677685Y-70196450D01*
X229775232Y-70013954D01*
X229835300Y-69815934D01*
X229855583Y-69610000D01*
X229854598Y-69599999D01*
X250524417Y-69599999D01*
X250544699Y-69805932D01*
X250547733Y-69815934D01*
X250604768Y-70003954D01*
X250702315Y-70186450D01*
X250710522Y-70196450D01*
X250833589Y-70346410D01*
X250913570Y-70412047D01*
X250993550Y-70477685D01*
X251176046Y-70575232D01*
X251374066Y-70635300D01*
X251580000Y-70655583D01*
X251785934Y-70635300D01*
X251983954Y-70575232D01*
X252166450Y-70477685D01*
X252326410Y-70346410D01*
X252457685Y-70186450D01*
X252555232Y-70003954D01*
X252615300Y-69805934D01*
X252635583Y-69600000D01*
X252615300Y-69394066D01*
X252555232Y-69196046D01*
X252457685Y-69013550D01*
X252334617Y-68863590D01*
X252326410Y-68853589D01*
X252228952Y-68773608D01*
X252166450Y-68722315D01*
X251983954Y-68624768D01*
X251884943Y-68594733D01*
X251785932Y-68564699D01*
X251580000Y-68544417D01*
X251374067Y-68564699D01*
X251176043Y-68624769D01*
X250993551Y-68722314D01*
X250833589Y-68853589D01*
X250702314Y-69013551D01*
X250604769Y-69196043D01*
X250604768Y-69196045D01*
X250604768Y-69196046D01*
X250601735Y-69206046D01*
X250544699Y-69394067D01*
X250524417Y-69599999D01*
X229854598Y-69599999D01*
X229835300Y-69404066D01*
X229775232Y-69206046D01*
X229677685Y-69023550D01*
X229612047Y-68943569D01*
X229546410Y-68863589D01*
X229448952Y-68783609D01*
X229386450Y-68732315D01*
X229203954Y-68634768D01*
X229089338Y-68600000D01*
X229005932Y-68574699D01*
X228800000Y-68554417D01*
X228594067Y-68574699D01*
X228396043Y-68634769D01*
X228213551Y-68732314D01*
X228053589Y-68863589D01*
X227922314Y-69023551D01*
X227824769Y-69206043D01*
X227764699Y-69404067D01*
X227744417Y-69609999D01*
X186766841Y-69609999D01*
X186881454Y-69575232D01*
X187063950Y-69477685D01*
X187223910Y-69346410D01*
X187355185Y-69186450D01*
X187452732Y-69003954D01*
X187512800Y-68805934D01*
X187533083Y-68600000D01*
X187512800Y-68394066D01*
X187452732Y-68196046D01*
X187355185Y-68013550D01*
X187289547Y-67933569D01*
X187223910Y-67853589D01*
X187126452Y-67773608D01*
X187063950Y-67722315D01*
X186881454Y-67624768D01*
X186782443Y-67594733D01*
X186683432Y-67564699D01*
X186477500Y-67544417D01*
X186271567Y-67564699D01*
X186073543Y-67624769D01*
X185891051Y-67722314D01*
X185731089Y-67853589D01*
X185599814Y-68013551D01*
X185502269Y-68196043D01*
X185442199Y-68394067D01*
X185421917Y-68600000D01*
X146689881Y-68600000D01*
X146689880Y-67069999D01*
X227744417Y-67069999D01*
X227764699Y-67275932D01*
X227764700Y-67275934D01*
X227824768Y-67473954D01*
X227922315Y-67656450D01*
X227973609Y-67718952D01*
X228053589Y-67816410D01*
X228098893Y-67853589D01*
X228213550Y-67947685D01*
X228396046Y-68045232D01*
X228594066Y-68105300D01*
X228800000Y-68125583D01*
X229005934Y-68105300D01*
X229203954Y-68045232D01*
X229386450Y-67947685D01*
X229546410Y-67816410D01*
X229677685Y-67656450D01*
X229775232Y-67473954D01*
X229835300Y-67275934D01*
X229855583Y-67070000D01*
X229854598Y-67059999D01*
X250524417Y-67059999D01*
X250544699Y-67265932D01*
X250547733Y-67275934D01*
X250604768Y-67463954D01*
X250702315Y-67646450D01*
X250710522Y-67656450D01*
X250833589Y-67806410D01*
X250891078Y-67853589D01*
X250993550Y-67937685D01*
X251176046Y-68035232D01*
X251374066Y-68095300D01*
X251580000Y-68115583D01*
X251785934Y-68095300D01*
X251983954Y-68035232D01*
X252166450Y-67937685D01*
X252326410Y-67806410D01*
X252457685Y-67646450D01*
X252555232Y-67463954D01*
X252615300Y-67265934D01*
X252635583Y-67060000D01*
X252615300Y-66854066D01*
X252555232Y-66656046D01*
X252457685Y-66473550D01*
X252334617Y-66323590D01*
X252326410Y-66313589D01*
X252228952Y-66233608D01*
X252166450Y-66182315D01*
X251983954Y-66084768D01*
X251884943Y-66054733D01*
X251785932Y-66024699D01*
X251580000Y-66004417D01*
X251374067Y-66024699D01*
X251176043Y-66084769D01*
X250993551Y-66182314D01*
X250833589Y-66313589D01*
X250702314Y-66473551D01*
X250604769Y-66656043D01*
X250604768Y-66656045D01*
X250604768Y-66656046D01*
X250601735Y-66666046D01*
X250544699Y-66854067D01*
X250524417Y-67059999D01*
X229854598Y-67059999D01*
X229835300Y-66864066D01*
X229775232Y-66666046D01*
X229677685Y-66483550D01*
X229612047Y-66403569D01*
X229546410Y-66323589D01*
X229448952Y-66243608D01*
X229386450Y-66192315D01*
X229203954Y-66094768D01*
X229104943Y-66064733D01*
X229005932Y-66034699D01*
X228800000Y-66014417D01*
X228594067Y-66034699D01*
X228396043Y-66094769D01*
X228213551Y-66192314D01*
X228053589Y-66323589D01*
X227922314Y-66483551D01*
X227824769Y-66666043D01*
X227764699Y-66864067D01*
X227744417Y-67069999D01*
X146689880Y-67069999D01*
X146689879Y-65399749D01*
X227749500Y-65399749D01*
X227761132Y-65458230D01*
X227805447Y-65524552D01*
X227871769Y-65568867D01*
X227930251Y-65580500D01*
X227930252Y-65580500D01*
X229669748Y-65580500D01*
X229669749Y-65580500D01*
X229720021Y-65570500D01*
X229728231Y-65568867D01*
X229794552Y-65524552D01*
X229838867Y-65458231D01*
X229850500Y-65399748D01*
X229850500Y-65389749D01*
X250529500Y-65389749D01*
X250541132Y-65448230D01*
X250585447Y-65514552D01*
X250651769Y-65558867D01*
X250710251Y-65570500D01*
X250710252Y-65570500D01*
X252449748Y-65570500D01*
X252449749Y-65570500D01*
X252478989Y-65564683D01*
X252508231Y-65558867D01*
X252574552Y-65514552D01*
X252618867Y-65448231D01*
X252630500Y-65389748D01*
X252630500Y-63650252D01*
X252618867Y-63591769D01*
X252581234Y-63535448D01*
X252574552Y-63525447D01*
X252508230Y-63481132D01*
X252449749Y-63469500D01*
X252449748Y-63469500D01*
X250710252Y-63469500D01*
X250710251Y-63469500D01*
X250651769Y-63481132D01*
X250585447Y-63525447D01*
X250541132Y-63591769D01*
X250529500Y-63650251D01*
X250529500Y-65389749D01*
X229850500Y-65389749D01*
X229850500Y-63660252D01*
X229838867Y-63601769D01*
X229832185Y-63591769D01*
X229794552Y-63535447D01*
X229728230Y-63491132D01*
X229669749Y-63479500D01*
X229669748Y-63479500D01*
X227930252Y-63479500D01*
X227930251Y-63479500D01*
X227871769Y-63491132D01*
X227805447Y-63535447D01*
X227761132Y-63601769D01*
X227749500Y-63660251D01*
X227749500Y-65399749D01*
X146689879Y-65399749D01*
X146689873Y-58370000D01*
X224354749Y-58370000D01*
X224373670Y-58513709D01*
X224429137Y-58647622D01*
X224429138Y-58647624D01*
X224429139Y-58647625D01*
X224517379Y-58762621D01*
X224632375Y-58850861D01*
X224766291Y-58906330D01*
X224891079Y-58922758D01*
X224909999Y-58925250D01*
X224909999Y-58925249D01*
X224910000Y-58925250D01*
X225053709Y-58906330D01*
X225187625Y-58850861D01*
X225302621Y-58762621D01*
X225390861Y-58647625D01*
X225446330Y-58513709D01*
X225465250Y-58370000D01*
X225446330Y-58226291D01*
X225390861Y-58092375D01*
X225302621Y-57977379D01*
X225187625Y-57889139D01*
X225187624Y-57889138D01*
X225187622Y-57889137D01*
X225053709Y-57833670D01*
X224910000Y-57814749D01*
X224766290Y-57833670D01*
X224632377Y-57889137D01*
X224517379Y-57977379D01*
X224429137Y-58092377D01*
X224373670Y-58226290D01*
X224354749Y-58370000D01*
X146689873Y-58370000D01*
X146689872Y-56380000D01*
X214860000Y-56380000D01*
X214860000Y-56455710D01*
X214875419Y-56607339D01*
X214936303Y-56801389D01*
X215035003Y-56979214D01*
X215167479Y-57133531D01*
X215328307Y-57258021D01*
X215510905Y-57347589D01*
X215609999Y-57373246D01*
X215610000Y-57373247D01*
X215610000Y-56380000D01*
X214860000Y-56380000D01*
X146689872Y-56380000D01*
X146689872Y-55880000D01*
X214860000Y-55880000D01*
X215610000Y-55880000D01*
X215610000Y-54886753D01*
X216110000Y-54886753D01*
X216110000Y-57378366D01*
X216111948Y-57378067D01*
X216302663Y-57307435D01*
X216475263Y-57199854D01*
X216622669Y-57059733D01*
X216738855Y-56892805D01*
X216819059Y-56705907D01*
X216839054Y-56608610D01*
X216867550Y-56551515D01*
X216920664Y-56516149D01*
X216984333Y-56511880D01*
X217041694Y-56539837D01*
X217077557Y-56592616D01*
X217134209Y-56754519D01*
X217230185Y-56907264D01*
X217357735Y-57034814D01*
X217357737Y-57034815D01*
X217357738Y-57034816D01*
X217510478Y-57130789D01*
X217680745Y-57190368D01*
X217815046Y-57205500D01*
X217859999Y-57210565D01*
X217859999Y-57210564D01*
X217860000Y-57210565D01*
X218039255Y-57190368D01*
X218209522Y-57130789D01*
X218362262Y-57034816D01*
X218489816Y-56907262D01*
X218551389Y-56809269D01*
X219059500Y-56809269D01*
X219062353Y-56839696D01*
X219107207Y-56967884D01*
X219187849Y-57077150D01*
X219297115Y-57157792D01*
X219297118Y-57157793D01*
X219425301Y-57202646D01*
X219437474Y-57203787D01*
X219455731Y-57205500D01*
X219455734Y-57205500D01*
X220264266Y-57205500D01*
X220264269Y-57205500D01*
X220279482Y-57204073D01*
X220294699Y-57202646D01*
X220422882Y-57157793D01*
X220422882Y-57157792D01*
X220422884Y-57157792D01*
X220532150Y-57077150D01*
X220612792Y-56967884D01*
X220612793Y-56967882D01*
X220657646Y-56839699D01*
X220660500Y-56809266D01*
X220660500Y-55450734D01*
X220657646Y-55420301D01*
X220612793Y-55292118D01*
X220612792Y-55292115D01*
X220532150Y-55182849D01*
X220422884Y-55102207D01*
X220294696Y-55057353D01*
X220264269Y-55054500D01*
X220264266Y-55054500D01*
X219455734Y-55054500D01*
X219455731Y-55054500D01*
X219425303Y-55057353D01*
X219297115Y-55102207D01*
X219187849Y-55182849D01*
X219107207Y-55292115D01*
X219062353Y-55420303D01*
X219059500Y-55450731D01*
X219059500Y-56809269D01*
X218551389Y-56809269D01*
X218585789Y-56754522D01*
X218645368Y-56584255D01*
X218654014Y-56507511D01*
X218660500Y-56449957D01*
X218660500Y-55810043D01*
X218652306Y-55737325D01*
X218645368Y-55675745D01*
X218585789Y-55505478D01*
X218489816Y-55352738D01*
X218489815Y-55352737D01*
X218489814Y-55352735D01*
X218362264Y-55225185D01*
X218294886Y-55182849D01*
X218209522Y-55129211D01*
X218039255Y-55069632D01*
X218039253Y-55069631D01*
X218039251Y-55069631D01*
X217860000Y-55049434D01*
X217680748Y-55069631D01*
X217680745Y-55069631D01*
X217680745Y-55069632D01*
X217510478Y-55129211D01*
X217510476Y-55129211D01*
X217510476Y-55129212D01*
X217357735Y-55225185D01*
X217230185Y-55352735D01*
X217163660Y-55458610D01*
X217134211Y-55505478D01*
X217080611Y-55658655D01*
X217046632Y-55709769D01*
X216992300Y-55738325D01*
X216930929Y-55737325D01*
X216877555Y-55707015D01*
X216845258Y-55654820D01*
X216783696Y-55458610D01*
X216684996Y-55280785D01*
X216552520Y-55126468D01*
X216391692Y-55001978D01*
X216209094Y-54912410D01*
X216110000Y-54886753D01*
X215610000Y-54886753D01*
X215610000Y-54881634D01*
X215608051Y-54881932D01*
X215417336Y-54952564D01*
X215244736Y-55060145D01*
X215097330Y-55200266D01*
X214981144Y-55367194D01*
X214900940Y-55554092D01*
X214860000Y-55753311D01*
X214860000Y-55880000D01*
X146689872Y-55880000D01*
X146689868Y-50735214D01*
X148045214Y-50735214D01*
X148045214Y-53814786D01*
X151967643Y-53814786D01*
X151967643Y-50735214D01*
X148045214Y-50735214D01*
X146689868Y-50735214D01*
X146689868Y-50213867D01*
X146706481Y-50151868D01*
X146751868Y-50106481D01*
X146813867Y-50089868D01*
X188189934Y-50089934D01*
G37*
%TD.AperFunction*%
%TD*%
M02*
