%TF.GenerationSoftware,KiCad,Pcbnew,7.0.1*%
%TF.CreationDate,2023-12-13T20:39:24+01:00*%
%TF.ProjectId,big_pcb,6269675f-7063-4622-9e6b-696361645f70,rev?*%
%TF.SameCoordinates,Original*%
%TF.FileFunction,Paste,Top*%
%TF.FilePolarity,Positive*%
%FSLAX46Y46*%
G04 Gerber Fmt 4.6, Leading zero omitted, Abs format (unit mm)*
G04 Created by KiCad (PCBNEW 7.0.1) date 2023-12-13 20:39:25*
%MOMM*%
%LPD*%
G01*
G04 APERTURE LIST*
G04 Aperture macros list*
%AMRoundRect*
0 Rectangle with rounded corners*
0 $1 Rounding radius*
0 $2 $3 $4 $5 $6 $7 $8 $9 X,Y pos of 4 corners*
0 Add a 4 corners polygon primitive as box body*
4,1,4,$2,$3,$4,$5,$6,$7,$8,$9,$2,$3,0*
0 Add four circle primitives for the rounded corners*
1,1,$1+$1,$2,$3*
1,1,$1+$1,$4,$5*
1,1,$1+$1,$6,$7*
1,1,$1+$1,$8,$9*
0 Add four rect primitives between the rounded corners*
20,1,$1+$1,$2,$3,$4,$5,0*
20,1,$1+$1,$4,$5,$6,$7,0*
20,1,$1+$1,$6,$7,$8,$9,0*
20,1,$1+$1,$8,$9,$2,$3,0*%
G04 Aperture macros list end*
%ADD10RoundRect,0.250000X-0.337500X-0.475000X0.337500X-0.475000X0.337500X0.475000X-0.337500X0.475000X0*%
%ADD11RoundRect,0.250000X-0.350000X-0.450000X0.350000X-0.450000X0.350000X0.450000X-0.350000X0.450000X0*%
%ADD12RoundRect,0.150000X-0.150000X0.587500X-0.150000X-0.587500X0.150000X-0.587500X0.150000X0.587500X0*%
%ADD13RoundRect,0.250000X-0.450000X0.350000X-0.450000X-0.350000X0.450000X-0.350000X0.450000X0.350000X0*%
%ADD14RoundRect,0.250000X0.450000X-0.350000X0.450000X0.350000X-0.450000X0.350000X-0.450000X-0.350000X0*%
%ADD15RoundRect,0.250000X0.475000X-0.337500X0.475000X0.337500X-0.475000X0.337500X-0.475000X-0.337500X0*%
%ADD16RoundRect,0.150000X0.587500X0.150000X-0.587500X0.150000X-0.587500X-0.150000X0.587500X-0.150000X0*%
%ADD17RoundRect,0.250000X0.350000X0.450000X-0.350000X0.450000X-0.350000X-0.450000X0.350000X-0.450000X0*%
%ADD18R,1.475000X0.450000*%
%ADD19RoundRect,0.250000X-0.475000X0.337500X-0.475000X-0.337500X0.475000X-0.337500X0.475000X0.337500X0*%
G04 APERTURE END LIST*
D10*
%TO.C,C2*%
X186412500Y-80290000D03*
X188487500Y-80290000D03*
%TD*%
D11*
%TO.C,R16*%
X186450000Y-85220000D03*
X188450000Y-85220000D03*
%TD*%
D12*
%TO.C,Q2*%
X218270000Y-190020000D03*
X216370000Y-190020000D03*
X217320000Y-191895000D03*
%TD*%
D11*
%TO.C,R11*%
X231640000Y-163520000D03*
X233640000Y-163520000D03*
%TD*%
D13*
%TO.C,R14*%
X190762500Y-75890000D03*
X190762500Y-77890000D03*
%TD*%
D14*
%TO.C,R12*%
X203440000Y-155110000D03*
X203440000Y-153110000D03*
%TD*%
D15*
%TO.C,C1*%
X242770000Y-172047500D03*
X242770000Y-169972500D03*
%TD*%
D16*
%TO.C,Q4*%
X188387500Y-77940000D03*
X188387500Y-76040000D03*
X186512500Y-76990000D03*
%TD*%
D11*
%TO.C,R2*%
X216340000Y-187450000D03*
X218340000Y-187450000D03*
%TD*%
D17*
%TO.C,R18*%
X225720000Y-67040000D03*
X223720000Y-67040000D03*
%TD*%
%TO.C,R1*%
X222680000Y-187460000D03*
X220680000Y-187460000D03*
%TD*%
D18*
%TO.C,U1*%
X204976000Y-151010000D03*
X204976000Y-150360000D03*
X204976000Y-149710000D03*
X204976000Y-149060000D03*
X204976000Y-148410000D03*
X204976000Y-147760000D03*
X204976000Y-147110000D03*
X204976000Y-146460000D03*
X199100000Y-146460000D03*
X199100000Y-147110000D03*
X199100000Y-147760000D03*
X199100000Y-148410000D03*
X199100000Y-149060000D03*
X199100000Y-149710000D03*
X199100000Y-150360000D03*
X199100000Y-151010000D03*
%TD*%
D14*
%TO.C,R3*%
X196770000Y-155380000D03*
X196770000Y-153380000D03*
%TD*%
D12*
%TO.C,Q6*%
X239810000Y-124935000D03*
X237910000Y-124935000D03*
X238860000Y-126810000D03*
%TD*%
D11*
%TO.C,R6*%
X238280000Y-167730000D03*
X240280000Y-167730000D03*
%TD*%
D17*
%TO.C,R13*%
X195002500Y-77870000D03*
X193002500Y-77870000D03*
%TD*%
D14*
%TO.C,R17*%
X224900000Y-62040000D03*
X224900000Y-60040000D03*
%TD*%
D11*
%TO.C,R9*%
X231640000Y-160960000D03*
X233640000Y-160960000D03*
%TD*%
D19*
%TO.C,C3*%
X200960000Y-153102500D03*
X200960000Y-155177500D03*
%TD*%
D12*
%TO.C,Q3*%
X222600000Y-190025000D03*
X220700000Y-190025000D03*
X221650000Y-191900000D03*
%TD*%
%TO.C,Q1*%
X240210000Y-170060000D03*
X238310000Y-170060000D03*
X239260000Y-171935000D03*
%TD*%
D11*
%TO.C,R8*%
X231640000Y-158400000D03*
X233640000Y-158400000D03*
%TD*%
D17*
%TO.C,R20*%
X221300000Y-77610000D03*
X219300000Y-77610000D03*
%TD*%
D11*
%TO.C,R7*%
X231640000Y-155900000D03*
X233640000Y-155900000D03*
%TD*%
D12*
%TO.C,Q5*%
X244540000Y-124890000D03*
X242640000Y-124890000D03*
X243590000Y-126765000D03*
%TD*%
D14*
%TO.C,R10*%
X247700000Y-172010000D03*
X247700000Y-170010000D03*
%TD*%
D13*
%TO.C,R4*%
X240280000Y-163160000D03*
X240280000Y-165160000D03*
%TD*%
D11*
%TO.C,R15*%
X186450000Y-82770000D03*
X188450000Y-82770000D03*
%TD*%
%TO.C,R37*%
X242630000Y-122750000D03*
X244630000Y-122750000D03*
%TD*%
D14*
%TO.C,R5*%
X245250000Y-172010000D03*
X245250000Y-170010000D03*
%TD*%
D11*
%TO.C,R38*%
X237820000Y-122720000D03*
X239820000Y-122720000D03*
%TD*%
D17*
%TO.C,R19*%
X160750000Y-200500000D03*
X158750000Y-200500000D03*
%TD*%
M02*
