%TF.GenerationSoftware,KiCad,Pcbnew,7.0.1*%
%TF.CreationDate,2023-12-13T20:39:25+01:00*%
%TF.ProjectId,big_pcb,6269675f-7063-4622-9e6b-696361645f70,rev?*%
%TF.SameCoordinates,Original*%
%TF.FileFunction,Soldermask,Top*%
%TF.FilePolarity,Negative*%
%FSLAX46Y46*%
G04 Gerber Fmt 4.6, Leading zero omitted, Abs format (unit mm)*
G04 Created by KiCad (PCBNEW 7.0.1) date 2023-12-13 20:39:25*
%MOMM*%
%LPD*%
G01*
G04 APERTURE LIST*
G04 Aperture macros list*
%AMRoundRect*
0 Rectangle with rounded corners*
0 $1 Rounding radius*
0 $2 $3 $4 $5 $6 $7 $8 $9 X,Y pos of 4 corners*
0 Add a 4 corners polygon primitive as box body*
4,1,4,$2,$3,$4,$5,$6,$7,$8,$9,$2,$3,0*
0 Add four circle primitives for the rounded corners*
1,1,$1+$1,$2,$3*
1,1,$1+$1,$4,$5*
1,1,$1+$1,$6,$7*
1,1,$1+$1,$8,$9*
0 Add four rect primitives between the rounded corners*
20,1,$1+$1,$2,$3,$4,$5,0*
20,1,$1+$1,$4,$5,$6,$7,0*
20,1,$1+$1,$6,$7,$8,$9,0*
20,1,$1+$1,$8,$9,$2,$3,0*%
G04 Aperture macros list end*
%ADD10RoundRect,0.250000X-0.337500X-0.475000X0.337500X-0.475000X0.337500X0.475000X-0.337500X0.475000X0*%
%ADD11RoundRect,0.250000X-0.350000X-0.450000X0.350000X-0.450000X0.350000X0.450000X-0.350000X0.450000X0*%
%ADD12RoundRect,0.150000X-0.150000X0.587500X-0.150000X-0.587500X0.150000X-0.587500X0.150000X0.587500X0*%
%ADD13RoundRect,0.250000X-0.450000X0.350000X-0.450000X-0.350000X0.450000X-0.350000X0.450000X0.350000X0*%
%ADD14RoundRect,0.250000X0.450000X-0.350000X0.450000X0.350000X-0.450000X0.350000X-0.450000X-0.350000X0*%
%ADD15R,1.700000X1.700000*%
%ADD16O,1.700000X1.700000*%
%ADD17RoundRect,0.250000X0.350000X0.625000X-0.350000X0.625000X-0.350000X-0.625000X0.350000X-0.625000X0*%
%ADD18O,1.200000X1.750000*%
%ADD19RoundRect,0.250000X0.475000X-0.337500X0.475000X0.337500X-0.475000X0.337500X-0.475000X-0.337500X0*%
%ADD20RoundRect,0.150000X0.587500X0.150000X-0.587500X0.150000X-0.587500X-0.150000X0.587500X-0.150000X0*%
%ADD21C,7.000000*%
%ADD22RoundRect,0.250000X0.350000X0.450000X-0.350000X0.450000X-0.350000X-0.450000X0.350000X-0.450000X0*%
%ADD23R,1.500000X1.500000*%
%ADD24R,1.475000X0.450000*%
%ADD25RoundRect,0.250000X0.625000X-0.350000X0.625000X0.350000X-0.625000X0.350000X-0.625000X-0.350000X0*%
%ADD26O,1.750000X1.200000*%
%ADD27RoundRect,0.250000X-0.350000X-0.625000X0.350000X-0.625000X0.350000X0.625000X-0.350000X0.625000X0*%
%ADD28RoundRect,0.250000X-0.475000X0.337500X-0.475000X-0.337500X0.475000X-0.337500X0.475000X0.337500X0*%
%ADD29C,2.500000*%
G04 APERTURE END LIST*
D10*
%TO.C,C2*%
X186412500Y-80290000D03*
X188487500Y-80290000D03*
%TD*%
D11*
%TO.C,R16*%
X186450000Y-85220000D03*
X188450000Y-85220000D03*
%TD*%
D12*
%TO.C,Q2*%
X218270000Y-190020000D03*
X216370000Y-190020000D03*
X217320000Y-191895000D03*
%TD*%
D11*
%TO.C,R11*%
X231640000Y-163520000D03*
X233640000Y-163520000D03*
%TD*%
D13*
%TO.C,R14*%
X190762500Y-75890000D03*
X190762500Y-77890000D03*
%TD*%
D14*
%TO.C,R12*%
X203440000Y-155110000D03*
X203440000Y-153110000D03*
%TD*%
D15*
%TO.C,JP2*%
X224120000Y-173900000D03*
D16*
X224120000Y-171360000D03*
%TD*%
D17*
%TO.C,J10*%
X219860000Y-56130000D03*
D18*
X217860000Y-56130000D03*
X215860000Y-56130000D03*
%TD*%
D19*
%TO.C,C1*%
X242770000Y-172047500D03*
X242770000Y-169972500D03*
%TD*%
D20*
%TO.C,Q4*%
X188387500Y-77940000D03*
X188387500Y-76040000D03*
X186512500Y-76990000D03*
%TD*%
D21*
%TO.C,H2*%
X201840000Y-230790000D03*
%TD*%
%TO.C,H4*%
X201840000Y-172790000D03*
%TD*%
D11*
%TO.C,R2*%
X216340000Y-187450000D03*
X218340000Y-187450000D03*
%TD*%
D22*
%TO.C,R18*%
X225720000Y-67040000D03*
X223720000Y-67040000D03*
%TD*%
D23*
%TO.C,TP2*%
X160370000Y-207670000D03*
%TD*%
D22*
%TO.C,R1*%
X222680000Y-187460000D03*
X220680000Y-187460000D03*
%TD*%
D24*
%TO.C,U1*%
X204976000Y-151010000D03*
X204976000Y-150360000D03*
X204976000Y-149710000D03*
X204976000Y-149060000D03*
X204976000Y-148410000D03*
X204976000Y-147760000D03*
X204976000Y-147110000D03*
X204976000Y-146460000D03*
X199100000Y-146460000D03*
X199100000Y-147110000D03*
X199100000Y-147760000D03*
X199100000Y-148410000D03*
X199100000Y-149060000D03*
X199100000Y-149710000D03*
X199100000Y-150360000D03*
X199100000Y-151010000D03*
%TD*%
D15*
%TO.C,JP3*%
X186477500Y-71140000D03*
D16*
X186477500Y-68600000D03*
%TD*%
D15*
%TO.C,J4*%
X228710000Y-148250000D03*
D16*
X228710000Y-150790000D03*
X228710000Y-153330000D03*
X228710000Y-155870000D03*
X228710000Y-158410000D03*
X228710000Y-160950000D03*
X228710000Y-163490000D03*
X228710000Y-166030000D03*
%TD*%
D15*
%TO.C,J1*%
X228800000Y-64530000D03*
D16*
X228800000Y-67070000D03*
X228800000Y-69610000D03*
X228800000Y-72150000D03*
X228800000Y-74690000D03*
X228800000Y-77230000D03*
X228800000Y-79770000D03*
X228800000Y-82310000D03*
X228800000Y-84850000D03*
X228800000Y-87390000D03*
X228800000Y-89930000D03*
X228800000Y-92470000D03*
X228800000Y-95010000D03*
X228800000Y-97550000D03*
%TD*%
D25*
%TO.C,J6*%
X249650000Y-133690000D03*
D26*
X249650000Y-131690000D03*
X249650000Y-129690000D03*
X249650000Y-127690000D03*
%TD*%
D14*
%TO.C,R3*%
X196770000Y-155380000D03*
X196770000Y-153380000D03*
%TD*%
D12*
%TO.C,Q6*%
X239810000Y-124935000D03*
X237910000Y-124935000D03*
X238860000Y-126810000D03*
%TD*%
D27*
%TO.C,J9*%
X237960000Y-231000000D03*
D18*
X239960000Y-231000000D03*
X241960000Y-231000000D03*
%TD*%
D11*
%TO.C,R6*%
X238280000Y-167730000D03*
X240280000Y-167730000D03*
%TD*%
D22*
%TO.C,R13*%
X195002500Y-77870000D03*
X193002500Y-77870000D03*
%TD*%
D14*
%TO.C,R17*%
X224900000Y-62040000D03*
X224900000Y-60040000D03*
%TD*%
D11*
%TO.C,R9*%
X231640000Y-160960000D03*
X233640000Y-160960000D03*
%TD*%
D28*
%TO.C,C3*%
X200960000Y-153102500D03*
X200960000Y-155177500D03*
%TD*%
D12*
%TO.C,Q3*%
X222600000Y-190025000D03*
X220700000Y-190025000D03*
X221650000Y-191900000D03*
%TD*%
%TO.C,Q1*%
X240210000Y-170060000D03*
X238310000Y-170060000D03*
X239260000Y-171935000D03*
%TD*%
D11*
%TO.C,R8*%
X231640000Y-158400000D03*
X233640000Y-158400000D03*
%TD*%
D23*
%TO.C,TP1*%
X159180000Y-225930000D03*
%TD*%
D15*
%TO.C,JP8*%
X241660000Y-131660000D03*
D16*
X239120000Y-131660000D03*
%TD*%
D22*
%TO.C,R20*%
X221300000Y-77610000D03*
X219300000Y-77610000D03*
%TD*%
D11*
%TO.C,R7*%
X231640000Y-155900000D03*
X233640000Y-155900000D03*
%TD*%
D15*
%TO.C,J2*%
X251580000Y-64520000D03*
D16*
X251580000Y-67060000D03*
X251580000Y-69600000D03*
X251580000Y-72140000D03*
X251580000Y-74680000D03*
X251580000Y-77220000D03*
X251580000Y-79760000D03*
X251580000Y-82300000D03*
X251580000Y-84840000D03*
X251580000Y-87380000D03*
X251580000Y-89920000D03*
X251580000Y-92460000D03*
X251580000Y-95000000D03*
X251580000Y-97540000D03*
X251580000Y-100080000D03*
X251580000Y-102620000D03*
X251580000Y-105160000D03*
X251580000Y-107700000D03*
%TD*%
D12*
%TO.C,Q5*%
X244540000Y-124890000D03*
X242640000Y-124890000D03*
X243590000Y-126765000D03*
%TD*%
D27*
%TO.C,J8*%
X226560000Y-231000000D03*
D18*
X228560000Y-231000000D03*
X230560000Y-231000000D03*
%TD*%
D14*
%TO.C,R10*%
X247700000Y-172010000D03*
X247700000Y-170010000D03*
%TD*%
D13*
%TO.C,R4*%
X240280000Y-163160000D03*
X240280000Y-165160000D03*
%TD*%
D11*
%TO.C,R15*%
X186450000Y-82770000D03*
X188450000Y-82770000D03*
%TD*%
D15*
%TO.C,JP1*%
X217350000Y-196840000D03*
D16*
X217350000Y-199380000D03*
%TD*%
D11*
%TO.C,R37*%
X242630000Y-122750000D03*
X244630000Y-122750000D03*
%TD*%
D29*
%TO.C,TP4*%
X249680000Y-139220000D03*
%TD*%
D14*
%TO.C,R5*%
X245250000Y-172010000D03*
X245250000Y-170010000D03*
%TD*%
D11*
%TO.C,R38*%
X237820000Y-122720000D03*
X239820000Y-122720000D03*
%TD*%
D15*
%TO.C,J5*%
X251570000Y-148250000D03*
D16*
X251570000Y-150790000D03*
X251570000Y-153330000D03*
X251570000Y-155870000D03*
X251570000Y-158410000D03*
X251570000Y-160950000D03*
X251570000Y-163490000D03*
X251570000Y-166030000D03*
%TD*%
D22*
%TO.C,R19*%
X160750000Y-200500000D03*
X158750000Y-200500000D03*
%TD*%
D15*
%TO.C,J3*%
X156140000Y-225890000D03*
D16*
X148520000Y-225890000D03*
X156140000Y-223350000D03*
X148520000Y-223350000D03*
X156140000Y-220810000D03*
X148520000Y-220810000D03*
X156140000Y-218270000D03*
X148520000Y-218270000D03*
X156140000Y-215730000D03*
X148520000Y-215730000D03*
X156140000Y-213190000D03*
X148520000Y-213190000D03*
X156140000Y-210650000D03*
X148520000Y-210650000D03*
X156140000Y-208110000D03*
X148520000Y-208110000D03*
X156140000Y-205570000D03*
X148520000Y-205570000D03*
X156140000Y-203030000D03*
X148520000Y-203030000D03*
X156140000Y-200490000D03*
X148520000Y-200490000D03*
X156140000Y-197950000D03*
X148520000Y-197950000D03*
X156140000Y-195410000D03*
X148520000Y-195410000D03*
X156140000Y-192870000D03*
X148520000Y-192870000D03*
X156140000Y-190330000D03*
X148520000Y-190330000D03*
X156140000Y-187790000D03*
X148520000Y-187790000D03*
X156140000Y-185250000D03*
X148520000Y-185250000D03*
X156140000Y-182710000D03*
X148520000Y-182710000D03*
X156140000Y-180170000D03*
X148520000Y-180170000D03*
X156140000Y-177630000D03*
X148520000Y-177630000D03*
%TD*%
M02*
