%TF.GenerationSoftware,KiCad,Pcbnew,7.0.1*%
%TF.CreationDate,2023-12-13T20:39:25+01:00*%
%TF.ProjectId,big_pcb,6269675f-7063-4622-9e6b-696361645f70,rev?*%
%TF.SameCoordinates,Original*%
%TF.FileFunction,Legend,Bot*%
%TF.FilePolarity,Positive*%
%FSLAX46Y46*%
G04 Gerber Fmt 4.6, Leading zero omitted, Abs format (unit mm)*
G04 Created by KiCad (PCBNEW 7.0.1) date 2023-12-13 20:39:25*
%MOMM*%
%LPD*%
G01*
G04 APERTURE LIST*
%ADD10C,0.150000*%
%ADD11C,0.120000*%
G04 APERTURE END LIST*
D10*
%TO.C,R34*%
X243542857Y-227392619D02*
X243876190Y-226916428D01*
X244114285Y-227392619D02*
X244114285Y-226392619D01*
X244114285Y-226392619D02*
X243733333Y-226392619D01*
X243733333Y-226392619D02*
X243638095Y-226440238D01*
X243638095Y-226440238D02*
X243590476Y-226487857D01*
X243590476Y-226487857D02*
X243542857Y-226583095D01*
X243542857Y-226583095D02*
X243542857Y-226725952D01*
X243542857Y-226725952D02*
X243590476Y-226821190D01*
X243590476Y-226821190D02*
X243638095Y-226868809D01*
X243638095Y-226868809D02*
X243733333Y-226916428D01*
X243733333Y-226916428D02*
X244114285Y-226916428D01*
X243209523Y-226392619D02*
X242590476Y-226392619D01*
X242590476Y-226392619D02*
X242923809Y-226773571D01*
X242923809Y-226773571D02*
X242780952Y-226773571D01*
X242780952Y-226773571D02*
X242685714Y-226821190D01*
X242685714Y-226821190D02*
X242638095Y-226868809D01*
X242638095Y-226868809D02*
X242590476Y-226964047D01*
X242590476Y-226964047D02*
X242590476Y-227202142D01*
X242590476Y-227202142D02*
X242638095Y-227297380D01*
X242638095Y-227297380D02*
X242685714Y-227345000D01*
X242685714Y-227345000D02*
X242780952Y-227392619D01*
X242780952Y-227392619D02*
X243066666Y-227392619D01*
X243066666Y-227392619D02*
X243161904Y-227345000D01*
X243161904Y-227345000D02*
X243209523Y-227297380D01*
X241733333Y-226725952D02*
X241733333Y-227392619D01*
X241971428Y-226345000D02*
X242209523Y-227059285D01*
X242209523Y-227059285D02*
X241590476Y-227059285D01*
%TO.C,R21*%
X228022857Y-227372619D02*
X228356190Y-226896428D01*
X228594285Y-227372619D02*
X228594285Y-226372619D01*
X228594285Y-226372619D02*
X228213333Y-226372619D01*
X228213333Y-226372619D02*
X228118095Y-226420238D01*
X228118095Y-226420238D02*
X228070476Y-226467857D01*
X228070476Y-226467857D02*
X228022857Y-226563095D01*
X228022857Y-226563095D02*
X228022857Y-226705952D01*
X228022857Y-226705952D02*
X228070476Y-226801190D01*
X228070476Y-226801190D02*
X228118095Y-226848809D01*
X228118095Y-226848809D02*
X228213333Y-226896428D01*
X228213333Y-226896428D02*
X228594285Y-226896428D01*
X227641904Y-226467857D02*
X227594285Y-226420238D01*
X227594285Y-226420238D02*
X227499047Y-226372619D01*
X227499047Y-226372619D02*
X227260952Y-226372619D01*
X227260952Y-226372619D02*
X227165714Y-226420238D01*
X227165714Y-226420238D02*
X227118095Y-226467857D01*
X227118095Y-226467857D02*
X227070476Y-226563095D01*
X227070476Y-226563095D02*
X227070476Y-226658333D01*
X227070476Y-226658333D02*
X227118095Y-226801190D01*
X227118095Y-226801190D02*
X227689523Y-227372619D01*
X227689523Y-227372619D02*
X227070476Y-227372619D01*
X226118095Y-227372619D02*
X226689523Y-227372619D01*
X226403809Y-227372619D02*
X226403809Y-226372619D01*
X226403809Y-226372619D02*
X226499047Y-226515476D01*
X226499047Y-226515476D02*
X226594285Y-226610714D01*
X226594285Y-226610714D02*
X226689523Y-226658333D01*
%TO.C,J3*%
X152663333Y-228122619D02*
X152663333Y-228836904D01*
X152663333Y-228836904D02*
X152710952Y-228979761D01*
X152710952Y-228979761D02*
X152806190Y-229075000D01*
X152806190Y-229075000D02*
X152949047Y-229122619D01*
X152949047Y-229122619D02*
X153044285Y-229122619D01*
X152282380Y-228122619D02*
X151663333Y-228122619D01*
X151663333Y-228122619D02*
X151996666Y-228503571D01*
X151996666Y-228503571D02*
X151853809Y-228503571D01*
X151853809Y-228503571D02*
X151758571Y-228551190D01*
X151758571Y-228551190D02*
X151710952Y-228598809D01*
X151710952Y-228598809D02*
X151663333Y-228694047D01*
X151663333Y-228694047D02*
X151663333Y-228932142D01*
X151663333Y-228932142D02*
X151710952Y-229027380D01*
X151710952Y-229027380D02*
X151758571Y-229075000D01*
X151758571Y-229075000D02*
X151853809Y-229122619D01*
X151853809Y-229122619D02*
X152139523Y-229122619D01*
X152139523Y-229122619D02*
X152234761Y-229075000D01*
X152234761Y-229075000D02*
X152282380Y-229027380D01*
%TO.C,JP5*%
X241793333Y-222502619D02*
X241793333Y-223216904D01*
X241793333Y-223216904D02*
X241840952Y-223359761D01*
X241840952Y-223359761D02*
X241936190Y-223455000D01*
X241936190Y-223455000D02*
X242079047Y-223502619D01*
X242079047Y-223502619D02*
X242174285Y-223502619D01*
X241317142Y-223502619D02*
X241317142Y-222502619D01*
X241317142Y-222502619D02*
X240936190Y-222502619D01*
X240936190Y-222502619D02*
X240840952Y-222550238D01*
X240840952Y-222550238D02*
X240793333Y-222597857D01*
X240793333Y-222597857D02*
X240745714Y-222693095D01*
X240745714Y-222693095D02*
X240745714Y-222835952D01*
X240745714Y-222835952D02*
X240793333Y-222931190D01*
X240793333Y-222931190D02*
X240840952Y-222978809D01*
X240840952Y-222978809D02*
X240936190Y-223026428D01*
X240936190Y-223026428D02*
X241317142Y-223026428D01*
X239840952Y-222502619D02*
X240317142Y-222502619D01*
X240317142Y-222502619D02*
X240364761Y-222978809D01*
X240364761Y-222978809D02*
X240317142Y-222931190D01*
X240317142Y-222931190D02*
X240221904Y-222883571D01*
X240221904Y-222883571D02*
X239983809Y-222883571D01*
X239983809Y-222883571D02*
X239888571Y-222931190D01*
X239888571Y-222931190D02*
X239840952Y-222978809D01*
X239840952Y-222978809D02*
X239793333Y-223074047D01*
X239793333Y-223074047D02*
X239793333Y-223312142D01*
X239793333Y-223312142D02*
X239840952Y-223407380D01*
X239840952Y-223407380D02*
X239888571Y-223455000D01*
X239888571Y-223455000D02*
X239983809Y-223502619D01*
X239983809Y-223502619D02*
X240221904Y-223502619D01*
X240221904Y-223502619D02*
X240317142Y-223455000D01*
X240317142Y-223455000D02*
X240364761Y-223407380D01*
X243264285Y-225552619D02*
X243835713Y-225552619D01*
X243549999Y-225552619D02*
X243549999Y-224552619D01*
X243549999Y-224552619D02*
X243645237Y-224695476D01*
X243645237Y-224695476D02*
X243740475Y-224790714D01*
X243740475Y-224790714D02*
X243835713Y-224838333D01*
X238683332Y-224552619D02*
X238064285Y-224552619D01*
X238064285Y-224552619D02*
X238397618Y-224933571D01*
X238397618Y-224933571D02*
X238254761Y-224933571D01*
X238254761Y-224933571D02*
X238159523Y-224981190D01*
X238159523Y-224981190D02*
X238111904Y-225028809D01*
X238111904Y-225028809D02*
X238064285Y-225124047D01*
X238064285Y-225124047D02*
X238064285Y-225362142D01*
X238064285Y-225362142D02*
X238111904Y-225457380D01*
X238111904Y-225457380D02*
X238159523Y-225505000D01*
X238159523Y-225505000D02*
X238254761Y-225552619D01*
X238254761Y-225552619D02*
X238540475Y-225552619D01*
X238540475Y-225552619D02*
X238635713Y-225505000D01*
X238635713Y-225505000D02*
X238683332Y-225457380D01*
%TO.C,JP6*%
X217693333Y-59482619D02*
X217693333Y-60196904D01*
X217693333Y-60196904D02*
X217740952Y-60339761D01*
X217740952Y-60339761D02*
X217836190Y-60435000D01*
X217836190Y-60435000D02*
X217979047Y-60482619D01*
X217979047Y-60482619D02*
X218074285Y-60482619D01*
X217217142Y-60482619D02*
X217217142Y-59482619D01*
X217217142Y-59482619D02*
X216836190Y-59482619D01*
X216836190Y-59482619D02*
X216740952Y-59530238D01*
X216740952Y-59530238D02*
X216693333Y-59577857D01*
X216693333Y-59577857D02*
X216645714Y-59673095D01*
X216645714Y-59673095D02*
X216645714Y-59815952D01*
X216645714Y-59815952D02*
X216693333Y-59911190D01*
X216693333Y-59911190D02*
X216740952Y-59958809D01*
X216740952Y-59958809D02*
X216836190Y-60006428D01*
X216836190Y-60006428D02*
X217217142Y-60006428D01*
X215788571Y-59482619D02*
X215979047Y-59482619D01*
X215979047Y-59482619D02*
X216074285Y-59530238D01*
X216074285Y-59530238D02*
X216121904Y-59577857D01*
X216121904Y-59577857D02*
X216217142Y-59720714D01*
X216217142Y-59720714D02*
X216264761Y-59911190D01*
X216264761Y-59911190D02*
X216264761Y-60292142D01*
X216264761Y-60292142D02*
X216217142Y-60387380D01*
X216217142Y-60387380D02*
X216169523Y-60435000D01*
X216169523Y-60435000D02*
X216074285Y-60482619D01*
X216074285Y-60482619D02*
X215883809Y-60482619D01*
X215883809Y-60482619D02*
X215788571Y-60435000D01*
X215788571Y-60435000D02*
X215740952Y-60387380D01*
X215740952Y-60387380D02*
X215693333Y-60292142D01*
X215693333Y-60292142D02*
X215693333Y-60054047D01*
X215693333Y-60054047D02*
X215740952Y-59958809D01*
X215740952Y-59958809D02*
X215788571Y-59911190D01*
X215788571Y-59911190D02*
X215883809Y-59863571D01*
X215883809Y-59863571D02*
X216074285Y-59863571D01*
X216074285Y-59863571D02*
X216169523Y-59911190D01*
X216169523Y-59911190D02*
X216217142Y-59958809D01*
X216217142Y-59958809D02*
X216264761Y-60054047D01*
X214593332Y-61282619D02*
X213974285Y-61282619D01*
X213974285Y-61282619D02*
X214307618Y-61663571D01*
X214307618Y-61663571D02*
X214164761Y-61663571D01*
X214164761Y-61663571D02*
X214069523Y-61711190D01*
X214069523Y-61711190D02*
X214021904Y-61758809D01*
X214021904Y-61758809D02*
X213974285Y-61854047D01*
X213974285Y-61854047D02*
X213974285Y-62092142D01*
X213974285Y-62092142D02*
X214021904Y-62187380D01*
X214021904Y-62187380D02*
X214069523Y-62235000D01*
X214069523Y-62235000D02*
X214164761Y-62282619D01*
X214164761Y-62282619D02*
X214450475Y-62282619D01*
X214450475Y-62282619D02*
X214545713Y-62235000D01*
X214545713Y-62235000D02*
X214593332Y-62187380D01*
X219174285Y-62282619D02*
X219745713Y-62282619D01*
X219459999Y-62282619D02*
X219459999Y-61282619D01*
X219459999Y-61282619D02*
X219555237Y-61425476D01*
X219555237Y-61425476D02*
X219650475Y-61520714D01*
X219650475Y-61520714D02*
X219745713Y-61568333D01*
%TO.C,R25*%
X219642857Y-52132619D02*
X219976190Y-51656428D01*
X220214285Y-52132619D02*
X220214285Y-51132619D01*
X220214285Y-51132619D02*
X219833333Y-51132619D01*
X219833333Y-51132619D02*
X219738095Y-51180238D01*
X219738095Y-51180238D02*
X219690476Y-51227857D01*
X219690476Y-51227857D02*
X219642857Y-51323095D01*
X219642857Y-51323095D02*
X219642857Y-51465952D01*
X219642857Y-51465952D02*
X219690476Y-51561190D01*
X219690476Y-51561190D02*
X219738095Y-51608809D01*
X219738095Y-51608809D02*
X219833333Y-51656428D01*
X219833333Y-51656428D02*
X220214285Y-51656428D01*
X219261904Y-51227857D02*
X219214285Y-51180238D01*
X219214285Y-51180238D02*
X219119047Y-51132619D01*
X219119047Y-51132619D02*
X218880952Y-51132619D01*
X218880952Y-51132619D02*
X218785714Y-51180238D01*
X218785714Y-51180238D02*
X218738095Y-51227857D01*
X218738095Y-51227857D02*
X218690476Y-51323095D01*
X218690476Y-51323095D02*
X218690476Y-51418333D01*
X218690476Y-51418333D02*
X218738095Y-51561190D01*
X218738095Y-51561190D02*
X219309523Y-52132619D01*
X219309523Y-52132619D02*
X218690476Y-52132619D01*
X217785714Y-51132619D02*
X218261904Y-51132619D01*
X218261904Y-51132619D02*
X218309523Y-51608809D01*
X218309523Y-51608809D02*
X218261904Y-51561190D01*
X218261904Y-51561190D02*
X218166666Y-51513571D01*
X218166666Y-51513571D02*
X217928571Y-51513571D01*
X217928571Y-51513571D02*
X217833333Y-51561190D01*
X217833333Y-51561190D02*
X217785714Y-51608809D01*
X217785714Y-51608809D02*
X217738095Y-51704047D01*
X217738095Y-51704047D02*
X217738095Y-51942142D01*
X217738095Y-51942142D02*
X217785714Y-52037380D01*
X217785714Y-52037380D02*
X217833333Y-52085000D01*
X217833333Y-52085000D02*
X217928571Y-52132619D01*
X217928571Y-52132619D02*
X218166666Y-52132619D01*
X218166666Y-52132619D02*
X218261904Y-52085000D01*
X218261904Y-52085000D02*
X218309523Y-52037380D01*
%TO.C,JP4*%
X230393333Y-222662619D02*
X230393333Y-223376904D01*
X230393333Y-223376904D02*
X230440952Y-223519761D01*
X230440952Y-223519761D02*
X230536190Y-223615000D01*
X230536190Y-223615000D02*
X230679047Y-223662619D01*
X230679047Y-223662619D02*
X230774285Y-223662619D01*
X229917142Y-223662619D02*
X229917142Y-222662619D01*
X229917142Y-222662619D02*
X229536190Y-222662619D01*
X229536190Y-222662619D02*
X229440952Y-222710238D01*
X229440952Y-222710238D02*
X229393333Y-222757857D01*
X229393333Y-222757857D02*
X229345714Y-222853095D01*
X229345714Y-222853095D02*
X229345714Y-222995952D01*
X229345714Y-222995952D02*
X229393333Y-223091190D01*
X229393333Y-223091190D02*
X229440952Y-223138809D01*
X229440952Y-223138809D02*
X229536190Y-223186428D01*
X229536190Y-223186428D02*
X229917142Y-223186428D01*
X228488571Y-222995952D02*
X228488571Y-223662619D01*
X228726666Y-222615000D02*
X228964761Y-223329285D01*
X228964761Y-223329285D02*
X228345714Y-223329285D01*
X231864285Y-225552619D02*
X232435713Y-225552619D01*
X232149999Y-225552619D02*
X232149999Y-224552619D01*
X232149999Y-224552619D02*
X232245237Y-224695476D01*
X232245237Y-224695476D02*
X232340475Y-224790714D01*
X232340475Y-224790714D02*
X232435713Y-224838333D01*
X227283332Y-224552619D02*
X226664285Y-224552619D01*
X226664285Y-224552619D02*
X226997618Y-224933571D01*
X226997618Y-224933571D02*
X226854761Y-224933571D01*
X226854761Y-224933571D02*
X226759523Y-224981190D01*
X226759523Y-224981190D02*
X226711904Y-225028809D01*
X226711904Y-225028809D02*
X226664285Y-225124047D01*
X226664285Y-225124047D02*
X226664285Y-225362142D01*
X226664285Y-225362142D02*
X226711904Y-225457380D01*
X226711904Y-225457380D02*
X226759523Y-225505000D01*
X226759523Y-225505000D02*
X226854761Y-225552619D01*
X226854761Y-225552619D02*
X227140475Y-225552619D01*
X227140475Y-225552619D02*
X227235713Y-225505000D01*
X227235713Y-225505000D02*
X227283332Y-225457380D01*
%TO.C,D1*%
X226550594Y-53862619D02*
X226550594Y-52862619D01*
X226550594Y-52862619D02*
X226312499Y-52862619D01*
X226312499Y-52862619D02*
X226169642Y-52910238D01*
X226169642Y-52910238D02*
X226074404Y-53005476D01*
X226074404Y-53005476D02*
X226026785Y-53100714D01*
X226026785Y-53100714D02*
X225979166Y-53291190D01*
X225979166Y-53291190D02*
X225979166Y-53434047D01*
X225979166Y-53434047D02*
X226026785Y-53624523D01*
X226026785Y-53624523D02*
X226074404Y-53719761D01*
X226074404Y-53719761D02*
X226169642Y-53815000D01*
X226169642Y-53815000D02*
X226312499Y-53862619D01*
X226312499Y-53862619D02*
X226550594Y-53862619D01*
X225026785Y-53862619D02*
X225598213Y-53862619D01*
X225312499Y-53862619D02*
X225312499Y-52862619D01*
X225312499Y-52862619D02*
X225407737Y-53005476D01*
X225407737Y-53005476D02*
X225502975Y-53100714D01*
X225502975Y-53100714D02*
X225598213Y-53148333D01*
%TO.C,R36*%
X232092857Y-227322619D02*
X232426190Y-226846428D01*
X232664285Y-227322619D02*
X232664285Y-226322619D01*
X232664285Y-226322619D02*
X232283333Y-226322619D01*
X232283333Y-226322619D02*
X232188095Y-226370238D01*
X232188095Y-226370238D02*
X232140476Y-226417857D01*
X232140476Y-226417857D02*
X232092857Y-226513095D01*
X232092857Y-226513095D02*
X232092857Y-226655952D01*
X232092857Y-226655952D02*
X232140476Y-226751190D01*
X232140476Y-226751190D02*
X232188095Y-226798809D01*
X232188095Y-226798809D02*
X232283333Y-226846428D01*
X232283333Y-226846428D02*
X232664285Y-226846428D01*
X231759523Y-226322619D02*
X231140476Y-226322619D01*
X231140476Y-226322619D02*
X231473809Y-226703571D01*
X231473809Y-226703571D02*
X231330952Y-226703571D01*
X231330952Y-226703571D02*
X231235714Y-226751190D01*
X231235714Y-226751190D02*
X231188095Y-226798809D01*
X231188095Y-226798809D02*
X231140476Y-226894047D01*
X231140476Y-226894047D02*
X231140476Y-227132142D01*
X231140476Y-227132142D02*
X231188095Y-227227380D01*
X231188095Y-227227380D02*
X231235714Y-227275000D01*
X231235714Y-227275000D02*
X231330952Y-227322619D01*
X231330952Y-227322619D02*
X231616666Y-227322619D01*
X231616666Y-227322619D02*
X231711904Y-227275000D01*
X231711904Y-227275000D02*
X231759523Y-227227380D01*
X230283333Y-226322619D02*
X230473809Y-226322619D01*
X230473809Y-226322619D02*
X230569047Y-226370238D01*
X230569047Y-226370238D02*
X230616666Y-226417857D01*
X230616666Y-226417857D02*
X230711904Y-226560714D01*
X230711904Y-226560714D02*
X230759523Y-226751190D01*
X230759523Y-226751190D02*
X230759523Y-227132142D01*
X230759523Y-227132142D02*
X230711904Y-227227380D01*
X230711904Y-227227380D02*
X230664285Y-227275000D01*
X230664285Y-227275000D02*
X230569047Y-227322619D01*
X230569047Y-227322619D02*
X230378571Y-227322619D01*
X230378571Y-227322619D02*
X230283333Y-227275000D01*
X230283333Y-227275000D02*
X230235714Y-227227380D01*
X230235714Y-227227380D02*
X230188095Y-227132142D01*
X230188095Y-227132142D02*
X230188095Y-226894047D01*
X230188095Y-226894047D02*
X230235714Y-226798809D01*
X230235714Y-226798809D02*
X230283333Y-226751190D01*
X230283333Y-226751190D02*
X230378571Y-226703571D01*
X230378571Y-226703571D02*
X230569047Y-226703571D01*
X230569047Y-226703571D02*
X230664285Y-226751190D01*
X230664285Y-226751190D02*
X230711904Y-226798809D01*
X230711904Y-226798809D02*
X230759523Y-226894047D01*
%TO.C,R23*%
X239472857Y-227352619D02*
X239806190Y-226876428D01*
X240044285Y-227352619D02*
X240044285Y-226352619D01*
X240044285Y-226352619D02*
X239663333Y-226352619D01*
X239663333Y-226352619D02*
X239568095Y-226400238D01*
X239568095Y-226400238D02*
X239520476Y-226447857D01*
X239520476Y-226447857D02*
X239472857Y-226543095D01*
X239472857Y-226543095D02*
X239472857Y-226685952D01*
X239472857Y-226685952D02*
X239520476Y-226781190D01*
X239520476Y-226781190D02*
X239568095Y-226828809D01*
X239568095Y-226828809D02*
X239663333Y-226876428D01*
X239663333Y-226876428D02*
X240044285Y-226876428D01*
X239091904Y-226447857D02*
X239044285Y-226400238D01*
X239044285Y-226400238D02*
X238949047Y-226352619D01*
X238949047Y-226352619D02*
X238710952Y-226352619D01*
X238710952Y-226352619D02*
X238615714Y-226400238D01*
X238615714Y-226400238D02*
X238568095Y-226447857D01*
X238568095Y-226447857D02*
X238520476Y-226543095D01*
X238520476Y-226543095D02*
X238520476Y-226638333D01*
X238520476Y-226638333D02*
X238568095Y-226781190D01*
X238568095Y-226781190D02*
X239139523Y-227352619D01*
X239139523Y-227352619D02*
X238520476Y-227352619D01*
X238187142Y-226352619D02*
X237568095Y-226352619D01*
X237568095Y-226352619D02*
X237901428Y-226733571D01*
X237901428Y-226733571D02*
X237758571Y-226733571D01*
X237758571Y-226733571D02*
X237663333Y-226781190D01*
X237663333Y-226781190D02*
X237615714Y-226828809D01*
X237615714Y-226828809D02*
X237568095Y-226924047D01*
X237568095Y-226924047D02*
X237568095Y-227162142D01*
X237568095Y-227162142D02*
X237615714Y-227257380D01*
X237615714Y-227257380D02*
X237663333Y-227305000D01*
X237663333Y-227305000D02*
X237758571Y-227352619D01*
X237758571Y-227352619D02*
X238044285Y-227352619D01*
X238044285Y-227352619D02*
X238139523Y-227305000D01*
X238139523Y-227305000D02*
X238187142Y-227257380D01*
%TO.C,R32*%
X215572857Y-52182619D02*
X215906190Y-51706428D01*
X216144285Y-52182619D02*
X216144285Y-51182619D01*
X216144285Y-51182619D02*
X215763333Y-51182619D01*
X215763333Y-51182619D02*
X215668095Y-51230238D01*
X215668095Y-51230238D02*
X215620476Y-51277857D01*
X215620476Y-51277857D02*
X215572857Y-51373095D01*
X215572857Y-51373095D02*
X215572857Y-51515952D01*
X215572857Y-51515952D02*
X215620476Y-51611190D01*
X215620476Y-51611190D02*
X215668095Y-51658809D01*
X215668095Y-51658809D02*
X215763333Y-51706428D01*
X215763333Y-51706428D02*
X216144285Y-51706428D01*
X215239523Y-51182619D02*
X214620476Y-51182619D01*
X214620476Y-51182619D02*
X214953809Y-51563571D01*
X214953809Y-51563571D02*
X214810952Y-51563571D01*
X214810952Y-51563571D02*
X214715714Y-51611190D01*
X214715714Y-51611190D02*
X214668095Y-51658809D01*
X214668095Y-51658809D02*
X214620476Y-51754047D01*
X214620476Y-51754047D02*
X214620476Y-51992142D01*
X214620476Y-51992142D02*
X214668095Y-52087380D01*
X214668095Y-52087380D02*
X214715714Y-52135000D01*
X214715714Y-52135000D02*
X214810952Y-52182619D01*
X214810952Y-52182619D02*
X215096666Y-52182619D01*
X215096666Y-52182619D02*
X215191904Y-52135000D01*
X215191904Y-52135000D02*
X215239523Y-52087380D01*
X214239523Y-51277857D02*
X214191904Y-51230238D01*
X214191904Y-51230238D02*
X214096666Y-51182619D01*
X214096666Y-51182619D02*
X213858571Y-51182619D01*
X213858571Y-51182619D02*
X213763333Y-51230238D01*
X213763333Y-51230238D02*
X213715714Y-51277857D01*
X213715714Y-51277857D02*
X213668095Y-51373095D01*
X213668095Y-51373095D02*
X213668095Y-51468333D01*
X213668095Y-51468333D02*
X213715714Y-51611190D01*
X213715714Y-51611190D02*
X214287142Y-52182619D01*
X214287142Y-52182619D02*
X213668095Y-52182619D01*
D11*
%TO.C,R34*%
X243147064Y-229245000D02*
X242692936Y-229245000D01*
X243147064Y-227775000D02*
X242692936Y-227775000D01*
%TO.C,R21*%
X227152936Y-227775000D02*
X227607064Y-227775000D01*
X227152936Y-229245000D02*
X227607064Y-229245000D01*
%TO.C,J3*%
X149730000Y-176300000D02*
X154930000Y-176300000D01*
X149730000Y-227220000D02*
X149730000Y-176300000D01*
X149730000Y-227220000D02*
X154930000Y-227220000D01*
X154930000Y-227220000D02*
X154930000Y-176300000D01*
%TO.C,JP5*%
X243000000Y-226090000D02*
X243000000Y-224090000D01*
X243000000Y-224090000D02*
X238900000Y-224090000D01*
X238900000Y-226090000D02*
X243000000Y-226090000D01*
X238900000Y-224090000D02*
X238900000Y-226090000D01*
%TO.C,JP6*%
X218910000Y-62820000D02*
X218910000Y-60820000D01*
X218910000Y-60820000D02*
X214810000Y-60820000D01*
X214810000Y-62820000D02*
X218910000Y-62820000D01*
X214810000Y-60820000D02*
X214810000Y-62820000D01*
%TO.C,R25*%
X219227064Y-54055000D02*
X218772936Y-54055000D01*
X219227064Y-52585000D02*
X218772936Y-52585000D01*
%TO.C,JP4*%
X231600000Y-226090000D02*
X231600000Y-224090000D01*
X231600000Y-224090000D02*
X227500000Y-224090000D01*
X227500000Y-226090000D02*
X231600000Y-226090000D01*
X227500000Y-224090000D02*
X227500000Y-226090000D01*
%TO.C,D1*%
X227472500Y-55565000D02*
X225012500Y-55565000D01*
X227472500Y-54095000D02*
X227472500Y-55565000D01*
X225012500Y-54095000D02*
X227472500Y-54095000D01*
%TO.C,R36*%
X231677064Y-229245000D02*
X231222936Y-229245000D01*
X231677064Y-227775000D02*
X231222936Y-227775000D01*
%TO.C,R23*%
X238612936Y-227775000D02*
X239067064Y-227775000D01*
X238612936Y-229245000D02*
X239067064Y-229245000D01*
%TO.C,R32*%
X214732936Y-52585000D02*
X215187064Y-52585000D01*
X214732936Y-54055000D02*
X215187064Y-54055000D01*
%TD*%
M02*
