%TF.GenerationSoftware,KiCad,Pcbnew,7.0.1*%
%TF.CreationDate,2023-12-13T20:39:24+01:00*%
%TF.ProjectId,big_pcb,6269675f-7063-4622-9e6b-696361645f70,rev?*%
%TF.SameCoordinates,Original*%
%TF.FileFunction,Copper,L1,Top*%
%TF.FilePolarity,Positive*%
%FSLAX46Y46*%
G04 Gerber Fmt 4.6, Leading zero omitted, Abs format (unit mm)*
G04 Created by KiCad (PCBNEW 7.0.1) date 2023-12-13 20:39:24*
%MOMM*%
%LPD*%
G01*
G04 APERTURE LIST*
G04 Aperture macros list*
%AMRoundRect*
0 Rectangle with rounded corners*
0 $1 Rounding radius*
0 $2 $3 $4 $5 $6 $7 $8 $9 X,Y pos of 4 corners*
0 Add a 4 corners polygon primitive as box body*
4,1,4,$2,$3,$4,$5,$6,$7,$8,$9,$2,$3,0*
0 Add four circle primitives for the rounded corners*
1,1,$1+$1,$2,$3*
1,1,$1+$1,$4,$5*
1,1,$1+$1,$6,$7*
1,1,$1+$1,$8,$9*
0 Add four rect primitives between the rounded corners*
20,1,$1+$1,$2,$3,$4,$5,0*
20,1,$1+$1,$4,$5,$6,$7,0*
20,1,$1+$1,$6,$7,$8,$9,0*
20,1,$1+$1,$8,$9,$2,$3,0*%
G04 Aperture macros list end*
%ADD10C,0.300000*%
%TA.AperFunction,NonConductor*%
%ADD11C,0.300000*%
%TD*%
%TA.AperFunction,SMDPad,CuDef*%
%ADD12RoundRect,0.250000X-0.337500X-0.475000X0.337500X-0.475000X0.337500X0.475000X-0.337500X0.475000X0*%
%TD*%
%TA.AperFunction,SMDPad,CuDef*%
%ADD13RoundRect,0.250000X-0.350000X-0.450000X0.350000X-0.450000X0.350000X0.450000X-0.350000X0.450000X0*%
%TD*%
%TA.AperFunction,SMDPad,CuDef*%
%ADD14RoundRect,0.150000X-0.150000X0.587500X-0.150000X-0.587500X0.150000X-0.587500X0.150000X0.587500X0*%
%TD*%
%TA.AperFunction,SMDPad,CuDef*%
%ADD15RoundRect,0.250000X-0.450000X0.350000X-0.450000X-0.350000X0.450000X-0.350000X0.450000X0.350000X0*%
%TD*%
%TA.AperFunction,SMDPad,CuDef*%
%ADD16RoundRect,0.250000X0.450000X-0.350000X0.450000X0.350000X-0.450000X0.350000X-0.450000X-0.350000X0*%
%TD*%
%TA.AperFunction,ComponentPad*%
%ADD17R,1.700000X1.700000*%
%TD*%
%TA.AperFunction,ComponentPad*%
%ADD18O,1.700000X1.700000*%
%TD*%
%TA.AperFunction,ComponentPad*%
%ADD19RoundRect,0.250000X0.350000X0.625000X-0.350000X0.625000X-0.350000X-0.625000X0.350000X-0.625000X0*%
%TD*%
%TA.AperFunction,ComponentPad*%
%ADD20O,1.200000X1.750000*%
%TD*%
%TA.AperFunction,SMDPad,CuDef*%
%ADD21RoundRect,0.250000X0.475000X-0.337500X0.475000X0.337500X-0.475000X0.337500X-0.475000X-0.337500X0*%
%TD*%
%TA.AperFunction,SMDPad,CuDef*%
%ADD22RoundRect,0.150000X0.587500X0.150000X-0.587500X0.150000X-0.587500X-0.150000X0.587500X-0.150000X0*%
%TD*%
%TA.AperFunction,SMDPad,CuDef*%
%ADD23RoundRect,0.250000X0.350000X0.450000X-0.350000X0.450000X-0.350000X-0.450000X0.350000X-0.450000X0*%
%TD*%
%TA.AperFunction,SMDPad,CuDef*%
%ADD24R,1.500000X1.500000*%
%TD*%
%TA.AperFunction,SMDPad,CuDef*%
%ADD25R,1.475000X0.450000*%
%TD*%
%TA.AperFunction,ComponentPad*%
%ADD26RoundRect,0.250000X0.625000X-0.350000X0.625000X0.350000X-0.625000X0.350000X-0.625000X-0.350000X0*%
%TD*%
%TA.AperFunction,ComponentPad*%
%ADD27O,1.750000X1.200000*%
%TD*%
%TA.AperFunction,ComponentPad*%
%ADD28RoundRect,0.250000X-0.350000X-0.625000X0.350000X-0.625000X0.350000X0.625000X-0.350000X0.625000X0*%
%TD*%
%TA.AperFunction,SMDPad,CuDef*%
%ADD29RoundRect,0.250000X-0.475000X0.337500X-0.475000X-0.337500X0.475000X-0.337500X0.475000X0.337500X0*%
%TD*%
%TA.AperFunction,ComponentPad*%
%ADD30C,2.500000*%
%TD*%
%TA.AperFunction,ViaPad*%
%ADD31C,0.700000*%
%TD*%
%TA.AperFunction,Conductor*%
%ADD32C,0.250000*%
%TD*%
%TA.AperFunction,Conductor*%
%ADD33C,0.300000*%
%TD*%
%TA.AperFunction,Conductor*%
%ADD34C,0.500000*%
%TD*%
G04 APERTURE END LIST*
D10*
D11*
X148392857Y-51696428D02*
X149250000Y-51696428D01*
X148821428Y-53196428D02*
X148821428Y-51696428D01*
X150035714Y-51696428D02*
X150321428Y-51696428D01*
X150321428Y-51696428D02*
X150464285Y-51767857D01*
X150464285Y-51767857D02*
X150607142Y-51910714D01*
X150607142Y-51910714D02*
X150678571Y-52196428D01*
X150678571Y-52196428D02*
X150678571Y-52696428D01*
X150678571Y-52696428D02*
X150607142Y-52982142D01*
X150607142Y-52982142D02*
X150464285Y-53125000D01*
X150464285Y-53125000D02*
X150321428Y-53196428D01*
X150321428Y-53196428D02*
X150035714Y-53196428D01*
X150035714Y-53196428D02*
X149892857Y-53125000D01*
X149892857Y-53125000D02*
X149749999Y-52982142D01*
X149749999Y-52982142D02*
X149678571Y-52696428D01*
X149678571Y-52696428D02*
X149678571Y-52196428D01*
X149678571Y-52196428D02*
X149749999Y-51910714D01*
X149749999Y-51910714D02*
X149892857Y-51767857D01*
X149892857Y-51767857D02*
X150035714Y-51696428D01*
X151321428Y-53196428D02*
X151321428Y-51696428D01*
X151321428Y-51696428D02*
X151892857Y-51696428D01*
X151892857Y-51696428D02*
X152035714Y-51767857D01*
X152035714Y-51767857D02*
X152107143Y-51839285D01*
X152107143Y-51839285D02*
X152178571Y-51982142D01*
X152178571Y-51982142D02*
X152178571Y-52196428D01*
X152178571Y-52196428D02*
X152107143Y-52339285D01*
X152107143Y-52339285D02*
X152035714Y-52410714D01*
X152035714Y-52410714D02*
X151892857Y-52482142D01*
X151892857Y-52482142D02*
X151321428Y-52482142D01*
D12*
%TO.P,C2,1*%
%TO.N,Net-(JP3-A)*%
X186412500Y-80290000D03*
%TO.P,C2,2*%
%TO.N,GND*%
X188487500Y-80290000D03*
%TD*%
D13*
%TO.P,R16,1*%
%TO.N,Net-(JP3-A)*%
X186450000Y-85220000D03*
%TO.P,R16,2*%
%TO.N,GND*%
X188450000Y-85220000D03*
%TD*%
D14*
%TO.P,Q2,1,G*%
%TO.N,Net-(Q2-G)*%
X218270000Y-190020000D03*
%TO.P,Q2,2,S*%
%TO.N,+5V*%
X216370000Y-190020000D03*
%TO.P,Q2,3,D*%
%TO.N,Net-(JP1-A)*%
X217320000Y-191895000D03*
%TD*%
D13*
%TO.P,R11,1*%
%TO.N,/SD_D8_CS*%
X231640000Y-163520000D03*
%TO.P,R11,2*%
%TO.N,+3.3VA*%
X233640000Y-163520000D03*
%TD*%
D15*
%TO.P,R14,1*%
%TO.N,+3.3V*%
X190762500Y-75890000D03*
%TO.P,R14,2*%
%TO.N,Net-(Q4-G)*%
X190762500Y-77890000D03*
%TD*%
D16*
%TO.P,R12,1*%
%TO.N,GND*%
X203440000Y-155110000D03*
%TO.P,R12,2*%
%TO.N,/SW_DISP_SD*%
X203440000Y-153110000D03*
%TD*%
D17*
%TO.P,JP2,1,A*%
%TO.N,Net-(JP2-A)*%
X224120000Y-173900000D03*
D18*
%TO.P,JP2,2,B*%
%TO.N,+3.3VA*%
X224120000Y-171360000D03*
%TD*%
D19*
%TO.P,J10,1,Pin_1*%
%TO.N,Net-(J10-Pin_1)*%
X219860000Y-56130000D03*
D20*
%TO.P,J10,2,Pin_2*%
%TO.N,/HALL_TOP*%
X217860000Y-56130000D03*
%TO.P,J10,3,Pin_3*%
%TO.N,GND*%
X215860000Y-56130000D03*
%TD*%
D21*
%TO.P,C1,1*%
%TO.N,Net-(JP2-A)*%
X242770000Y-172047500D03*
%TO.P,C1,2*%
%TO.N,GND*%
X242770000Y-169972500D03*
%TD*%
D22*
%TO.P,Q4,1,G*%
%TO.N,Net-(Q4-G)*%
X188387500Y-77940000D03*
%TO.P,Q4,2,S*%
%TO.N,+3.3V*%
X188387500Y-76040000D03*
%TO.P,Q4,3,D*%
%TO.N,Net-(JP3-A)*%
X186512500Y-76990000D03*
%TD*%
D13*
%TO.P,R2,1*%
%TO.N,+5V*%
X216340000Y-187450000D03*
%TO.P,R2,2*%
%TO.N,Net-(Q2-G)*%
X218340000Y-187450000D03*
%TD*%
D23*
%TO.P,R18,1*%
%TO.N,Net-(J1-Pin_2)*%
X225720000Y-67040000D03*
%TO.P,R18,2*%
%TO.N,/SPI_MOSI*%
X223720000Y-67040000D03*
%TD*%
D24*
%TO.P,TP2,1,1*%
%TO.N,Net-(J3-Pin_17)*%
X160370000Y-207670000D03*
%TD*%
D23*
%TO.P,R1,1*%
%TO.N,/EN_PWR_DISP*%
X222680000Y-187460000D03*
%TO.P,R1,2*%
%TO.N,GND*%
X220680000Y-187460000D03*
%TD*%
D25*
%TO.P,U1,1,IN*%
%TO.N,/SW_DISP_SD*%
X204976000Y-151010000D03*
%TO.P,U1,2,NC1*%
%TO.N,/DISP_SCK*%
X204976000Y-150360000D03*
%TO.P,U1,3,NO1*%
%TO.N,/SD_D5_SCK*%
X204976000Y-149710000D03*
%TO.P,U1,4,COM1*%
%TO.N,/SPI_SCK*%
X204976000Y-149060000D03*
%TO.P,U1,5,NC2*%
%TO.N,/DISP_MISO*%
X204976000Y-148410000D03*
%TO.P,U1,6,NO2*%
%TO.N,/SD_D6_MISO*%
X204976000Y-147760000D03*
%TO.P,U1,7,COM2*%
%TO.N,/SPI_MISO*%
X204976000Y-147110000D03*
%TO.P,U1,8,GND*%
%TO.N,GND*%
X204976000Y-146460000D03*
%TO.P,U1,9,COM3*%
%TO.N,/SPI_CS*%
X199100000Y-146460000D03*
%TO.P,U1,10,NO3*%
%TO.N,/SD_D8_CS*%
X199100000Y-147110000D03*
%TO.P,U1,11,NC3*%
%TO.N,/DISP_CS*%
X199100000Y-147760000D03*
%TO.P,U1,12,COM4*%
%TO.N,/SPI_MOSI*%
X199100000Y-148410000D03*
%TO.P,U1,13,NO4*%
%TO.N,/SD_D7_MOSI*%
X199100000Y-149060000D03*
%TO.P,U1,14,NC4*%
%TO.N,/DISP_MOSI*%
X199100000Y-149710000D03*
%TO.P,U1,15,~{EN}*%
%TO.N,Net-(U1-~{EN})*%
X199100000Y-150360000D03*
%TO.P,U1,16,V+*%
%TO.N,+3.3V*%
X199100000Y-151010000D03*
%TD*%
D17*
%TO.P,JP3,1,A*%
%TO.N,Net-(JP3-A)*%
X186477500Y-71140000D03*
D18*
%TO.P,JP3,2,B*%
%TO.N,+3.3VP*%
X186477500Y-68600000D03*
%TD*%
D17*
%TO.P,J4,1,Pin_1*%
%TO.N,unconnected-(J4-Pin_1-Pad1)*%
X228710000Y-148250000D03*
D18*
%TO.P,J4,2,Pin_2*%
%TO.N,unconnected-(J4-Pin_2-Pad2)*%
X228710000Y-150790000D03*
%TO.P,J4,3,Pin_3*%
%TO.N,unconnected-(J4-Pin_3-Pad3)*%
X228710000Y-153330000D03*
%TO.P,J4,4,Pin_4*%
%TO.N,/SD_D5_SCK*%
X228710000Y-155870000D03*
%TO.P,J4,5,Pin_5*%
%TO.N,/SD_D6_MISO*%
X228710000Y-158410000D03*
%TO.P,J4,6,Pin_6*%
%TO.N,/SD_D7_MOSI*%
X228710000Y-160950000D03*
%TO.P,J4,7,Pin_7*%
%TO.N,/SD_D8_CS*%
X228710000Y-163490000D03*
%TO.P,J4,8,Pin_8*%
%TO.N,+3.3VA*%
X228710000Y-166030000D03*
%TD*%
D17*
%TO.P,J1,1,Pin_1*%
%TO.N,/SPI_CS*%
X228800000Y-64530000D03*
D18*
%TO.P,J1,2,Pin_2*%
%TO.N,Net-(J1-Pin_2)*%
X228800000Y-67070000D03*
%TO.P,J1,3,Pin_3*%
%TO.N,Net-(J1-Pin_3)*%
X228800000Y-69610000D03*
%TO.P,J1,4,Pin_4*%
%TO.N,/SPI_MISO*%
X228800000Y-72150000D03*
%TO.P,J1,5,Pin_5*%
%TO.N,/DVP_Y5*%
X228800000Y-74690000D03*
%TO.P,J1,6,Pin_6*%
%TO.N,/DVP_PCLK*%
X228800000Y-77230000D03*
%TO.P,J1,7,Pin_7*%
%TO.N,/VSYNC*%
X228800000Y-79770000D03*
%TO.P,J1,8,Pin_8*%
%TO.N,/DVP_Y7*%
X228800000Y-82310000D03*
%TO.P,J1,9,Pin_9*%
%TO.N,/DISP_HRDY*%
X228800000Y-84850000D03*
%TO.P,J1,10,Pin_10*%
%TO.N,/DISP_RST*%
X228800000Y-87390000D03*
%TO.P,J1,11,Pin_11*%
%TO.N,unconnected-(J1-Pin_11-Pad11)*%
X228800000Y-89930000D03*
%TO.P,J1,12,Pin_12*%
%TO.N,/D-*%
X228800000Y-92470000D03*
%TO.P,J1,13,Pin_13*%
%TO.N,/D+*%
X228800000Y-95010000D03*
%TO.P,J1,14,Pin_14*%
%TO.N,+5V*%
X228800000Y-97550000D03*
%TD*%
D26*
%TO.P,J6,1,Pin_1*%
%TO.N,GND*%
X249650000Y-133690000D03*
D27*
%TO.P,J6,2,Pin_2*%
%TO.N,Net-(J6-Pin_2)*%
X249650000Y-131690000D03*
%TO.P,J6,3,Pin_3*%
%TO.N,/SCL*%
X249650000Y-129690000D03*
%TO.P,J6,4,Pin_4*%
%TO.N,/SDA*%
X249650000Y-127690000D03*
%TD*%
D16*
%TO.P,R3,1*%
%TO.N,GND*%
X196770000Y-155380000D03*
%TO.P,R3,2*%
%TO.N,Net-(U1-~{EN})*%
X196770000Y-153380000D03*
%TD*%
D14*
%TO.P,Q6,1,G*%
%TO.N,+3.3V*%
X239810000Y-124935000D03*
%TO.P,Q6,2,S*%
%TO.N,/BATT_SCL*%
X237910000Y-124935000D03*
%TO.P,Q6,3,D*%
%TO.N,/SCL*%
X238860000Y-126810000D03*
%TD*%
D28*
%TO.P,J9,1,Pin_1*%
%TO.N,Net-(J9-Pin_1)*%
X237960000Y-231000000D03*
D20*
%TO.P,J9,2,Pin_2*%
%TO.N,/HALL_RIGHT*%
X239960000Y-231000000D03*
%TO.P,J9,3,Pin_3*%
%TO.N,GND*%
X241960000Y-231000000D03*
%TD*%
D13*
%TO.P,R6,1*%
%TO.N,+3.3V*%
X238280000Y-167730000D03*
%TO.P,R6,2*%
%TO.N,Net-(Q1-G)*%
X240280000Y-167730000D03*
%TD*%
D23*
%TO.P,R13,1*%
%TO.N,/EN_PWR_HALL*%
X195002500Y-77870000D03*
%TO.P,R13,2*%
%TO.N,Net-(Q4-G)*%
X193002500Y-77870000D03*
%TD*%
D16*
%TO.P,R17,1*%
%TO.N,/LED*%
X224900000Y-62040000D03*
%TO.P,R17,2*%
%TO.N,Net-(D1-A)*%
X224900000Y-60040000D03*
%TD*%
D13*
%TO.P,R9,1*%
%TO.N,/SD_D7_MOSI*%
X231640000Y-160960000D03*
%TO.P,R9,2*%
%TO.N,+3.3VA*%
X233640000Y-160960000D03*
%TD*%
D29*
%TO.P,C3,1*%
%TO.N,+3.3V*%
X200960000Y-153102500D03*
%TO.P,C3,2*%
%TO.N,GND*%
X200960000Y-155177500D03*
%TD*%
D14*
%TO.P,Q3,1,G*%
%TO.N,/EN_PWR_DISP*%
X222600000Y-190025000D03*
%TO.P,Q3,2,S*%
%TO.N,GND*%
X220700000Y-190025000D03*
%TO.P,Q3,3,D*%
%TO.N,Net-(Q2-G)*%
X221650000Y-191900000D03*
%TD*%
%TO.P,Q1,1,G*%
%TO.N,Net-(Q1-G)*%
X240210000Y-170060000D03*
%TO.P,Q1,2,S*%
%TO.N,+3.3V*%
X238310000Y-170060000D03*
%TO.P,Q1,3,D*%
%TO.N,Net-(JP2-A)*%
X239260000Y-171935000D03*
%TD*%
D13*
%TO.P,R8,1*%
%TO.N,/SD_D6_MISO*%
X231640000Y-158400000D03*
%TO.P,R8,2*%
%TO.N,+3.3VA*%
X233640000Y-158400000D03*
%TD*%
D24*
%TO.P,TP1,1,1*%
%TO.N,Net-(J3-Pin_1)*%
X159180000Y-225930000D03*
%TD*%
D17*
%TO.P,JP8,1,A*%
%TO.N,Net-(J6-Pin_2)*%
X241660000Y-131660000D03*
D18*
%TO.P,JP8,2,B*%
%TO.N,+5V*%
X239120000Y-131660000D03*
%TD*%
D23*
%TO.P,R20,1*%
%TO.N,Net-(J1-Pin_3)*%
X221300000Y-77610000D03*
%TO.P,R20,2*%
%TO.N,/SPI_SCK*%
X219300000Y-77610000D03*
%TD*%
D13*
%TO.P,R7,1*%
%TO.N,/SD_D5_SCK*%
X231640000Y-155900000D03*
%TO.P,R7,2*%
%TO.N,+3.3VA*%
X233640000Y-155900000D03*
%TD*%
D17*
%TO.P,J2,1,Pin_1*%
%TO.N,/LED*%
X251580000Y-64520000D03*
D18*
%TO.P,J2,2,Pin_2*%
%TO.N,/SW_DISP_SD*%
X251580000Y-67060000D03*
%TO.P,J2,3,Pin_3*%
%TO.N,/HALL_TOP*%
X251580000Y-69600000D03*
%TO.P,J2,4,Pin_4*%
%TO.N,/EN_PWR_HALL*%
X251580000Y-72140000D03*
%TO.P,J2,5,Pin_5*%
%TO.N,/DVP_Y6*%
X251580000Y-74680000D03*
%TO.P,J2,6,Pin_6*%
%TO.N,/HALL_LEFT*%
X251580000Y-77220000D03*
%TO.P,J2,7,Pin_7*%
%TO.N,/EN_PWR_DISP*%
X251580000Y-79760000D03*
%TO.P,J2,8,Pin_8*%
%TO.N,/EN_PWR_SD*%
X251580000Y-82300000D03*
%TO.P,J2,9,Pin_9*%
%TO.N,/CAM_SDA*%
X251580000Y-84840000D03*
%TO.P,J2,10,Pin_10*%
%TO.N,/CAM_SCL*%
X251580000Y-87380000D03*
%TO.P,J2,11,Pin_11*%
%TO.N,/HALL_RIGHT*%
X251580000Y-89920000D03*
%TO.P,J2,12,Pin_12*%
%TO.N,/BATT_SCL*%
X251580000Y-92460000D03*
%TO.P,J2,13,Pin_13*%
%TO.N,/BATT_SDA*%
X251580000Y-95000000D03*
%TO.P,J2,14,Pin_14*%
%TO.N,unconnected-(J2-Pin_14-Pad14)*%
X251580000Y-97540000D03*
%TO.P,J2,15,Pin_15*%
%TO.N,GND*%
X251580000Y-100080000D03*
%TO.P,J2,16,Pin_16*%
%TO.N,unconnected-(J2-Pin_16-Pad16)*%
X251580000Y-102620000D03*
%TO.P,J2,17,Pin_17*%
%TO.N,+3.3V*%
X251580000Y-105160000D03*
%TO.P,J2,18,Pin_18*%
%TO.N,/ESP_RST#*%
X251580000Y-107700000D03*
%TD*%
D14*
%TO.P,Q5,1,G*%
%TO.N,+3.3V*%
X244540000Y-124890000D03*
%TO.P,Q5,2,S*%
%TO.N,/BATT_SDA*%
X242640000Y-124890000D03*
%TO.P,Q5,3,D*%
%TO.N,/SDA*%
X243590000Y-126765000D03*
%TD*%
D28*
%TO.P,J8,1,Pin_1*%
%TO.N,Net-(J8-Pin_1)*%
X226560000Y-231000000D03*
D20*
%TO.P,J8,2,Pin_2*%
%TO.N,/HALL_LEFT*%
X228560000Y-231000000D03*
%TO.P,J8,3,Pin_3*%
%TO.N,GND*%
X230560000Y-231000000D03*
%TD*%
D16*
%TO.P,R10,1*%
%TO.N,Net-(JP2-A)*%
X247700000Y-172010000D03*
%TO.P,R10,2*%
%TO.N,GND*%
X247700000Y-170010000D03*
%TD*%
D15*
%TO.P,R4,1*%
%TO.N,/EN_PWR_SD*%
X240280000Y-163160000D03*
%TO.P,R4,2*%
%TO.N,Net-(Q1-G)*%
X240280000Y-165160000D03*
%TD*%
D13*
%TO.P,R15,1*%
%TO.N,Net-(JP3-A)*%
X186450000Y-82770000D03*
%TO.P,R15,2*%
%TO.N,GND*%
X188450000Y-82770000D03*
%TD*%
D17*
%TO.P,JP1,1,A*%
%TO.N,Net-(JP1-A)*%
X217350000Y-196840000D03*
D18*
%TO.P,JP1,2,B*%
%TO.N,+5VD*%
X217350000Y-199380000D03*
%TD*%
D13*
%TO.P,R37,1*%
%TO.N,/BATT_SDA*%
X242630000Y-122750000D03*
%TO.P,R37,2*%
%TO.N,+3.3V*%
X244630000Y-122750000D03*
%TD*%
D30*
%TO.P,TP4,1,1*%
%TO.N,GND*%
X249680000Y-139220000D03*
%TD*%
D16*
%TO.P,R5,1*%
%TO.N,Net-(JP2-A)*%
X245250000Y-172010000D03*
%TO.P,R5,2*%
%TO.N,GND*%
X245250000Y-170010000D03*
%TD*%
D13*
%TO.P,R38,1*%
%TO.N,/BATT_SCL*%
X237820000Y-122720000D03*
%TO.P,R38,2*%
%TO.N,+3.3V*%
X239820000Y-122720000D03*
%TD*%
D17*
%TO.P,J5,1,Pin_1*%
%TO.N,unconnected-(J5-Pin_1-Pad1)*%
X251570000Y-148250000D03*
D18*
%TO.P,J5,2,Pin_2*%
%TO.N,unconnected-(J5-Pin_2-Pad2)*%
X251570000Y-150790000D03*
%TO.P,J5,3,Pin_3*%
%TO.N,unconnected-(J5-Pin_3-Pad3)*%
X251570000Y-153330000D03*
%TO.P,J5,4,Pin_4*%
%TO.N,unconnected-(J5-Pin_4-Pad4)*%
X251570000Y-155870000D03*
%TO.P,J5,5,Pin_5*%
%TO.N,unconnected-(J5-Pin_5-Pad5)*%
X251570000Y-158410000D03*
%TO.P,J5,6,Pin_6*%
%TO.N,unconnected-(J5-Pin_6-Pad6)*%
X251570000Y-160950000D03*
%TO.P,J5,7,Pin_7*%
%TO.N,GND*%
X251570000Y-163490000D03*
%TO.P,J5,8,Pin_8*%
%TO.N,unconnected-(J5-Pin_8-Pad8)*%
X251570000Y-166030000D03*
%TD*%
D23*
%TO.P,R19,1*%
%TO.N,/DISP_MISO*%
X160750000Y-200500000D03*
%TO.P,R19,2*%
%TO.N,Net-(J3-Pin_21)*%
X158750000Y-200500000D03*
%TD*%
D17*
%TO.P,J3,1,Pin_1*%
%TO.N,Net-(J3-Pin_1)*%
X156140000Y-225890000D03*
D18*
%TO.P,J3,2,Pin_2*%
%TO.N,+5VD*%
X148520000Y-225890000D03*
%TO.P,J3,3,Pin_3*%
%TO.N,/DISP_SDA*%
X156140000Y-223350000D03*
%TO.P,J3,4,Pin_4*%
%TO.N,+5VD*%
X148520000Y-223350000D03*
%TO.P,J3,5,Pin_5*%
%TO.N,/DISP_SCL*%
X156140000Y-220810000D03*
%TO.P,J3,6,Pin_6*%
%TO.N,GND*%
X148520000Y-220810000D03*
%TO.P,J3,7,Pin_7*%
%TO.N,/P4_free*%
X156140000Y-218270000D03*
%TO.P,J3,8,Pin_8*%
%TO.N,/P_TX_free*%
X148520000Y-218270000D03*
%TO.P,J3,9,Pin_9*%
%TO.N,GND*%
X156140000Y-215730000D03*
%TO.P,J3,10,Pin_10*%
%TO.N,/P_RX_free*%
X148520000Y-215730000D03*
%TO.P,J3,11,Pin_11*%
%TO.N,/DISP_RST*%
X156140000Y-213190000D03*
%TO.P,J3,12,Pin_12*%
%TO.N,/P18_free*%
X148520000Y-213190000D03*
%TO.P,J3,13,Pin_13*%
%TO.N,/P27_free*%
X156140000Y-210650000D03*
%TO.P,J3,14,Pin_14*%
%TO.N,GND*%
X148520000Y-210650000D03*
%TO.P,J3,15,Pin_15*%
%TO.N,/P22_free*%
X156140000Y-208110000D03*
%TO.P,J3,16,Pin_16*%
%TO.N,/P23_free*%
X148520000Y-208110000D03*
%TO.P,J3,17,Pin_17*%
%TO.N,Net-(J3-Pin_17)*%
X156140000Y-205570000D03*
%TO.P,J3,18,Pin_18*%
%TO.N,/DISP_HRDY*%
X148520000Y-205570000D03*
%TO.P,J3,19,Pin_19*%
%TO.N,/DISP_MOSI*%
X156140000Y-203030000D03*
%TO.P,J3,20,Pin_20*%
%TO.N,GND*%
X148520000Y-203030000D03*
%TO.P,J3,21,Pin_21*%
%TO.N,Net-(J3-Pin_21)*%
X156140000Y-200490000D03*
%TO.P,J3,22,Pin_22*%
%TO.N,/P25_free*%
X148520000Y-200490000D03*
%TO.P,J3,23,Pin_23*%
%TO.N,/DISP_SCK*%
X156140000Y-197950000D03*
%TO.P,J3,24,Pin_24*%
%TO.N,/DISP_CS*%
X148520000Y-197950000D03*
%TO.P,J3,25,Pin_25*%
%TO.N,GND*%
X156140000Y-195410000D03*
%TO.P,J3,26,Pin_26*%
%TO.N,/P_CS1_free*%
X148520000Y-195410000D03*
%TO.P,J3,27,Pin_27*%
%TO.N,/ID_SD*%
X156140000Y-192870000D03*
%TO.P,J3,28,Pin_28*%
%TO.N,/ID_SC_free*%
X148520000Y-192870000D03*
%TO.P,J3,29,Pin_29*%
%TO.N,/P5_free*%
X156140000Y-190330000D03*
%TO.P,J3,30,Pin_30*%
%TO.N,GND*%
X148520000Y-190330000D03*
%TO.P,J3,31,Pin_31*%
%TO.N,/P6_free*%
X156140000Y-187790000D03*
%TO.P,J3,32,Pin_32*%
%TO.N,/P12_free*%
X148520000Y-187790000D03*
%TO.P,J3,33,Pin_33*%
%TO.N,/P13_free*%
X156140000Y-185250000D03*
%TO.P,J3,34,Pin_34*%
%TO.N,GND*%
X148520000Y-185250000D03*
%TO.P,J3,35,Pin_35*%
%TO.N,/P19_free*%
X156140000Y-182710000D03*
%TO.P,J3,36,Pin_36*%
%TO.N,/P16_free*%
X148520000Y-182710000D03*
%TO.P,J3,37,Pin_37*%
%TO.N,/P26_free*%
X156140000Y-180170000D03*
%TO.P,J3,38,Pin_38*%
%TO.N,/P20_free*%
X148520000Y-180170000D03*
%TO.P,J3,39,Pin_39*%
%TO.N,GND*%
X156140000Y-177630000D03*
%TO.P,J3,40,Pin_40*%
%TO.N,/P21_free*%
X148520000Y-177630000D03*
%TD*%
D31*
%TO.N,+5V*%
X216370000Y-185530000D03*
X217270000Y-185480000D03*
%TO.N,GND*%
X205320000Y-145720000D03*
X245260000Y-168550000D03*
X220690000Y-185900000D03*
X227850000Y-54840000D03*
X196750000Y-156610000D03*
X189842500Y-82800000D03*
X189772500Y-85230000D03*
X247720000Y-168570000D03*
X200960000Y-156580000D03*
X242770000Y-168520000D03*
X189892500Y-80290000D03*
X203440000Y-156480000D03*
%TO.N,+3.3V*%
X201090000Y-151870000D03*
X240830000Y-121370000D03*
X192832500Y-75870000D03*
X237140000Y-166300000D03*
X245960000Y-121370000D03*
X237260000Y-171390000D03*
%TO.N,Net-(D1-A)*%
X224910000Y-58370000D03*
%TO.N,/SD_D5_SCK*%
X208380000Y-149980000D03*
%TO.N,/SD_D6_MISO*%
X209910000Y-147310000D03*
%TO.N,/SD_D7_MOSI*%
X197150000Y-148770000D03*
%TO.N,/SD_D8_CS*%
X195840000Y-146820000D03*
%TO.N,/EN_PWR_HALL*%
X197132500Y-77920000D03*
%TO.N,/HALL_LEFT*%
X248640000Y-99180000D03*
%TD*%
D32*
%TO.N,Net-(J1-Pin_2)*%
X228800000Y-67070000D02*
X225750000Y-67070000D01*
X225750000Y-67070000D02*
X225720000Y-67040000D01*
D33*
%TO.N,+5V*%
X216340000Y-189990000D02*
X216370000Y-190020000D01*
D34*
X216370000Y-186640000D02*
X216370000Y-187420000D01*
X217270000Y-185480000D02*
X217270000Y-185740000D01*
X217270000Y-185740000D02*
X216370000Y-186640000D01*
X216370000Y-185530000D02*
X216370000Y-186640000D01*
X217270000Y-185480000D02*
X216420000Y-185480000D01*
D33*
X216340000Y-187450000D02*
X216340000Y-189990000D01*
D34*
X216420000Y-185480000D02*
X216370000Y-185530000D01*
D32*
%TO.N,/SDA*%
X244515000Y-127690000D02*
X249650000Y-127690000D01*
X243590000Y-126765000D02*
X244515000Y-127690000D01*
%TO.N,/SCL*%
X249150000Y-129190000D02*
X239940000Y-129190000D01*
X249650000Y-129690000D02*
X249150000Y-129190000D01*
X239940000Y-129190000D02*
X238850000Y-128100000D01*
X238850000Y-128100000D02*
X238850000Y-126820000D01*
X238850000Y-126820000D02*
X238860000Y-126810000D01*
D33*
%TO.N,GND*%
X188450000Y-82770000D02*
X189812500Y-82770000D01*
X203440000Y-155110000D02*
X203440000Y-156480000D01*
X245212500Y-169972500D02*
X245250000Y-170010000D01*
X242770000Y-169972500D02*
X242770000Y-168520000D01*
D32*
X196770000Y-156590000D02*
X196750000Y-156610000D01*
D33*
X188487500Y-80290000D02*
X188487500Y-82732500D01*
X189762500Y-85220000D02*
X189772500Y-85230000D01*
X247700000Y-170010000D02*
X245250000Y-170010000D01*
X188487500Y-82732500D02*
X188450000Y-82770000D01*
X204976000Y-146064000D02*
X205320000Y-145720000D01*
X220680000Y-185910000D02*
X220690000Y-185900000D01*
X188450000Y-82770000D02*
X188450000Y-85220000D01*
X249650000Y-133700000D02*
X249680000Y-133730000D01*
X200960000Y-155177500D02*
X200960000Y-156580000D01*
X189812500Y-82770000D02*
X189842500Y-82800000D01*
X220700000Y-187480000D02*
X220680000Y-187460000D01*
X188450000Y-85220000D02*
X189762500Y-85220000D01*
X245250000Y-168560000D02*
X245260000Y-168550000D01*
X188487500Y-80290000D02*
X189892500Y-80290000D01*
X245250000Y-170010000D02*
X245250000Y-168560000D01*
D32*
X196770000Y-155380000D02*
X196770000Y-156590000D01*
D33*
X242770000Y-169972500D02*
X245212500Y-169972500D01*
X249680000Y-133730000D02*
X249680000Y-139220000D01*
X220700000Y-190025000D02*
X220700000Y-187480000D01*
X220680000Y-187460000D02*
X220680000Y-185910000D01*
X247700000Y-170010000D02*
X247700000Y-168590000D01*
X204976000Y-146460000D02*
X204976000Y-146064000D01*
X247700000Y-168590000D02*
X247720000Y-168570000D01*
D32*
%TO.N,+3.3V*%
X239810000Y-124935000D02*
X239810000Y-122730000D01*
X200912500Y-153290000D02*
X200912500Y-152047500D01*
X244540000Y-124890000D02*
X244540000Y-122840000D01*
D33*
X237260000Y-171110000D02*
X238310000Y-170060000D01*
D34*
X238280000Y-170030000D02*
X238310000Y-170060000D01*
D32*
X199100000Y-151477500D02*
X200912500Y-153290000D01*
X244540000Y-122840000D02*
X244630000Y-122750000D01*
D33*
X237140000Y-166300000D02*
X237140000Y-166590000D01*
X237260000Y-171390000D02*
X237260000Y-171110000D01*
X190762500Y-75890000D02*
X188537500Y-75890000D01*
D32*
X244630000Y-122750000D02*
X244630000Y-122700000D01*
X239820000Y-122380000D02*
X240830000Y-121370000D01*
D33*
X188537500Y-75890000D02*
X188387500Y-76040000D01*
X192812500Y-75890000D02*
X192832500Y-75870000D01*
X190762500Y-75890000D02*
X192812500Y-75890000D01*
D32*
X200912500Y-152047500D02*
X201090000Y-151870000D01*
D34*
X238280000Y-167730000D02*
X238280000Y-170030000D01*
D32*
X239820000Y-122720000D02*
X239820000Y-122380000D01*
X239810000Y-122730000D02*
X239820000Y-122720000D01*
X199100000Y-151010000D02*
X199100000Y-151477500D01*
D33*
X237140000Y-166590000D02*
X238280000Y-167730000D01*
D32*
X244630000Y-122700000D02*
X245960000Y-121370000D01*
%TO.N,/SPI_CS*%
X206620000Y-72180000D02*
X214080000Y-72180000D01*
X214080000Y-72180000D02*
X221730000Y-64530000D01*
X221730000Y-64530000D02*
X228800000Y-64530000D01*
X199100000Y-146460000D02*
X199100000Y-79700000D01*
X199100000Y-79700000D02*
X206620000Y-72180000D01*
D33*
%TO.N,Net-(J3-Pin_1)*%
X156180000Y-225930000D02*
X156140000Y-225890000D01*
X159180000Y-225930000D02*
X156180000Y-225930000D01*
D34*
%TO.N,+5VD*%
X148520000Y-227092081D02*
X151617919Y-230190000D01*
X148520000Y-227092081D02*
X148520000Y-223350000D01*
X158280000Y-230190000D02*
X165120000Y-223350000D01*
X217350000Y-200985000D02*
X217350000Y-199380000D01*
X151617919Y-230190000D02*
X158280000Y-230190000D01*
X194985000Y-223350000D02*
X217350000Y-200985000D01*
X148520000Y-227092081D02*
X148520000Y-225890000D01*
X165120000Y-223350000D02*
X194985000Y-223350000D01*
D32*
%TO.N,+3.3VA*%
X232930000Y-166030000D02*
X228710000Y-166030000D01*
X233640000Y-160960000D02*
X233640000Y-163520000D01*
D34*
X228710000Y-166770000D02*
X228710000Y-166030000D01*
X224120000Y-171360000D02*
X228710000Y-166770000D01*
D32*
X233640000Y-155900000D02*
X233640000Y-158400000D01*
X233640000Y-158400000D02*
X233640000Y-160960000D01*
X233630000Y-163530000D02*
X233630000Y-165330000D01*
X233630000Y-165330000D02*
X232930000Y-166030000D01*
X233640000Y-163520000D02*
X233630000Y-163530000D01*
D33*
%TO.N,Net-(JP3-A)*%
X186512500Y-76990000D02*
X186512500Y-80190000D01*
X186450000Y-80327500D02*
X186412500Y-80290000D01*
X186450000Y-85220000D02*
X186450000Y-80327500D01*
X186477500Y-76955000D02*
X186477500Y-71140000D01*
X186512500Y-76990000D02*
X186477500Y-76955000D01*
X186512500Y-80190000D02*
X186412500Y-80290000D01*
D34*
%TO.N,Net-(JP1-A)*%
X217320000Y-191895000D02*
X217310000Y-191905000D01*
X217310000Y-196800000D02*
X217350000Y-196840000D01*
X217310000Y-191905000D02*
X217310000Y-196800000D01*
%TO.N,Net-(JP2-A)*%
X224120000Y-173900000D02*
X237295000Y-173900000D01*
X247700000Y-172010000D02*
X239335000Y-172010000D01*
X237295000Y-173900000D02*
X239260000Y-171935000D01*
X239335000Y-172010000D02*
X239260000Y-171935000D01*
D33*
%TO.N,Net-(Q1-G)*%
X240280000Y-167730000D02*
X240280000Y-165160000D01*
X240210000Y-167800000D02*
X240280000Y-167730000D01*
X240210000Y-170060000D02*
X240210000Y-167800000D01*
%TO.N,Net-(Q2-G)*%
X218270000Y-190020000D02*
X218270000Y-190380000D01*
X218340000Y-189950000D02*
X218270000Y-190020000D01*
X218270000Y-190380000D02*
X219790000Y-191900000D01*
X218340000Y-187450000D02*
X218340000Y-189950000D01*
X219790000Y-191900000D02*
X221650000Y-191900000D01*
D32*
%TO.N,/DISP_HRDY*%
X150880000Y-205570000D02*
X152150000Y-204300000D01*
X212970000Y-168870000D02*
X212970000Y-87690000D01*
X215810000Y-84850000D02*
X228800000Y-84850000D01*
X148520000Y-205570000D02*
X150880000Y-205570000D01*
X212970000Y-87690000D02*
X215810000Y-84850000D01*
X152150000Y-204300000D02*
X177540000Y-204300000D01*
X177540000Y-204300000D02*
X212970000Y-168870000D01*
D33*
%TO.N,Net-(Q4-G)*%
X190712500Y-77940000D02*
X190762500Y-77890000D01*
X188387500Y-77940000D02*
X190712500Y-77940000D01*
X190782500Y-77870000D02*
X190762500Y-77890000D01*
X193002500Y-77870000D02*
X190782500Y-77870000D01*
%TO.N,Net-(D1-A)*%
X224900000Y-60040000D02*
X224900000Y-58380000D01*
D32*
%TO.N,/DISP_RST*%
X215780000Y-89670000D02*
X218060000Y-87390000D01*
X156140000Y-213190000D02*
X172560000Y-213190000D01*
X215780000Y-169970000D02*
X215780000Y-89670000D01*
X172560000Y-213190000D02*
X215780000Y-169970000D01*
X218060000Y-87390000D02*
X228800000Y-87390000D01*
D34*
%TO.N,Net-(J6-Pin_2)*%
X249650000Y-131700000D02*
X241700000Y-131700000D01*
D32*
%TO.N,Net-(J3-Pin_21)*%
X156140000Y-200490000D02*
X158740000Y-200490000D01*
X158740000Y-200490000D02*
X158750000Y-200500000D01*
D33*
%TO.N,Net-(J3-Pin_17)*%
X156140000Y-205570000D02*
X158270000Y-205570000D01*
X158270000Y-205570000D02*
X160370000Y-207670000D01*
D32*
%TO.N,/DISP_MOSI*%
X170040000Y-149710000D02*
X199100000Y-149710000D01*
X156140000Y-203030000D02*
X154390000Y-203030000D01*
X153360000Y-202000000D02*
X153360000Y-166390000D01*
X153360000Y-166390000D02*
X170040000Y-149710000D01*
X154390000Y-203030000D02*
X153360000Y-202000000D01*
%TO.N,/DISP_SCK*%
X204976000Y-150360000D02*
X206570000Y-150360000D01*
X206570000Y-150360000D02*
X207840000Y-151630000D01*
X207840000Y-151630000D02*
X207840000Y-155320000D01*
X207840000Y-155320000D02*
X203250000Y-159910000D01*
X194180000Y-159910000D02*
X156140000Y-197950000D01*
X203250000Y-159910000D02*
X194180000Y-159910000D01*
%TO.N,/SD_D5_SCK*%
X231640000Y-155900000D02*
X231610000Y-155870000D01*
X208110000Y-149710000D02*
X208380000Y-149980000D01*
X231610000Y-155870000D02*
X228710000Y-155870000D01*
X204976000Y-149710000D02*
X208110000Y-149710000D01*
%TO.N,/SD_D6_MISO*%
X231640000Y-158400000D02*
X231630000Y-158410000D01*
X231630000Y-158410000D02*
X228710000Y-158410000D01*
X209910000Y-147310000D02*
X209460000Y-147760000D01*
X209460000Y-147760000D02*
X204976000Y-147760000D01*
%TO.N,/SD_D7_MOSI*%
X199100000Y-149060000D02*
X197440000Y-149060000D01*
X231630000Y-160950000D02*
X228710000Y-160950000D01*
X197440000Y-149060000D02*
X197150000Y-148770000D01*
X231640000Y-160960000D02*
X231630000Y-160950000D01*
%TO.N,/SD_D8_CS*%
X195840000Y-146820000D02*
X196130000Y-147110000D01*
X231610000Y-163490000D02*
X228710000Y-163490000D01*
X196130000Y-147110000D02*
X199100000Y-147110000D01*
X231640000Y-163520000D02*
X231610000Y-163490000D01*
%TO.N,/SPI_SCK*%
X203460000Y-148531500D02*
X203460000Y-84600000D01*
X203460000Y-84600000D02*
X210340000Y-77720000D01*
X204976000Y-149060000D02*
X203988500Y-149060000D01*
X203988500Y-149060000D02*
X203460000Y-148531500D01*
X210340000Y-77720000D02*
X219190000Y-77720000D01*
X219190000Y-77720000D02*
X219300000Y-77610000D01*
%TO.N,/DISP_MISO*%
X210260000Y-157800000D02*
X210260000Y-149660000D01*
X209010000Y-148410000D02*
X204976000Y-148410000D01*
X198290000Y-164070000D02*
X203990000Y-164070000D01*
X161860000Y-200500000D02*
X198290000Y-164070000D01*
X203990000Y-164070000D02*
X210260000Y-157800000D01*
X210260000Y-149660000D02*
X209010000Y-148410000D01*
X160750000Y-200500000D02*
X161860000Y-200500000D01*
%TO.N,/SPI_MOSI*%
X215510000Y-73600000D02*
X222070000Y-67040000D01*
X200087500Y-148410000D02*
X200590000Y-147907500D01*
X199100000Y-148410000D02*
X200087500Y-148410000D01*
X200590000Y-80370000D02*
X207360000Y-73600000D01*
X207360000Y-73600000D02*
X215510000Y-73600000D01*
X222070000Y-67040000D02*
X223720000Y-67040000D01*
X200590000Y-147907500D02*
X200590000Y-80370000D01*
%TO.N,/DISP_CS*%
X168410000Y-147760000D02*
X199100000Y-147760000D01*
X151510000Y-164660000D02*
X168410000Y-147760000D01*
X151510000Y-194960000D02*
X151510000Y-164660000D01*
X148520000Y-197950000D02*
X151510000Y-194960000D01*
%TO.N,/BATT_SCL*%
X247630000Y-92460000D02*
X237720000Y-102370000D01*
X251580000Y-92460000D02*
X247630000Y-92460000D01*
X237910000Y-122810000D02*
X237820000Y-122720000D01*
X237720000Y-102370000D02*
X237720000Y-122620000D01*
X237720000Y-122620000D02*
X237820000Y-122720000D01*
X237910000Y-124935000D02*
X237910000Y-122810000D01*
%TO.N,/BATT_SDA*%
X242640000Y-122760000D02*
X242630000Y-122750000D01*
X242640000Y-124890000D02*
X242640000Y-122760000D01*
X249970000Y-95000000D02*
X251580000Y-95000000D01*
X242630000Y-122750000D02*
X242630000Y-102340000D01*
X242630000Y-102340000D02*
X249970000Y-95000000D01*
%TO.N,/SPI_MISO*%
X208190000Y-144930000D02*
X208190000Y-82850000D01*
X225240000Y-77800000D02*
X225240000Y-75710000D01*
X210580000Y-80460000D02*
X222580000Y-80460000D01*
X225240000Y-75710000D02*
X228800000Y-72150000D01*
X208190000Y-82850000D02*
X210580000Y-80460000D01*
X206010000Y-147110000D02*
X208190000Y-144930000D01*
X222580000Y-80460000D02*
X225240000Y-77800000D01*
X204976000Y-147110000D02*
X206010000Y-147110000D01*
%TO.N,Net-(U1-~{EN})*%
X198120000Y-150360000D02*
X199100000Y-150360000D01*
X196770000Y-153380000D02*
X196770000Y-151710000D01*
X196770000Y-151710000D02*
X198120000Y-150360000D01*
D33*
%TO.N,/SW_DISP_SD*%
X203440000Y-152546000D02*
X204976000Y-151010000D01*
D32*
X204966000Y-151020000D02*
X204976000Y-151010000D01*
X232250000Y-67060000D02*
X230970000Y-68340000D01*
X209230000Y-75430000D02*
X201920000Y-82740000D01*
X226810000Y-68340000D02*
X219720000Y-75430000D01*
X201920000Y-82740000D02*
X201920000Y-149700000D01*
X201920000Y-149700000D02*
X203240000Y-151020000D01*
X219720000Y-75430000D02*
X209230000Y-75430000D01*
X251580000Y-67060000D02*
X232250000Y-67060000D01*
D33*
X203440000Y-153110000D02*
X203440000Y-152546000D01*
D32*
X230970000Y-68340000D02*
X226810000Y-68340000D01*
X203240000Y-151020000D02*
X204966000Y-151020000D01*
%TO.N,/LED*%
X249100000Y-62040000D02*
X251580000Y-64520000D01*
X224900000Y-62040000D02*
X249100000Y-62040000D01*
%TO.N,Net-(J1-Pin_3)*%
X221300000Y-77110000D02*
X221300000Y-77610000D01*
X228800000Y-69610000D02*
X221300000Y-77110000D01*
%TO.N,/HALL_TOP*%
X226440000Y-56840000D02*
X224090000Y-56840000D01*
X253820000Y-62310000D02*
X251810000Y-60300000D01*
X224090000Y-56840000D02*
X222600000Y-58330000D01*
X217860000Y-57260000D02*
X217860000Y-56130000D01*
X251810000Y-60300000D02*
X229900000Y-60300000D01*
X229900000Y-60300000D02*
X226440000Y-56840000D01*
X222600000Y-58330000D02*
X218930000Y-58330000D01*
X218930000Y-58330000D02*
X217860000Y-57260000D01*
X253820000Y-68950000D02*
X253820000Y-62310000D01*
X251580000Y-69600000D02*
X253170000Y-69600000D01*
X253170000Y-69600000D02*
X253820000Y-68950000D01*
D33*
%TO.N,/EN_PWR_HALL*%
X195002500Y-77870000D02*
X197082500Y-77870000D01*
X197082500Y-77870000D02*
X197132500Y-77920000D01*
D32*
%TO.N,/EN_PWR_DISP*%
X221180000Y-181030000D02*
X222640000Y-182490000D01*
X223380000Y-163620000D02*
X221180000Y-165820000D01*
X250120000Y-79760000D02*
X232080000Y-97800000D01*
X223380000Y-138000000D02*
X223380000Y-163620000D01*
D33*
X222600000Y-187540000D02*
X222680000Y-187460000D01*
D32*
X221180000Y-165820000D02*
X221180000Y-181030000D01*
X222640000Y-182490000D02*
X222640000Y-187420000D01*
D33*
X222650000Y-187430000D02*
X222680000Y-187460000D01*
D32*
X232080000Y-129300000D02*
X223380000Y-138000000D01*
X222640000Y-187420000D02*
X222680000Y-187460000D01*
X251580000Y-79760000D02*
X250120000Y-79760000D01*
D33*
X222600000Y-190025000D02*
X222600000Y-187540000D01*
D32*
X232080000Y-97800000D02*
X232080000Y-129300000D01*
%TO.N,/EN_PWR_SD*%
X234720000Y-99160000D02*
X251580000Y-82300000D01*
X240280000Y-163160000D02*
X240270000Y-163150000D01*
X234720000Y-134080000D02*
X234720000Y-99160000D01*
X240270000Y-163150000D02*
X240270000Y-139630000D01*
X240270000Y-139630000D02*
X234720000Y-134080000D01*
%TO.N,/HALL_LEFT*%
X248630000Y-99190000D02*
X248640000Y-99180000D01*
X250640000Y-168680000D02*
X248710000Y-166750000D01*
X248710000Y-166750000D02*
X248710000Y-144390000D01*
X251940000Y-113910000D02*
X248630000Y-110600000D01*
X249370000Y-207010000D02*
X249370000Y-174740000D01*
X248630000Y-110600000D02*
X248630000Y-99190000D01*
X248710000Y-144390000D02*
X251900000Y-141200000D01*
X249370000Y-174740000D02*
X250640000Y-173470000D01*
X228560000Y-227820000D02*
X249370000Y-207010000D01*
X250640000Y-173470000D02*
X250640000Y-168680000D01*
X251900000Y-141200000D02*
X251940000Y-141200000D01*
X251940000Y-141200000D02*
X251940000Y-113910000D01*
X228560000Y-231000000D02*
X228560000Y-227820000D01*
%TO.N,/HALL_RIGHT*%
X239960000Y-231000000D02*
X239960000Y-220720000D01*
X254370000Y-163780000D02*
X254370000Y-90990000D01*
X253300000Y-89920000D02*
X251580000Y-89920000D01*
X252370000Y-208310000D02*
X252370000Y-169660000D01*
X239960000Y-220720000D02*
X252370000Y-208310000D01*
X254220000Y-167810000D02*
X254220000Y-163930000D01*
X252370000Y-169660000D02*
X254220000Y-167810000D01*
X254370000Y-90990000D02*
X253300000Y-89920000D01*
X254220000Y-163930000D02*
X254370000Y-163780000D01*
%TD*%
M02*
